<?xml version="1.0" encoding="utf-8"?>
<!-- Generator: Adobe Illustrator 15.0.0, SVG Export Plug-In . SVG Version: 6.00 Build 0)  -->
<!DOCTYPE svg PUBLIC "-//W3C//DTD SVG 1.1//EN" "http://www.w3.org/Graphics/SVG/1.1/DTD/svg11.dtd">
<svg version="1.1" id="Capa_1" xmlns="http://www.w3.org/2000/svg" xmlns:xlink="http://www.w3.org/1999/xlink" x="0px" y="0px"
	 width="176.5px" height="132.7px" viewBox="-13.2 0 176.5 132.7" style="enable-background:new -13.2 0 176.5 132.7;"
	 xml:space="preserve">
<style type="text/css">
<![CDATA[
	.st0{fill:#FFFFFF;}
]]>
</style>
<rect x="-13.2" class="st0" width="176.5" height="132.7"/>
<g>
	<path d="M87.2,126.9c5.5-0.2,22.7-4.2,38.3-14.9H88.4C87.2,118.8,87,124.2,87.2,126.9"/>
	<path d="M140.7,98.3H9.6c2.1,2.5,5.4,5.4,7.6,6.8h116C135.4,103.7,138.6,100.8,140.7,98.3"/>
	<path d="M75.1,127.8c2.3-2.2,6.9-8,11.3-16H63.8C68.3,120,72.7,125.6,75.1,127.8"/>
	<path d="M163.2,39.3c-22,1.3-46.9,17-61.4,38.6c0,0,0,0.1-0.1,0.1h52.8C160.9,65.2,164.2,51.5,163.2,39.3"/>
	<path d="M97.6,78c3.2-27.4-5.9-57-22.5-73.2C58.5,21.1,49.5,50.7,52.7,78H97.6z"/>
	<path d="M48.6,78C48.6,77.9,48.6,77.9,48.6,78C33.9,56.3,9.1,40.6-12.9,39.3c-1.1,12.2,2.2,26,8.7,38.6h52.7V78z"/>
	<path d="M63.1,126.9c0.2-2.6,0.1-8.1-1.2-14.9H24.7C40.3,122.7,57.6,126.6,63.1,126.9"/>
	<path d="M150.9,84.7H-0.5c1.1,2.1,3.3,5,5,6.8H146C147.7,89.8,149.9,86.8,150.9,84.7"/>
</g>
</svg>
