<?xml version="1.0" encoding="utf-8"?>
<!-- Generator: Adobe Illustrator 15.0.0, SVG Export Plug-In . SVG Version: 6.00 Build 0)  -->
<!DOCTYPE svg PUBLIC "-//W3C//DTD SVG 1.1//EN" "http://www.w3.org/Graphics/SVG/1.1/DTD/svg11.dtd">
<svg version="1.1" id="Capa_1" xmlns="http://www.w3.org/2000/svg" xmlns:xlink="http://www.w3.org/1999/xlink" x="0px" y="0px"
	 width="209.591px" height="97px" viewBox="71.877 -0.16 209.591 97" enable-background="new 71.877 -0.16 209.591 97"
	 xml:space="preserve">
<rect x="71.877" y="-0.16" fill="#FFFFFF" width="209.591" height="97"/>
<g>
	<g>
		<path fill="#585858" d="M142.922,48.341c0-19.474-15.697-35.287-35.052-35.523h138.076c19.59,0,35.521,15.933,35.521,35.523
			c0,19.59-15.932,35.521-35.521,35.521l0,0H107.399C126.99,83.862,142.922,67.931,142.922,48.341"/>
		<path d="M107.399,12.817c0.119,0,0.236,0,0.472,0c19.473,0.236,35.052,16.05,35.052,35.523c0,19.59-15.933,35.521-35.404,35.521
			l0,0c-19.709,0-35.641-15.932-35.641-35.521C71.877,28.75,87.809,12.817,107.399,12.817"/>
		<path fill="#FFFFFF" d="M106.573,27.452c0-0.354,0.235-0.591,0.473-0.709c0.354,0.236,0.473,0.473,0.473,0.709
			c0,0.235-0.237,0.59-0.473,0.707C106.808,27.924,106.573,27.688,106.573,27.452 M107.518,28.986
			c-0.237-0.119-0.355-0.473-0.355-0.827c0.355-0.117,0.59-0.235,0.945,0c0.234,0.118,0.354,0.473,0.354,0.827
			C108.108,29.104,107.752,29.104,107.518,28.986 M106.691,28.986c0.236-0.119,0.354-0.473,0.354-0.827
			c-0.354-0.117-0.59-0.235-0.944,0c-0.237,0.118-0.354,0.473-0.354,0.827C106.101,29.104,106.455,29.104,106.691,28.986
			 M110.113,27.688c0.118-0.354,0.355-0.472,0.59-0.59c0.236,0.236,0.355,0.59,0.355,0.826c-0.119,0.235-0.355,0.472-0.59,0.59
			C110.113,28.277,109.995,27.924,110.113,27.688 M110.585,29.34c-0.236-0.236-0.236-0.473-0.236-0.826
			c0.354-0.118,0.709-0.118,0.943,0.118c0.237,0.235,0.237,0.472,0.237,0.826C111.175,29.576,110.821,29.576,110.585,29.34
			 M109.758,29.222c0.237-0.118,0.473-0.354,0.591-0.708c-0.236-0.236-0.591-0.354-0.826-0.236
			c-0.354,0.118-0.472,0.354-0.591,0.709C109.168,29.222,109.523,29.34,109.758,29.222 M113.417,28.632
			c0.118-0.236,0.354-0.473,0.708-0.473c0.236,0.236,0.236,0.591,0.118,0.944c-0.118,0.236-0.354,0.473-0.708,0.473
			C113.299,29.222,113.299,28.867,113.417,28.632 M112.827,30.048c0.354,0,0.59-0.235,0.708-0.59
			c-0.236-0.236-0.473-0.472-0.826-0.354c-0.237,0-0.59,0.236-0.707,0.591C112.238,29.93,112.592,30.166,112.827,30.048
			 M104.094,27.688c0-0.354-0.235-0.472-0.59-0.59c-0.236,0.236-0.354,0.59-0.354,0.826c0.117,0.235,0.354,0.472,0.59,0.59
			C103.977,28.277,104.094,27.924,104.094,27.688 M103.504,29.34c0.236-0.236,0.354-0.473,0.236-0.826
			c-0.354-0.118-0.709-0.118-0.826,0.118c-0.236,0.235-0.236,0.472-0.236,0.826C102.914,29.576,103.268,29.576,103.504,29.34
			 M104.331,29.222c-0.237-0.118-0.473-0.354-0.591-0.708c0.236-0.236,0.591-0.354,0.826-0.236c0.234,0.118,0.472,0.354,0.59,0.709
			C104.921,29.222,104.567,29.34,104.331,29.222 M100.79,28.632c-0.119-0.236-0.354-0.473-0.709-0.473
			c-0.234,0.236-0.234,0.591-0.117,0.944c0.117,0.236,0.354,0.473,0.707,0.473C100.79,29.222,100.908,28.867,100.79,28.632
			 M101.261,30.048c-0.353,0-0.59-0.235-0.707-0.59c0.236-0.236,0.473-0.472,0.826-0.354c0.354,0,0.59,0.236,0.708,0.591
			C101.852,29.93,101.616,30.166,101.261,30.048 M106.336,21.078c0-0.472,0.354-0.825,0.826-0.825c0.473,0,0.826,0.354,0.826,0.825
			c0,0.473-0.354,0.827-0.826,0.827C106.691,21.905,106.336,21.551,106.336,21.078 M101.261,31.109l0.709,0.945
			c1.534-0.709,3.304-1.181,5.075-1.181c1.887,0,3.657,0.472,5.192,1.181l0.707-0.945c-1.652-0.825-3.657-1.297-5.782-1.297
			C105.038,29.812,103.031,30.284,101.261,31.109 M102.324,24.855c-0.236-0.118-0.473-0.118-0.708-0.118
			c-1.062,0-1.89,0.59-1.89,1.416c0,0.354,0.237,0.708,0.473,0.944l-0.825,0.826c-0.473-0.472-0.827-1.062-0.827-1.771
			c0-1.416,1.417-2.597,3.069-2.597c0.472,0,0.825,0.118,1.298,0.236c0.59-0.59,1.417-1.062,2.479-1.062
			c0.59,0,1.18,0.117,1.652,0.472c0.473-0.236,1.062-0.472,1.652-0.472c1.061,0,1.888,0.472,2.478,1.062
			c0.354-0.118,0.827-0.236,1.297-0.236c1.653,0,3.07,1.181,3.07,2.597c0,0.708-0.354,1.299-0.827,1.771l-0.826-0.826
			c0.354-0.236,0.473-0.59,0.473-0.944c0-0.826-0.826-1.416-1.89-1.416c-0.234,0-0.47,0-0.707,0.118c0,0.118,0,0.354,0,0.472
			c0,0.472-0.117,0.944-0.473,1.416l-0.824-0.826c0.117-0.118,0.117-0.354,0.117-0.59c0-0.826-0.827-1.416-1.888-1.416
			c-0.355,0-0.827,0.118-1.062,0.236v1.77h-1.18v-1.652c-0.354-0.235-0.709-0.235-1.182-0.235c-1.062,0-1.887,0.59-1.887,1.416
			c0,0.236,0,0.354,0.117,0.59l-0.826,0.826c-0.354-0.354-0.472-0.944-0.472-1.416C102.324,25.091,102.324,24.974,102.324,24.855
			 M106.336,72.534c0-0.473,0.354-0.71,0.826-0.71c0.473,0,0.708,0.354,0.708,0.71c0,0.471-0.353,0.824-0.708,0.824
			C106.691,73.241,106.336,72.887,106.336,72.534 M85.685,51.881c0-0.473,0.353-0.708,0.825-0.708c0.473,0,0.827,0.353,0.827,0.708
			c0,0.472-0.354,0.826-0.827,0.826C86.038,52.707,85.685,52.353,85.685,51.881 M126.87,51.881c0-0.473,0.354-0.708,0.709-0.708
			c0.472,0,0.825,0.353,0.825,0.708c0,0.472-0.354,0.826-0.825,0.826C127.225,52.707,126.87,52.353,126.87,51.881 M106.808,51.646
			h-3.776v-4.722h3.776V51.646z M103.031,38.545l3.776-3.776v10.268h-3.776V38.545z M111.175,65.216l-3.776,3.777V58.726h3.776
			V65.216z M107.399,52.116h3.776v4.721h-3.776V52.116z M104.921,67.104V52.116h1.887v16.758L104.921,67.104z M101.144,63.327
			V52.235h1.888v12.98L101.144,63.327z M97.367,59.552v-7.316h1.89v9.204L97.367,59.552z M93.59,55.775v-3.54h1.89v5.428
			L93.59,55.775z M90.05,52.116h1.771v1.771L90.05,52.116z M109.287,36.656v14.869h-1.889V34.769L109.287,36.656z M113.063,40.434
			v11.092h-1.888v-12.98L113.063,40.434z M116.839,44.21v7.315h-1.888v-9.204L116.839,44.21z M120.498,47.985v3.54h-1.888v-5.428
			L120.498,47.985z M124.157,51.646h-1.653v-1.771L124.157,51.646z M125.927,51.881c0,0-2.124,3.775-8.498,10.149
			c-6.49,6.49-10.384,8.732-10.384,8.732s-3.777-2.125-10.149-8.497c-6.491-6.49-8.733-10.385-8.733-10.385
			s2.124-3.776,8.497-10.149c6.491-6.491,10.386-8.733,10.386-8.733s3.775,2.125,10.148,8.497
			C123.803,47.985,125.927,51.881,125.927,51.881 M107.045,70.527l18.646-18.646l-18.646-18.646L88.399,51.881L107.045,70.527z
			 M125.927,51.881c0,0-2.124,3.775-8.498,10.149c-6.49,6.49-10.384,8.732-10.384,8.732s-3.777-2.125-10.149-8.497
			c-6.491-6.49-8.733-10.385-8.733-10.385s2.124-3.776,8.497-10.149c6.491-6.491,10.386-8.733,10.386-8.733
			s3.775,2.125,10.148,8.497C123.803,47.985,125.927,51.881,125.927,51.881 M107.045,70.527l18.646-18.646l-18.646-18.646
			L88.399,51.881L107.045,70.527z"/>
	</g>
	<polygon fill="#FFFFFF" points="113.063,63.327 113.063,63.327 113.063,58.726 117.549,58.726 	"/>
	<polygon fill="#FFFFFF" points="96.541,45.036 101.144,40.434 101.144,45.036 	"/>
	<polygon fill="#FFFFFF" points="113.063,52.116 113.063,54.477 113.063,56.837 116.249,56.837 119.436,56.837 124.157,52.116 	"/>
	<polygon fill="#FFFFFF" points="94.771,46.924 90.05,51.646 101.144,51.646 101.144,46.924 	"/>
	<g>
		<path fill="#FFFFFF" d="M169.828,57.427c0-1.415-0.709-2.714-2.125-3.422c1.299-0.59,1.889-1.889,1.889-3.187
			s-0.59-2.478-1.77-3.304c-1.063-0.709-2.244-0.826-3.424-0.826h-5.9v14.987h5.9c1.417,0,2.832-0.118,4.014-1.062
			C169.356,59.906,169.828,58.726,169.828,57.427 M166.759,51.055c0,1.416-1.062,1.888-2.241,1.888h-3.424v-3.776h3.305
			C165.698,49.166,166.759,49.639,166.759,51.055 M167.114,57.31c0,1.534-1.416,2.007-2.596,2.007h-3.304v-4.132h3.421
			C165.934,55.185,167.114,55.775,167.114,57.31 M181.865,61.676v-2.007c0,0-0.118,0-0.355,0c-0.471,0-0.59-0.235-0.59-0.707v-4.013
			c0-0.707,0-1.534-0.353-2.242c-0.59-1.652-2.242-2.242-4.132-2.242c-2.477,0-4.366,1.061-4.601,3.54h2.595
			c0.119-1.062,0.826-1.534,2.006-1.534c1.535,0,1.89,0.709,1.89,1.771v0.707l-3.187,0.235c-2.124,0.118-3.659,1.298-3.659,3.422
			c0,1.771,1.298,3.424,4.013,3.424c1.534,0,2.833-0.708,3.304-1.652c0.12,0.825,0.71,1.534,1.89,1.534
			C181.157,61.912,181.393,61.793,181.865,61.676 M178.325,57.427c0,1.652-1.181,2.479-2.833,2.479
			c-0.826,0-1.533-0.473-1.533-1.417s0.825-1.416,1.533-1.416l2.833-0.236V57.427z M190.598,53.18v-2.479
			c-0.236,0-0.59-0.119-0.826-0.119c-1.298,0-2.595,0.473-3.067,1.771l-0.237-1.651h-2.241v10.975h2.714v-5.547
			c0-1.77,0.944-3.068,2.832-3.068C189.89,53.18,190.244,53.18,190.598,53.18 M200.983,57.899h-2.595
			c0,0.354-0.118,0.707-0.355,1.062c-0.354,0.472-0.944,0.825-1.651,0.825c-0.709,0-1.299-0.354-1.652-0.708
			c-0.591-0.707-0.708-1.77-0.708-2.714c0-1.062,0.117-2.123,0.708-2.833c0.354-0.353,0.826-0.707,1.652-0.707
			s1.417,0.354,1.651,0.826c0.118,0.235,0.237,0.591,0.355,1.062h2.595c0-0.826-0.354-1.771-0.825-2.36
			c-0.708-0.944-2.125-1.771-3.776-1.771c-1.652,0-3.068,0.826-3.777,1.771c-0.825,1.062-1.18,2.36-1.18,4.013
			c0,1.651,0.354,2.951,1.18,4.013c0.709,0.944,2.125,1.77,3.777,1.77c1.651,0,2.951-0.825,3.776-1.77
			C200.629,59.552,200.983,58.726,200.983,57.899 M212.549,56.365c0-1.416-0.119-2.596-0.944-3.777
			c-0.944-1.415-2.361-2.006-4.013-2.006c-1.533,0-2.713,0.591-3.54,1.416c-1.062,1.062-1.534,2.597-1.534,4.367
			c0,1.77,0.59,3.304,1.651,4.366c0.827,0.826,2.007,1.299,3.423,1.299c1.417,0,2.714-0.473,3.658-1.534
			c0.473-0.473,0.827-1.417,0.944-2.007h-2.479c-0.117,0.354-0.235,0.707-0.473,0.944c-0.354,0.354-0.824,0.473-1.651,0.473
			c-0.708,0-1.299-0.354-1.652-0.71c-0.471-0.471-0.826-1.297-0.826-2.123h7.316C212.549,56.837,212.549,56.365,212.549,56.365
			 M209.953,55.185h-4.722c0-0.708,0.237-1.18,0.59-1.77c0.354-0.473,1.062-0.827,1.889-0.827c0.709,0,1.299,0.237,1.652,0.592
			C209.716,53.77,209.953,54.359,209.953,55.185 M219.157,61.676v-2.242c-0.118,0-0.236,0-0.472,0c-0.944,0-1.062-0.472-1.062-1.062
			V46.451h-2.715v12.393c0,2.124,1.181,2.949,2.95,2.949C218.568,61.912,218.686,61.793,219.157,61.676 M230.842,56.247
			c0-1.888-0.473-3.067-1.3-4.012c-0.707-0.944-2.124-1.653-3.894-1.653c-1.653,0-3.067,0.826-3.895,1.653
			c-0.826,1.062-1.299,2.241-1.299,4.012c0,1.888,0.473,3.069,1.299,4.012c0.707,0.944,2.124,1.653,3.895,1.653
			c1.652,0,3.068-0.826,3.894-1.653C230.369,59.316,230.842,58.135,230.842,56.247 M228.126,56.247c0,1.062-0.118,2.125-0.825,2.715
			c-0.355,0.354-0.945,0.707-1.652,0.707c-0.708,0-1.298-0.353-1.653-0.707c-0.59-0.709-0.824-1.771-0.824-2.715
			c0-1.062,0.117-2.125,0.824-2.715c0.355-0.353,0.945-0.707,1.653-0.707c0.707,0,1.297,0.354,1.652,0.707
			C228.008,54.242,228.126,55.185,228.126,56.247 M242.76,61.793v-7.316c0-2.241-1.417-3.895-3.658-3.895
			c-1.299,0-2.596,0.473-3.186,1.653l-0.237-1.417h-2.242v10.975h2.597V57.31c0-0.944,0-2.125,0.354-2.95
			c0.354-0.827,0.944-1.417,1.888-1.417c1.416,0,1.771,0.827,1.771,2.124v6.727H242.76z M255.388,61.676v-2.007c0,0-0.118,0-0.354,0
			c-0.472,0-0.59-0.235-0.59-0.707v-4.013c0-0.707,0-1.534-0.355-2.242c-0.59-1.652-2.24-2.242-4.13-2.242
			c-2.477,0-4.365,1.061-4.602,3.54h2.596c0.119-1.062,0.826-1.534,2.006-1.534c1.536,0,1.89,0.709,1.89,1.771v0.707l-3.187,0.235
			c-2.124,0.118-3.658,1.298-3.658,3.422c0,1.771,1.297,3.424,4.011,3.424c1.535,0,2.834-0.708,3.305-1.652
			c0.119,0.825,0.709,1.534,1.89,1.534C254.68,61.912,254.915,61.793,255.388,61.676 M251.848,57.427
			c0,1.652-1.181,2.479-2.834,2.479c-0.825,0-1.532-0.473-1.532-1.417s0.825-1.416,1.532-1.416l2.834-0.236V57.427z"/>
		<path fill="#FFFFFF" d="M167.703,41.023l-3.775-10.739h-2.124l-3.777,10.739h2.006l0.709-2.007h4.247l0.709,2.007H167.703z
			 M164.399,37.129h-3.067l1.534-4.484L164.399,37.129z M170.535,30.048h-2.006v2.007h2.006V30.048z M170.535,42.085v-8.969h-1.888
			v8.615c0,0.472-0.354,0.826-0.944,0.826c-0.235,0-0.354,0-0.944-0.118v1.651c0.354,0.119,0.591,0.119,0.826,0.119
			c0.237,0,0.473,0,0.709,0C169.709,44.21,170.535,43.384,170.535,42.085 M178.796,41.023v-7.907h-1.887v4.13
			c0,0.591-0.119,1.299-0.591,1.771c-0.236,0.236-0.59,0.354-0.944,0.354c-0.944,0-1.415-0.591-1.415-1.534v-4.839h-1.771v5.311
			c0,1.652,1.062,2.833,2.715,2.833c0.943,0,1.888-0.473,2.242-1.181l0.118,1.062H178.796z M187.294,41.023v-5.311
			c0-1.652-0.944-2.833-2.714-2.833c-0.944,0-1.89,0.354-2.36,1.181l-0.119-1.062h-1.533v7.907h1.888v-3.187
			c0-0.708,0-1.534,0.235-2.124c0.236-0.591,0.709-0.944,1.417-0.944c0.944,0,1.298,0.59,1.298,1.534v4.839H187.294z
			 M193.431,40.905v-1.534c-0.473,0.118-0.827,0.118-1.18,0.118c-0.59,0-0.827-0.236-0.827-0.826v-3.776h2.007v-1.534h-2.007v-2.479
			l-1.888,0.472v2.007h-1.416v1.534h1.416v4.012c0,1.535,0.825,2.479,2.36,2.479C192.368,41.142,192.841,41.023,193.431,40.905
			 M201.219,40.905v-1.416c0,0-0.117,0-0.236,0c-0.354,0-0.471-0.118-0.471-0.473v-2.95c0-0.472,0-1.062-0.237-1.533
			c-0.472-1.181-1.652-1.653-2.949-1.653c-1.771,0-3.188,0.826-3.305,2.597h1.888c0-0.708,0.59-1.18,1.417-1.18
			c1.062,0,1.297,0.472,1.297,1.298v0.472l-2.359,0.118c-1.534,0.118-2.715,0.944-2.715,2.479c0,1.298,0.944,2.479,2.833,2.479
			c1.062,0,2.007-0.591,2.361-1.181c0.117,0.59,0.47,1.062,1.297,1.062C200.748,41.142,200.983,41.023,201.219,40.905
			 M198.742,37.837c0,1.18-0.827,1.771-2.007,1.771c-0.591,0-1.063-0.354-1.063-0.944s0.591-0.944,1.181-1.062l2.007-0.118v0.354
			H198.742z M213.493,41.023v-5.311c0-1.652-0.826-2.715-2.598-2.715c-1.062,0-1.887,0.472-2.359,1.299
			c-0.354-0.827-1.181-1.299-2.243-1.299c-1.062,0-1.77,0.472-2.241,1.18l-0.118-1.062H202.4v7.907h1.888v-4.249
			c0-0.944,0.472-2.124,1.534-2.124c0.944,0,1.181,0.59,1.181,1.534v4.839h1.888v-4.249c0-0.944,0.473-2.124,1.534-2.124
			c0.944,0,1.181,0.59,1.181,1.534v4.839H213.493z M221.754,37.129c0-0.944-0.118-1.889-0.709-2.715
			c-0.707-0.944-1.651-1.416-2.831-1.416c-1.062,0-1.89,0.354-2.479,0.944c-0.707,0.826-1.18,1.888-1.18,3.187
			c0,1.298,0.473,2.36,1.18,3.187c0.59,0.59,1.417,0.943,2.479,0.943c0.943,0,2.006-0.354,2.596-1.062
			c0.354-0.354,0.59-0.944,0.708-1.417h-1.771c-0.117,0.236-0.236,0.473-0.354,0.709c-0.236,0.235-0.59,0.354-1.18,0.354
			c-0.473,0-0.944-0.236-1.18-0.473c-0.354-0.354-0.592-0.944-0.592-1.534h5.312C221.754,37.482,221.754,37.129,221.754,37.129
			 M219.865,36.303h-3.423c0-0.473,0.119-0.826,0.354-1.18c0.237-0.354,0.707-0.59,1.298-0.59s0.944,0.235,1.181,0.471
			C219.63,35.24,219.865,35.713,219.865,36.303 M229.66,41.023v-5.311c0-1.652-0.943-2.833-2.715-2.833
			c-0.943,0-1.888,0.354-2.36,1.181l-0.117-1.062h-1.534v7.907h1.889v-3.187c0-0.708,0-1.534,0.235-2.124
			c0.237-0.591,0.708-0.944,1.417-0.944c0.943,0,1.298,0.59,1.298,1.534v4.839H229.66z M235.679,40.905v-1.534
			c-0.473,0.118-0.825,0.118-1.18,0.118c-0.59,0-0.826-0.236-0.826-0.826v-3.776h2.006v-1.534h-2.006v-2.479l-1.888,0.472v2.007
			h-1.416v1.534h1.416v4.012c0,1.535,0.826,2.479,2.359,2.479C234.616,41.142,235.206,41.023,235.679,40.905 M247.009,41.023V30.048
			h-1.889v3.658c-0.354-0.354-1.062-0.708-2.006-0.708c-0.827,0-1.417,0.236-1.889,0.59c-0.943,0.826-1.416,2.007-1.416,3.541
			s0.473,2.715,1.416,3.422c0.472,0.354,1.181,0.708,1.889,0.708c0.826,0,1.77-0.354,2.242-1.062l0.118,0.826H247.009z
			 M245.12,37.011c0,1.18-0.354,2.597-1.771,2.597c-0.59,0-0.943-0.236-1.297-0.591c-0.355-0.472-0.473-1.298-0.473-1.888
			c0-0.709,0.117-1.416,0.473-1.889c0.234-0.354,0.707-0.59,1.297-0.59C244.884,34.533,245.12,35.948,245.12,37.011 M255.27,37.129
			c0-0.944-0.117-1.889-0.708-2.715c-0.708-0.944-1.771-1.416-2.833-1.416c-1.062,0-1.888,0.354-2.478,0.944
			c-0.707,0.826-1.18,1.888-1.18,3.187c0,1.298,0.473,2.36,1.18,3.187c0.59,0.59,1.416,0.943,2.478,0.943
			c0.945,0,2.007-0.354,2.597-1.062c0.354-0.354,0.59-0.944,0.708-1.417h-1.77c-0.118,0.236-0.236,0.473-0.355,0.709
			c-0.234,0.235-0.59,0.354-1.18,0.354c-0.472,0-0.943-0.236-1.18-0.473c-0.354-0.354-0.591-0.944-0.591-1.534h5.312
			C255.27,37.482,255.27,37.129,255.27,37.129 M253.381,36.303h-3.423c0-0.473,0.119-0.826,0.355-1.18
			c0.235-0.354,0.707-0.59,1.298-0.59c0.59,0,0.944,0.235,1.18,0.471C253.146,35.24,253.381,35.713,253.381,36.303"/>
	</g>
</g>
</svg>
