<?xml version="1.0" encoding="utf-8"?>
<!-- Generator: Adobe Illustrator 15.0.0, SVG Export Plug-In . SVG Version: 6.00 Build 0)  -->
<!DOCTYPE svg PUBLIC "-//W3C//DTD SVG 1.1//EN" "http://www.w3.org/Graphics/SVG/1.1/DTD/svg11.dtd">
<svg version="1.1" id="Capa_1" xmlns="http://www.w3.org/2000/svg" xmlns:xlink="http://www.w3.org/1999/xlink" x="0px" y="0px"
	 width="256.3px" height="132.7px" viewBox="-51 0 256.3 132.7" style="enable-background:new -51 0 256.3 132.7;"
	 xml:space="preserve">
<style type="text/css">
<![CDATA[
	.st0{fill:#FFFFFF;}
]]>
</style>
<rect x="62.9" class="st0" width="28.4" height="132.7"/>
<g>
	<path d="M-29.6,38.9v-8.7c-10-0.4-15.1,3.8-15.1,12.8v1.7V61H-51v7.9h6.4v32.4h7.9V68.9h6.4V61h-6.4V49.6
		C-36.8,43-37.4,38.9-29.6,38.9 M-12.4,68.9V61c0,0-5.1-0.3-8.2,2.7V61h-7.9v40.3h7.9V76.9C-20.6,74.5-20.2,69.5-12.4,68.9
		 M-10.5,59.2h7.9V32.3h-7.9V59.2z M-10.5,101.4h7.9V61.1h-7.9V101.4z M13.5,68.9h6.4V61h-6.4V32.3H5.6V61h-6.4v7.9h6.4v32.4h7.9
		V68.9z M30,93.5l17.4-25V61H21.7v7.9h15.9L19.8,94.6v6.8h28.6v-7.9H30z M48.4,84.5h19.4v-7.9H48.4V84.5z M85.2,79.5L99.4,61h-10
		l-9.9,13.4V32.3h-7.9v69h7.9v-16l13,16.1h9.7L85.2,79.5z M129,81.2c0,7.4-5.6,13.4-12.5,13.4s-12.5-6-12.5-13.4s5.6-13.4,12.5-13.4
		S129,73.8,129,81.2 M137.1,81.2c0-11.7-9.2-21.3-20.6-21.3s-20.6,9.5-20.6,21.3c0,11.7,9.2,21.3,20.6,21.3S137.1,93,137.1,81.2
		 M139,101.4h7.9v-69H139V101.4z M181.9,81.2c0,7.4-5.6,13.4-12.5,13.4c-6.9,0-12.5-6-12.5-13.4s5.6-13.4,12.5-13.4
		C176.3,67.8,181.9,73.8,181.9,81.2 M181.4,61.1V64c-3.4-2.5-7.5-4-12-4c-11.4,0-20.6,9.5-20.6,21.3c0,11.7,9.2,21.3,20.6,21.3
		c4.5,0,8.6-1.5,12-4v2.9h7.9V61.1H181.4z M197.9,39.9h-2v-2.8h2c0.9,0,1.5,0.5,1.5,1.4S198.7,39.9,197.9,39.9 M201,44.8l-2-3.9
		c1-0.3,1.8-1.1,1.8-2.3c0-1.5-1.1-2.6-2.7-2.6h-3.4v8.8h1.3v-3.7h1.7l1.9,3.7H201z M204.1,40.4c0,3.8-3.1,6.8-6.8,6.8
		c-3.8,0-6.8-3.1-6.8-6.8c0-3.8,3.1-6.8,6.8-6.8C201.1,33.6,204.1,36.6,204.1,40.4 M205.3,40.4c0-4.4-3.6-8-8-8c-4.4,0-8,3.6-8,8
		s3.6,8,8,8C201.7,48.4,205.3,44.8,205.3,40.4"/>
</g>
</svg>
