<?xml version="1.0" encoding="utf-8"?>
<!-- Generator: Adobe Illustrator 15.0.0, SVG Export Plug-In . SVG Version: 6.00 Build 0)  -->
<!DOCTYPE svg PUBLIC "-//W3C//DTD SVG 1.1//EN" "http://www.w3.org/Graphics/SVG/1.1/DTD/svg11.dtd">
<svg version="1.1" id="Capa_1" xmlns="http://www.w3.org/2000/svg" xmlns:xlink="http://www.w3.org/1999/xlink" x="0px" y="0px"
	 width="71.9px" height="97px" viewBox="77.8 0 71.9 97" style="enable-background:new 77.8 0 71.9 97;" xml:space="preserve">
<style type="text/css">
<![CDATA[
	.st0{fill:#FFFFFF;}
]]>
</style>
<rect x="77.8" class="st0" width="71.9" height="97"/>
<g>
	<g>
		<path d="M147.2,61.1c0.8,0,1.7-0.1,2.5-0.2V43.3h-6v12.6C143.7,60,144.4,61.1,147.2,61.1 M129.4,53.2v-0.4c-8.8,0-10.7,2.8-10.7,5
			c0,2.1,1.5,3.5,3.8,3.5C126.7,61.3,129.4,57.3,129.4,53.2 M133.1,63.8h-3.5c0-1.8,0-3.6,0.2-4.9h-0.1c-1.1,3-4.1,5.4-8.1,5.4
			c-3.7,0-6.4-2-6.4-5.7c0-4.9,5.1-8.3,14.2-8.3v-1.9c0-3.5-1.3-5.5-5.3-5.5c-2.3,0-5.1,0.7-7.1,2l-0.4-3.1c2.2-1,4.9-1.8,8-1.8
			c6.4,0,8.3,3.2,8.3,7.6v9.2C133,59.1,133,61.7,133.1,63.8 M111.7,62.5c-2.4,1-5.4,1.7-8.8,1.7c-9.8,0-14.3-6.1-14.3-15.5
			c0-9.5,4.6-16.8,15.4-16.8c2.5,0,4.9,0.4,7.3,0.9l-0.4,3.3c-2.6-0.8-5-1.2-7.6-1.2c-7.7,0-10.9,6-10.9,13.2
			c0,8.1,3.6,12.8,11.4,12.8c2.5,0,5.5-0.7,7.5-1.7L111.7,62.5z M149.7,84.4V63.9c-1.1,0.2-2.3,0.3-3.5,0.3c-4.7,0-6.1-2-6.1-6.9
			v-14H135v-2.8h5.1v-7.8l3.5-1v8.8h6V12.6H77.8V33c0.8-0.7,1.8-1.1,3-1.1c2.5,0,4.4,1.8,4.4,4.2c0,2.3-2,4.2-4.4,4.2
			c-1.1,0-2.2-0.4-3-1.1v3.3H85v21.3h-7.2v20.6H149.7z"/>
	</g>
</g>
</svg>
