<?xml version="1.0" encoding="utf-8"?>
<!-- Generator: Adobe Illustrator 15.0.0, SVG Export Plug-In . SVG Version: 6.00 Build 0)  -->
<!DOCTYPE svg PUBLIC "-//W3C//DTD SVG 1.1//EN" "http://www.w3.org/Graphics/SVG/1.1/DTD/svg11.dtd">
<svg version="1.1" id="Capa_1" xmlns="http://www.w3.org/2000/svg" xmlns:xlink="http://www.w3.org/1999/xlink" x="0px" y="0px"
	 width="289.493px" height="97.001px" viewBox="0.226 0.339 289.493 97.001" enable-background="new 0.226 0.339 289.493 97.001"
	 xml:space="preserve">
<rect x="77.8" y="0.339" fill="#FFFFFF" width="112" height="97.001"/>
<g>
	<rect x="216.054" y="37.864" width="0.602" height="6.254"/>
	<g>
		<path d="M217.748,39.6h0.56v0.778h0.016c0.205-0.541,0.812-0.911,1.458-0.911c1.279,0,1.671,0.667,1.671,1.744v2.907h-0.56v-2.82
			c0-0.778-0.255-1.363-1.157-1.363c-0.881,0-1.412,0.664-1.428,1.547v2.636h-0.56V39.6z"/>
		<path d="M225.124,40.922c-0.027-0.681-0.559-0.988-1.192-0.988c-0.497,0-1.079,0.192-1.079,0.78c0,0.489,0.566,0.664,0.944,0.761
			l0.743,0.166c0.637,0.097,1.299,0.462,1.299,1.25c0,0.983-0.98,1.36-1.829,1.36c-1.059,0-1.785-0.49-1.874-1.594h0.556
			c0.046,0.746,0.604,1.129,1.344,1.129c0.521,0,1.246-0.226,1.246-0.858c0-0.523-0.493-0.701-0.997-0.824l-0.717-0.157
			c-0.724-0.192-1.271-0.438-1.271-1.208c0-0.919,0.911-1.27,1.714-1.27c0.91,0,1.634,0.472,1.669,1.454H225.124z"/>
		<path d="M227.417,39.6h0.928v0.466h-0.928v3.045c0,0.359,0.052,0.569,0.45,0.596c0.159,0,0.317-0.009,0.478-0.026v0.471
			c-0.167,0-0.327,0.02-0.494,0.02c-0.744,0-0.999-0.245-0.99-1.016v-3.089h-0.796V39.6h0.796v-1.356h0.557V39.6z"/>
	</g>
	<path d="M229.049,44.118h0.556V39.6h-0.556V44.118z M229.049,38.75h0.556v-0.884h-0.556V38.75z"/>
	<g>
		<path d="M231.452,39.6h0.926v0.466h-0.926v3.045c0,0.359,0.053,0.569,0.45,0.596c0.159,0,0.317-0.009,0.476-0.026v0.471
			c-0.168,0-0.327,0.02-0.494,0.02c-0.743,0-0.998-0.245-0.99-1.016v-3.089h-0.795V39.6h0.795v-1.356h0.559V39.6z"/>
		<path d="M236.769,44.118h-0.515v-0.815h-0.016c-0.292,0.606-0.896,0.947-1.573,0.947c-1.147,0-1.598-0.665-1.598-1.716v-2.933
			h0.556v2.941c0.029,0.814,0.336,1.242,1.221,1.242c0.953,0,1.368-0.893,1.368-1.81v-2.374h0.557V44.118z"/>
		<path d="M238.593,39.6h0.926v0.466h-0.926v3.045c0,0.359,0.053,0.569,0.449,0.596c0.158,0,0.32-0.009,0.477-0.026v0.471
			c-0.166,0-0.325,0.02-0.492,0.02c-0.742,0-1-0.245-0.989-1.016v-3.089h-0.796V39.6h0.796v-1.356h0.556V39.6z"/>
		<path d="M247.282,39.758c-0.211-0.964-1.018-1.516-1.937-1.516c-1.669,0-2.373,1.385-2.373,2.75c0,1.366,0.704,2.75,2.373,2.75
			c1.168,0,1.909-0.894,2.024-2.006h0.6c-0.165,1.534-1.148,2.515-2.624,2.515c-1.986,0-2.975-1.55-2.975-3.258
			c0-1.708,0.988-3.256,2.975-3.256c1.192,0,2.377,0.708,2.536,2.021H247.282z"/>
		<path d="M251.59,41.648h-0.021c-0.07,0.131-0.314,0.177-0.467,0.202c-0.943,0.167-2.119,0.158-2.119,1.043
			c0,0.552,0.495,0.891,1.016,0.891c0.847,0,1.599-0.533,1.591-1.418V41.648z M248.623,40.982c0.053-1.058,0.804-1.514,1.843-1.514
			c0.805,0,1.68,0.244,1.68,1.454v2.399c0,0.21,0.107,0.334,0.325,0.334c0.064,0,0.134-0.019,0.181-0.039v0.467
			c-0.126,0.026-0.216,0.035-0.367,0.035c-0.562,0-0.651-0.315-0.651-0.789h-0.017c-0.389,0.588-0.788,0.921-1.661,0.921
			c-0.839,0-1.527-0.412-1.527-1.323c0-1.271,1.245-1.31,2.446-1.455c0.46-0.051,0.716-0.111,0.716-0.611
			c0-0.745-0.539-0.927-1.19-0.927c-0.69,0-1.203,0.315-1.223,1.049H248.623z"/>
		<path d="M254.034,39.6h0.927v0.466h-0.927v3.045c0,0.359,0.051,0.569,0.449,0.596c0.16,0,0.318-0.009,0.478-0.026v0.471
			c-0.168,0-0.327,0.02-0.494,0.02c-0.742,0-0.999-0.245-0.99-1.016v-3.089h-0.795V39.6h0.795v-1.356h0.558V39.6z"/>
		<path d="M258.573,41.648h-0.017c-0.072,0.131-0.319,0.177-0.47,0.202c-0.945,0.167-2.118,0.158-2.118,1.043
			c0,0.552,0.491,0.891,1.016,0.891c0.847,0,1.597-0.533,1.589-1.418V41.648z M255.603,40.982c0.056-1.058,0.805-1.514,1.848-1.514
			c0.804,0,1.678,0.244,1.678,1.454v2.399c0,0.21,0.107,0.334,0.326,0.334c0.062,0,0.135-0.019,0.18-0.039v0.467
			c-0.125,0.026-0.214,0.035-0.362,0.035c-0.568,0-0.655-0.315-0.655-0.789h-0.019c-0.389,0.588-0.786,0.921-1.661,0.921
			c-0.837,0-1.524-0.412-1.524-1.323c0-1.271,1.241-1.31,2.444-1.455c0.461-0.051,0.716-0.111,0.716-0.611
			c0-0.745-0.537-0.927-1.192-0.927c-0.688,0-1.203,0.315-1.219,1.049H255.603z"/>
	</g>
	<rect x="260.141" y="37.864" width="0.558" height="6.254"/>
	<g>
		<path d="M262.331,37.735h0.69l0.927,1.235h-0.449L262.331,37.735z M264.575,41.648h-0.017c-0.073,0.131-0.317,0.177-0.469,0.202
			c-0.944,0.167-2.119,0.158-2.119,1.043c0,0.552,0.491,0.891,1.015,0.891c0.848,0,1.598-0.533,1.59-1.418V41.648z M261.607,40.984
			c0.055-1.06,0.807-1.516,1.847-1.516c0.805,0,1.679,0.244,1.679,1.454v2.399c0,0.21,0.105,0.334,0.328,0.334
			c0.062,0,0.132-0.019,0.177-0.037v0.465c-0.125,0.026-0.214,0.035-0.362,0.035c-0.568,0-0.655-0.314-0.655-0.788h-0.015
			c-0.391,0.587-0.79,0.919-1.662,0.919c-0.84,0-1.528-0.412-1.528-1.323c0-1.271,1.243-1.312,2.446-1.455
			c0.459-0.051,0.715-0.111,0.715-0.611c0-0.745-0.54-0.927-1.192-0.927c-0.688,0-1.2,0.315-1.22,1.05H261.607z"/>
		<path d="M270.339,43.785c1.186,0,1.601-0.989,1.601-1.926c0-0.937-0.415-1.925-1.601-1.925c-1.061,0-1.493,0.988-1.493,1.925
			C268.846,42.796,269.279,43.785,270.339,43.785 M272.495,44.118h-0.511V43.26h-0.019c-0.241,0.585-0.963,0.99-1.627,0.99
			c-1.387,0-2.051-1.111-2.051-2.392c0-1.279,0.664-2.39,2.051-2.39c0.68,0,1.344,0.342,1.581,0.989h0.02v-2.592h0.556V44.118z"/>
		<path d="M276.722,41.543c-0.025-0.832-0.544-1.61-1.448-1.61c-0.909,0-1.412,0.787-1.5,1.61H276.722z M273.774,42.008
			c0.009,0.804,0.433,1.776,1.5,1.776c0.812,0,1.257-0.473,1.433-1.155h0.556c-0.237,1.023-0.838,1.62-1.988,1.62
			c-1.447,0-2.058-1.105-2.058-2.392c0-1.191,0.61-2.391,2.058-2.391c1.467,0,2.05,1.269,2.006,2.541H273.774z"/>
	</g>
	<rect x="280.28" y="37.864" width="0.557" height="6.254"/>
	<g>
		<path d="M285.075,41.543c-0.028-0.832-0.547-1.61-1.449-1.61c-0.91,0-1.415,0.787-1.5,1.61H285.075z M282.126,42.008
			c0.007,0.804,0.432,1.776,1.5,1.776c0.812,0,1.256-0.473,1.431-1.155h0.558c-0.239,1.023-0.841,1.62-1.988,1.62
			c-1.448,0-2.06-1.105-2.06-2.392c0-1.191,0.611-2.391,2.06-2.391c1.467,0,2.049,1.269,2.005,2.541H282.126z"/>
		<path d="M289.002,40.922c-0.027-0.681-0.556-0.988-1.189-0.988c-0.498,0-1.079,0.192-1.079,0.78c0,0.489,0.565,0.664,0.944,0.761
			l0.742,0.166c0.634,0.097,1.299,0.462,1.299,1.25c0,0.983-0.982,1.36-1.828,1.36c-1.061,0-1.784-0.49-1.874-1.594h0.556
			c0.046,0.746,0.602,1.129,1.344,1.129c0.521,0,1.247-0.226,1.247-0.858c0-0.523-0.497-0.701-1.002-0.824l-0.713-0.157
			c-0.726-0.192-1.272-0.438-1.272-1.208c0-0.919,0.909-1.27,1.715-1.27c0.911,0,1.633,0.472,1.667,1.454H289.002z"/>
	</g>
	<polygon points="215.986,46.427 220.702,46.427 220.702,47.583 217.371,47.583 217.371,48.922 220.428,48.922 220.428,49.992 
		217.371,49.992 217.371,51.521 220.771,51.521 220.771,52.677 215.986,52.677 	"/>
	<g>
		<path d="M221.467,48.151h1.183v0.616h0.017c0.327-0.466,0.806-0.739,1.396-0.739c0.573,0,1.088,0.212,1.335,0.753
			c0.265-0.393,0.743-0.753,1.377-0.753c0.973,0,1.669,0.448,1.669,1.62v3.032h-1.255v-2.568c0-0.603-0.051-1.103-0.766-1.103
			c-0.709,0-0.841,0.578-0.841,1.146v2.525h-1.255v-2.541c0-0.525,0.037-1.13-0.758-1.13c-0.248,0-0.85,0.159-0.85,1.042v2.629
			h-1.253V48.151z"/>
		<path d="M232.681,50.428c0-0.717-0.294-1.461-1.098-1.461c-0.819,0-1.084,0.726-1.084,1.461c0,0.734,0.282,1.436,1.094,1.436
			C232.414,51.864,232.681,51.163,232.681,50.428 M229.288,48.153h1.191v0.577h0.02c0.298-0.483,0.795-0.703,1.359-0.703
			c1.433,0,2.078,1.146,2.078,2.433c0,1.212-0.672,2.34-2.008,2.34c-0.548,0-1.067-0.234-1.368-0.683h-0.018v2.156h-1.255V48.153z"
			/>
		<path d="M234.541,48.151h1.192v0.84h0.018c0.23-0.569,0.848-0.963,1.457-0.963c0.091,0,0.194,0.02,0.273,0.044v1.156
			c-0.115-0.025-0.301-0.043-0.45-0.043c-0.919,0-1.237,0.656-1.237,1.452v2.043h-1.253V48.151z"/>
		<path d="M240.907,49.929c-0.115-0.631-0.391-0.962-0.996-0.962c-0.797,0-1.027,0.612-1.045,0.962H240.907z M238.866,50.717
			c0.037,0.788,0.427,1.146,1.121,1.146c0.505,0,0.914-0.306,0.989-0.587h1.106c-0.355,1.069-1.106,1.525-2.139,1.525
			c-1.438,0-2.331-0.98-2.331-2.383c0-1.357,0.943-2.392,2.331-2.392c1.554,0,2.306,1.297,2.217,2.689H238.866z"/>
		<path d="M243.73,51.208c0.011,0.544,0.471,0.76,0.965,0.76c0.363,0,0.82-0.139,0.82-0.578c0-0.373-0.519-0.505-1.42-0.696
			c-0.726-0.161-1.45-0.413-1.45-1.211c0-1.156,1.007-1.454,1.986-1.454c0.999,0,1.916,0.333,2.013,1.445h-1.19
			c-0.034-0.481-0.404-0.612-0.859-0.612c-0.28,0-0.694,0.053-0.694,0.419c0,0.448,0.706,0.509,1.42,0.676
			c0.735,0.165,1.449,0.429,1.449,1.271c0,1.189-1.04,1.574-2.083,1.574c-1.062,0-2.095-0.396-2.146-1.593H243.73z"/>
		<path d="M250.434,49.929c-0.116-0.631-0.39-0.962-0.997-0.962c-0.797,0-1.027,0.612-1.044,0.962H250.434z M248.393,50.717
			c0.037,0.788,0.423,1.146,1.123,1.146c0.502,0,0.909-0.306,0.988-0.587h1.104c-0.357,1.069-1.104,1.525-2.14,1.525
			c-1.438,0-2.33-0.98-2.33-2.383c0-1.357,0.944-2.392,2.33-2.392c1.556,0,2.307,1.297,2.219,2.689H248.393z"/>
		<path d="M253.258,51.208c0.009,0.544,0.468,0.76,0.963,0.76c0.361,0,0.818-0.139,0.818-0.578c0-0.373-0.521-0.505-1.42-0.696
			c-0.725-0.161-1.448-0.413-1.448-1.211c0-1.156,1.006-1.454,1.987-1.454c0.997,0,1.915,0.333,2.012,1.445h-1.192
			c-0.033-0.481-0.404-0.612-0.856-0.612c-0.282,0-0.696,0.053-0.696,0.419c0,0.448,0.707,0.509,1.421,0.676
			c0.733,0.165,1.448,0.429,1.448,1.271c0,1.189-1.04,1.574-2.084,1.574c-1.059,0-2.093-0.396-2.146-1.593H253.258z"/>
		<path d="M220.19,57.087c-0.089-0.622-0.688-1.097-1.38-1.097c-1.244,0-1.711,1.052-1.711,2.147c0,1.042,0.467,2.091,1.711,2.091
			c0.851,0,1.326-0.576,1.432-1.397h1.344c-0.144,1.559-1.227,2.556-2.775,2.556c-1.95,0-3.1-1.445-3.1-3.249
			c0-1.856,1.149-3.3,3.1-3.3c1.389,0,2.554,0.804,2.722,2.249H220.19z"/>
		<path d="M226.573,61.238h-1.193v-0.63h-0.026c-0.315,0.507-0.866,0.755-1.396,0.755c-1.334,0-1.668-0.747-1.668-1.869v-2.782
			h1.253v2.557c0,0.743,0.223,1.111,0.805,1.111c0.682,0,0.973-0.375,0.973-1.296v-2.372h1.254V61.238z"/>
	</g>
	<rect x="227.451" y="54.987" width="1.257" height="6.251"/>
	<g>
		<path d="M231.178,56.711h0.92v0.83h-0.92v2.244c0,0.42,0.105,0.525,0.53,0.525c0.133,0,0.259-0.009,0.39-0.035v0.969
			c-0.214,0.037-0.487,0.047-0.733,0.047c-0.769,0-1.439-0.177-1.439-1.079v-2.671h-0.762v-0.83h0.762v-1.357h1.253V56.711z"/>
		<path d="M236.874,61.238h-1.193v-0.63h-0.023c-0.319,0.507-0.869,0.755-1.396,0.755c-1.334,0-1.67-0.747-1.67-1.869v-2.782h1.253
			v2.557c0,0.743,0.223,1.111,0.804,1.111c0.683,0,0.973-0.375,0.973-1.296v-2.372h1.254V61.238z"/>
		<path d="M237.718,56.711h1.194v0.84h0.018c0.229-0.568,0.847-0.964,1.458-0.964c0.086,0,0.192,0.018,0.272,0.046v1.155
			c-0.116-0.026-0.302-0.045-0.45-0.045c-0.92,0-1.237,0.659-1.237,1.453v2.041h-1.255V56.711z"/>
		<path d="M243.892,59.022c-0.211,0.186-0.654,0.195-1.042,0.263c-0.39,0.078-0.742,0.211-0.742,0.665
			c0,0.465,0.359,0.581,0.768,0.581c0.981,0,1.017-0.774,1.017-1.043V59.022z M240.996,58.105c0.069-1.165,1.118-1.518,2.145-1.518
			c0.911,0,2.005,0.201,2.005,1.288v2.354c0,0.415,0.045,0.827,0.16,1.009h-1.271c-0.047-0.138-0.081-0.289-0.089-0.438
			c-0.399,0.41-0.98,0.562-1.537,0.562c-0.867,0-1.556-0.432-1.556-1.358c0-1.025,0.777-1.271,1.556-1.376
			c0.768-0.111,1.483-0.087,1.483-0.597c0-0.533-0.37-0.611-0.812-0.611c-0.478,0-0.785,0.192-0.83,0.685H240.996z"/>
	</g>
	<rect x="246.045" y="54.987" width="1.255" height="6.251"/>
	<g>
		<path d="M249.154,59.767c0.006,0.541,0.466,0.764,0.959,0.764c0.364,0,0.825-0.141,0.825-0.578c0-0.378-0.523-0.512-1.426-0.703
			c-0.722-0.156-1.446-0.411-1.446-1.205c0-1.158,1.008-1.457,1.985-1.457c1,0,1.919,0.333,2.015,1.445h-1.191
			c-0.035-0.48-0.406-0.612-0.857-0.612c-0.281,0-0.696,0.054-0.696,0.421c0,0.445,0.707,0.507,1.423,0.674
			c0.73,0.165,1.447,0.43,1.447,1.271c0,1.188-1.042,1.575-2.084,1.575c-1.062,0-2.095-0.396-2.146-1.594H249.154z"/>
		<path d="M173.733,35.487c-1.313,0-2.589,0.172-3.799,0.495v6.727c0.938-1.026,2.228-1.627,3.799-1.627
			c2.799,0,4.809,2.335,4.956,5.156h-8.755v4.622h17.092C187.421,42.299,182.857,35.487,173.733,35.487"/>
		<path d="M174.028,56.599c-1.753,0-3.131-0.562-4.092-1.556v6.72c1.243,0.282,2.58,0.432,3.993,0.432
			c5.691,0,11.138-2.531,12.657-8.367h-7.8C178.002,55.673,176.04,56.599,174.028,56.599"/>
		<path d="M204.471,45.107c-0.36-2.567-2.371-3.92-5.177-3.92c-4.312,0-5.964,3.778-5.964,7.557c0,3.775,1.651,7.554,5.964,7.554
			c3.128,0,4.927-1.784,5.177-4.705h6.681c-0.354,6.557-5.207,10.406-11.713,10.406c-7.763,0-12.795-5.881-12.795-13.255
			c0-7.38,5.032-13.259,12.795-13.259c5.534,0,11.537,3.492,11.713,9.623H204.471z"/>
	</g>
	<path d="M143.144,43.076h2.264v18.391h-2.264V43.076z M143.144,36.018h2.264v3.6h-2.264V36.018z"/>
	<g>
		<path d="M162.837,48.849c-0.609-2.744-2.301-4.418-5.247-4.418c-4.348,0-6.505,3.918-6.505,7.837c0,3.921,2.157,7.841,6.505,7.841
			c2.805,0,5.104-2.172,5.39-5.238h2.266c-0.61,4.421-3.522,7.13-7.655,7.13c-5.678,0-8.77-4.457-8.77-9.732
			c0-5.272,3.092-9.727,8.77-9.727c3.952,0,7.009,2.101,7.512,6.307H162.837z"/>
		<path d="M30.078,59.095c0.006,0.381-0.067,0.715-0.222,0.994c-0.156,0.282-0.431,0.431-0.83,0.443
			c-0.251-0.002-0.456-0.075-0.614-0.215c-0.159-0.14-0.277-0.314-0.35-0.532c-0.076-0.218-0.112-0.442-0.112-0.682
			c-0.005-0.38,0.075-0.709,0.239-0.984s0.443-0.421,0.838-0.436c0.392,0.015,0.664,0.16,0.822,0.436
			C30.008,58.394,30.084,58.72,30.078,59.095 M30.095,61.334h1.161v-6.146h-1.222v2.238h-0.017
			c-0.143-0.221-0.331-0.386-0.564-0.495c-0.234-0.11-0.486-0.167-0.753-0.167c-0.436,0.006-0.799,0.117-1.092,0.332
			c-0.292,0.215-0.511,0.496-0.658,0.843c-0.146,0.35-0.221,0.725-0.221,1.132c0,0.417,0.075,0.804,0.221,1.164
			c0.146,0.36,0.366,0.65,0.663,0.875c0.297,0.223,0.667,0.337,1.115,0.345c0.285,0.001,0.546-0.053,0.782-0.165
			c0.234-0.11,0.424-0.285,0.569-0.521h0.017V61.334z"/>
		<path d="M33.181,58.631c0.004-0.121,0.037-0.253,0.1-0.397c0.061-0.148,0.167-0.274,0.311-0.38
			c0.147-0.108,0.351-0.166,0.606-0.17c0.292,0,0.515,0.079,0.668,0.241c0.149,0.159,0.252,0.396,0.304,0.706H33.181z
			 M36.392,59.407c0.027-0.467-0.031-0.896-0.185-1.294c-0.152-0.398-0.393-0.722-0.724-0.969c-0.33-0.246-0.747-0.373-1.251-0.38
			c-0.454,0.004-0.851,0.108-1.19,0.312s-0.604,0.482-0.794,0.837c-0.188,0.35-0.284,0.751-0.286,1.2
			c0.006,0.703,0.209,1.263,0.608,1.688c0.401,0.425,0.954,0.642,1.663,0.652c0.506,0.003,0.935-0.114,1.289-0.354
			c0.355-0.241,0.62-0.619,0.793-1.144h-1.076c-0.042,0.146-0.153,0.275-0.328,0.394s-0.387,0.177-0.635,0.186
			c-0.341,0.003-0.604-0.09-0.789-0.275c-0.187-0.182-0.29-0.468-0.306-0.853H36.392z"/>
		<path d="M45.032,57.252c-0.058-0.477-0.212-0.873-0.458-1.201c-0.248-0.33-0.562-0.578-0.941-0.751
			c-0.378-0.17-0.795-0.257-1.251-0.258c-0.637,0.005-1.179,0.149-1.629,0.435c-0.448,0.285-0.794,0.669-1.031,1.158
			c-0.237,0.485-0.359,1.038-0.361,1.651c0.001,0.597,0.124,1.136,0.361,1.614c0.237,0.48,0.583,0.861,1.031,1.145
			c0.45,0.283,0.992,0.428,1.629,0.434c0.761-0.008,1.383-0.234,1.864-0.682c0.479-0.446,0.761-1.057,0.839-1.829h-1.309
			c-0.053,0.411-0.193,0.74-0.425,0.991c-0.235,0.249-0.558,0.378-0.97,0.384c-0.405-0.006-0.729-0.108-0.972-0.306
			c-0.245-0.197-0.424-0.45-0.535-0.762c-0.11-0.312-0.165-0.641-0.164-0.989c-0.001-0.364,0.053-0.706,0.164-1.025
			c0.111-0.318,0.291-0.577,0.535-0.776c0.243-0.197,0.567-0.303,0.972-0.308c0.345,0.005,0.642,0.11,0.891,0.308
			c0.25,0.2,0.402,0.456,0.451,0.768H45.032z"/>
		<path d="M50.052,56.884h-1.219v2.333c0.001,0.448-0.076,0.773-0.225,0.975c-0.153,0.203-0.395,0.303-0.725,0.298
			c-0.28,0.002-0.483-0.088-0.604-0.271c-0.122-0.184-0.182-0.456-0.178-0.823v-2.512H45.88v2.739c-0.013,0.556,0.095,1,0.327,1.328
			c0.23,0.328,0.664,0.495,1.3,0.503c0.263,0,0.515-0.061,0.755-0.183c0.245-0.125,0.445-0.308,0.604-0.559h0.025v0.621h1.161
			V56.884z"/>
	</g>
	<rect x="51.009" y="55.19" width="1.222" height="6.145"/>
	<g>
		<path d="M54.751,55.548h-1.222v1.336h-0.741v0.816h0.741v2.628c0.013,0.43,0.152,0.717,0.42,0.861
			c0.27,0.141,0.597,0.206,0.982,0.193c0.124,0,0.246-0.002,0.371-0.006c0.125-0.006,0.24-0.018,0.344-0.037v-0.952
			c-0.064,0.014-0.128,0.021-0.188,0.026c-0.061,0.006-0.125,0.007-0.189,0.007c-0.203,0.005-0.341-0.031-0.415-0.104
			c-0.073-0.073-0.107-0.212-0.104-0.412v-2.205h0.896v-0.816h-0.896V55.548z"/>
		<path d="M60.406,56.884h-1.222v2.333c0.003,0.448-0.073,0.773-0.225,0.975c-0.151,0.203-0.392,0.303-0.721,0.298
			c-0.28,0.002-0.483-0.088-0.604-0.271c-0.123-0.184-0.183-0.456-0.18-0.823v-2.512h-1.219v2.739c-0.017,0.556,0.094,1,0.323,1.328
			c0.232,0.328,0.665,0.495,1.301,0.503c0.265,0,0.516-0.061,0.757-0.183c0.242-0.125,0.445-0.308,0.604-0.559h0.024v0.621h1.161
			V56.884z"/>
		<path d="M61.329,61.333h1.222V59.33c-0.006-0.404,0.083-0.741,0.265-1.01c0.186-0.27,0.497-0.41,0.938-0.42
			c0.075,0,0.153,0.004,0.231,0.013c0.081,0.006,0.151,0.016,0.209,0.028v-1.133c-0.041-0.013-0.083-0.023-0.131-0.033
			c-0.047-0.009-0.093-0.011-0.135-0.011c-0.307,0.002-0.591,0.094-0.85,0.262c-0.262,0.173-0.452,0.399-0.572,0.684H62.49v-0.826
			h-1.161V61.333z"/>
		<path d="M65.85,58.25c0.022-0.236,0.106-0.412,0.246-0.515c0.143-0.105,0.33-0.159,0.562-0.155
			c0.221-0.009,0.408,0.027,0.558,0.104c0.152,0.077,0.229,0.241,0.236,0.496c-0.014,0.238-0.163,0.383-0.443,0.441
			c-0.28,0.054-0.615,0.106-1.005,0.146c-0.256,0.029-0.498,0.089-0.728,0.174c-0.229,0.084-0.416,0.216-0.561,0.403
			c-0.146,0.186-0.219,0.444-0.224,0.774c0.01,0.456,0.156,0.792,0.441,1.01c0.282,0.218,0.642,0.326,1.071,0.325
			c0.278,0.001,0.545-0.041,0.808-0.124c0.265-0.086,0.493-0.229,0.691-0.426c0.006,0.072,0.016,0.146,0.031,0.216
			c0.015,0.073,0.033,0.145,0.057,0.214h1.238c-0.057-0.097-0.095-0.234-0.12-0.412c-0.023-0.181-0.035-0.371-0.035-0.577v-2.317
			c-0.007-0.352-0.11-0.618-0.31-0.802c-0.2-0.183-0.446-0.308-0.742-0.373c-0.297-0.064-0.599-0.095-0.902-0.089
			c-0.338-0.004-0.664,0.043-0.972,0.13c-0.305,0.092-0.564,0.246-0.768,0.463c-0.204,0.218-0.321,0.517-0.35,0.894H65.85z
			 M67.452,59.612c0.005,0.097-0.011,0.225-0.044,0.386c-0.037,0.158-0.125,0.304-0.267,0.431c-0.138,0.132-0.367,0.2-0.678,0.208
			c-0.207,0.006-0.381-0.03-0.524-0.113c-0.146-0.078-0.222-0.23-0.229-0.455c0.006-0.216,0.081-0.372,0.219-0.465
			c0.144-0.095,0.31-0.153,0.505-0.188c0.197-0.029,0.385-0.062,0.574-0.088c0.186-0.031,0.334-0.086,0.443-0.174V59.612z"/>
		<path d="M28.397,47.715h0.966c0.661,0.006,1.123,0.191,1.39,0.551c0.266,0.36,0.394,0.854,0.382,1.481
			c-0.003,0.452-0.079,0.812-0.222,1.084c-0.145,0.269-0.332,0.464-0.564,0.583c-0.231,0.121-0.481,0.178-0.746,0.176h-1.206V47.715
			z M27.048,52.724h2.65c0.624-0.004,1.145-0.14,1.558-0.411c0.413-0.265,0.72-0.632,0.925-1.097
			c0.204-0.466,0.305-0.998,0.305-1.597c-0.004-0.681-0.128-1.246-0.368-1.694c-0.242-0.452-0.571-0.79-0.99-1.012
			c-0.418-0.221-0.895-0.333-1.431-0.333h-2.65V52.724z"/>
		<path d="M34.304,50.023c0.003-0.12,0.038-0.253,0.099-0.397c0.062-0.147,0.168-0.274,0.314-0.381
			c0.146-0.108,0.347-0.164,0.604-0.169c0.292,0,0.516,0.08,0.666,0.243c0.154,0.157,0.254,0.394,0.307,0.704H34.304z
			 M37.514,50.799c0.028-0.465-0.031-0.896-0.183-1.295c-0.153-0.397-0.394-0.719-0.725-0.966c-0.329-0.248-0.748-0.375-1.251-0.382
			c-0.456,0.004-0.85,0.109-1.19,0.314c-0.338,0.202-0.602,0.48-0.794,0.834c-0.188,0.353-0.284,0.751-0.287,1.2
			c0.006,0.701,0.209,1.264,0.608,1.688c0.401,0.424,0.954,0.643,1.663,0.653c0.505,0.005,0.935-0.115,1.291-0.355
			c0.353-0.238,0.618-0.619,0.792-1.145h-1.076c-0.042,0.145-0.153,0.278-0.328,0.394c-0.175,0.117-0.385,0.181-0.637,0.188
			c-0.339,0.001-0.603-0.091-0.788-0.275c-0.186-0.184-0.288-0.467-0.306-0.853H37.514z"/>
		<path d="M40.481,51.924c-0.392-0.013-0.667-0.156-0.831-0.434c-0.163-0.275-0.243-0.603-0.237-0.976
			c-0.002-0.248,0.03-0.479,0.096-0.695c0.067-0.219,0.177-0.394,0.332-0.53c0.156-0.136,0.366-0.209,0.633-0.216
			c0.259,0.007,0.466,0.081,0.624,0.218c0.157,0.141,0.27,0.318,0.34,0.537c0.071,0.217,0.104,0.444,0.103,0.687
			c0.007,0.373-0.069,0.7-0.228,0.976C41.153,51.768,40.874,51.912,40.481,51.924 M38.234,54.292h1.221v-2.117h0.019
			c0.151,0.221,0.343,0.388,0.576,0.501c0.236,0.112,0.488,0.167,0.759,0.169c0.433-0.006,0.794-0.113,1.084-0.331
			c0.288-0.213,0.505-0.495,0.652-0.842c0.144-0.348,0.214-0.723,0.214-1.123c0.002-0.428-0.07-0.824-0.211-1.184
			c-0.146-0.36-0.368-0.65-0.666-0.87c-0.299-0.219-0.681-0.333-1.143-0.339c-0.277-0.001-0.533,0.055-0.759,0.166
			c-0.229,0.113-0.418,0.287-0.568,0.522h-0.016v-0.568h-1.163V54.292z"/>
		<path d="M44.662,49.644c0.023-0.238,0.105-0.411,0.247-0.517c0.14-0.104,0.329-0.157,0.561-0.155
			c0.222-0.006,0.408,0.026,0.559,0.104c0.151,0.078,0.229,0.242,0.236,0.498c-0.015,0.236-0.163,0.383-0.443,0.438
			c-0.283,0.057-0.617,0.107-1.006,0.15c-0.254,0.029-0.5,0.086-0.727,0.17c-0.229,0.085-0.416,0.22-0.562,0.403
			c-0.145,0.187-0.218,0.444-0.222,0.775c0.011,0.456,0.155,0.794,0.439,1.01c0.284,0.22,0.642,0.328,1.072,0.325
			c0.278,0.003,0.546-0.04,0.809-0.123c0.264-0.086,0.492-0.229,0.691-0.427c0.004,0.072,0.014,0.146,0.029,0.217
			c0.017,0.072,0.033,0.145,0.057,0.214h1.239c-0.056-0.096-0.096-0.234-0.121-0.414c-0.023-0.177-0.036-0.369-0.034-0.576V49.42
			c-0.007-0.353-0.11-0.619-0.31-0.802c-0.198-0.183-0.447-0.306-0.742-0.371c-0.298-0.064-0.599-0.096-0.903-0.092
			c-0.338-0.002-0.662,0.042-0.97,0.131c-0.308,0.092-0.564,0.245-0.771,0.464c-0.205,0.218-0.32,0.513-0.35,0.893H44.662z
			 M46.265,51.004c0.004,0.098-0.01,0.226-0.044,0.385c-0.036,0.16-0.125,0.305-0.267,0.436c-0.141,0.129-0.367,0.197-0.68,0.205
			c-0.204,0.005-0.379-0.036-0.523-0.113c-0.145-0.082-0.222-0.23-0.228-0.454c0.006-0.22,0.08-0.373,0.22-0.467
			c0.139-0.093,0.307-0.154,0.503-0.188c0.195-0.03,0.385-0.058,0.575-0.088c0.186-0.028,0.333-0.085,0.443-0.173V51.004z"/>
		<path d="M48.428,52.724h1.222v-2.003c-0.006-0.403,0.083-0.741,0.267-1.01c0.181-0.269,0.495-0.409,0.937-0.42
			c0.077,0,0.153,0.002,0.233,0.013c0.08,0.008,0.15,0.017,0.206,0.028V48.2c-0.039-0.012-0.082-0.026-0.129-0.031
			c-0.047-0.01-0.093-0.012-0.137-0.012c-0.304,0.002-0.587,0.092-0.848,0.262c-0.261,0.172-0.45,0.397-0.572,0.683h-0.017v-0.826
			h-1.161V52.724z"/>
		<path d="M53.328,46.943h-1.222v1.333h-0.74v0.818h0.74v2.625c0.012,0.433,0.151,0.718,0.419,0.86
			c0.271,0.145,0.597,0.21,0.982,0.197c0.124,0,0.245-0.004,0.369-0.008c0.125-0.007,0.241-0.018,0.346-0.034V51.78
			c-0.064,0.015-0.127,0.021-0.189,0.029c-0.062,0.003-0.127,0.006-0.191,0.006c-0.201,0.005-0.339-0.032-0.411-0.105
			c-0.076-0.072-0.11-0.209-0.104-0.41v-2.205h0.895v-0.818h-0.895V46.943z"/>
		<path d="M55.977,49.644c0.026-0.238,0.105-0.411,0.249-0.517c0.14-0.104,0.329-0.157,0.56-0.155
			c0.223-0.006,0.409,0.026,0.559,0.104c0.151,0.078,0.23,0.242,0.237,0.498c-0.016,0.236-0.164,0.383-0.446,0.438
			c-0.28,0.057-0.615,0.107-1.002,0.15c-0.259,0.029-0.502,0.086-0.729,0.17c-0.23,0.085-0.416,0.22-0.562,0.403
			c-0.143,0.187-0.218,0.444-0.224,0.775c0.014,0.456,0.157,0.794,0.441,1.01c0.285,0.22,0.642,0.328,1.075,0.325
			c0.274,0.003,0.543-0.04,0.806-0.123c0.263-0.086,0.495-0.229,0.69-0.427c0.006,0.072,0.016,0.146,0.032,0.217
			c0.015,0.072,0.032,0.145,0.056,0.214h1.237c-0.055-0.096-0.094-0.234-0.119-0.414c-0.024-0.177-0.037-0.369-0.033-0.576V49.42
			c-0.009-0.353-0.113-0.619-0.311-0.802c-0.201-0.183-0.446-0.306-0.743-0.371c-0.299-0.064-0.597-0.096-0.902-0.092
			c-0.338-0.002-0.663,0.042-0.972,0.131c-0.304,0.092-0.563,0.245-0.768,0.464c-0.204,0.218-0.322,0.513-0.35,0.893H55.977z
			 M57.582,51.004c0.004,0.098-0.009,0.226-0.044,0.385c-0.035,0.16-0.125,0.305-0.267,0.436c-0.14,0.129-0.366,0.197-0.68,0.205
			c-0.204,0.005-0.381-0.036-0.524-0.113c-0.144-0.082-0.221-0.23-0.227-0.454c0.006-0.22,0.079-0.373,0.221-0.467
			c0.137-0.093,0.306-0.154,0.503-0.188c0.194-0.03,0.385-0.058,0.572-0.088c0.188-0.028,0.335-0.085,0.446-0.173V51.004z"/>
		<path d="M59.779,52.724H61v-2.581c0.006-0.286,0.059-0.503,0.162-0.651c0.101-0.151,0.215-0.247,0.344-0.301
			c0.128-0.052,0.234-0.076,0.32-0.071c0.253,0.003,0.433,0.062,0.538,0.172c0.103,0.11,0.166,0.252,0.186,0.421
			c0.016,0.17,0.021,0.34,0.017,0.519v2.493h1.222v-2.478c-0.007-0.291,0.043-0.55,0.15-0.775c0.11-0.222,0.334-0.34,0.669-0.352
			c0.335,0.008,0.547,0.115,0.636,0.318c0.086,0.206,0.124,0.462,0.111,0.766v2.521h1.222v-2.977
			c-0.007-0.569-0.16-0.979-0.458-1.227c-0.295-0.247-0.686-0.371-1.167-0.363c-0.311,0.006-0.581,0.08-0.807,0.225
			c-0.227,0.143-0.407,0.314-0.537,0.515c-0.125-0.266-0.302-0.454-0.53-0.569c-0.229-0.117-0.485-0.174-0.77-0.17
			c-0.288,0.001-0.547,0.063-0.777,0.189c-0.23,0.125-0.425,0.303-0.584,0.532h-0.017v-0.602h-1.153V52.724z"/>
		<path d="M68.557,50.023c0.003-0.12,0.035-0.253,0.098-0.397c0.061-0.147,0.167-0.274,0.313-0.381
			c0.146-0.108,0.348-0.164,0.604-0.169c0.292,0,0.515,0.08,0.667,0.243c0.153,0.157,0.253,0.394,0.307,0.704H68.557z
			 M71.766,50.799c0.027-0.465-0.031-0.896-0.185-1.295c-0.154-0.397-0.393-0.719-0.724-0.966c-0.33-0.248-0.747-0.375-1.252-0.382
			c-0.454,0.004-0.851,0.109-1.188,0.314c-0.34,0.202-0.604,0.48-0.795,0.834c-0.189,0.353-0.284,0.751-0.287,1.2
			c0.006,0.701,0.209,1.264,0.607,1.688c0.401,0.424,0.956,0.643,1.663,0.653c0.509,0.005,0.937-0.115,1.292-0.355
			c0.354-0.238,0.617-0.619,0.792-1.145h-1.077c-0.041,0.145-0.15,0.278-0.326,0.394c-0.175,0.117-0.387,0.181-0.638,0.188
			c-0.34,0.001-0.604-0.091-0.79-0.275c-0.183-0.184-0.287-0.467-0.302-0.853H71.766z"/>
		<path d="M72.485,52.724h1.222v-2.331c-0.003-0.447,0.073-0.773,0.225-0.976c0.153-0.203,0.393-0.303,0.722-0.298
			c0.281,0,0.485,0.089,0.607,0.272c0.122,0.181,0.18,0.454,0.177,0.82v2.512h1.222v-2.738c0.014-0.556-0.095-0.999-0.326-1.325
			c-0.231-0.329-0.664-0.498-1.299-0.504c-0.264,0-0.517,0.06-0.757,0.182c-0.244,0.123-0.445,0.309-0.605,0.558h-0.026v-0.62
			h-1.161V52.724z"/>
		<path d="M79.131,46.943h-1.222v1.333h-0.74v0.818h0.74v2.625c0.013,0.433,0.152,0.718,0.421,0.86
			c0.27,0.145,0.597,0.21,0.982,0.197c0.124,0,0.246-0.004,0.367-0.008c0.128-0.007,0.241-0.018,0.348-0.034V51.78
			c-0.064,0.015-0.128,0.021-0.19,0.029c-0.062,0.003-0.125,0.006-0.189,0.006c-0.203,0.005-0.34-0.032-0.413-0.105
			c-0.073-0.072-0.108-0.209-0.104-0.41v-2.205h0.896v-0.818h-0.896V46.943z"/>
		<path d="M32.323,40.995h-2.607v0.498h2.093c0.008,0.663-0.173,1.201-0.544,1.615c-0.37,0.415-0.897,0.627-1.582,0.64
			c-0.542-0.008-0.983-0.142-1.324-0.402c-0.343-0.259-0.593-0.594-0.753-1.002c-0.161-0.41-0.242-0.841-0.24-1.298
			c-0.002-0.456,0.079-0.888,0.24-1.296c0.161-0.412,0.411-0.745,0.753-1.004c0.341-0.261,0.782-0.395,1.324-0.404
			c0.391,0.008,0.73,0.087,1.016,0.244c0.286,0.155,0.511,0.35,0.676,0.585c0.164,0.236,0.26,0.473,0.287,0.713h0.583
			c-0.124-0.671-0.417-1.178-0.881-1.523c-0.463-0.343-1.026-0.514-1.682-0.516c-0.646,0.008-1.184,0.161-1.614,0.458
			c-0.43,0.295-0.752,0.685-0.964,1.169c-0.216,0.48-0.322,1.007-0.322,1.574s0.106,1.094,0.322,1.577
			c0.212,0.481,0.534,0.871,0.964,1.167c0.43,0.299,0.968,0.45,1.614,0.457c0.451,0.004,0.864-0.092,1.24-0.295
			c0.376-0.198,0.671-0.515,0.886-0.951h0.017l0.076,1.117h0.421V40.995z"/>
		<path d="M33.674,41.588c0.029-0.274,0.102-0.53,0.221-0.771c0.117-0.237,0.281-0.434,0.489-0.583
			c0.208-0.148,0.458-0.224,0.753-0.231c0.294,0.007,0.544,0.083,0.752,0.23c0.206,0.149,0.367,0.343,0.478,0.582
			c0.113,0.24,0.174,0.499,0.184,0.774H33.674z M37.091,42.043c0.015-0.423-0.039-0.824-0.168-1.2
			c-0.131-0.378-0.34-0.688-0.634-0.924c-0.292-0.238-0.676-0.362-1.151-0.369c-0.468,0.007-0.85,0.122-1.146,0.348
			c-0.297,0.226-0.513,0.518-0.652,0.871c-0.139,0.356-0.206,0.733-0.205,1.128c-0.001,0.429,0.066,0.819,0.205,1.172
			c0.139,0.355,0.355,0.637,0.652,0.852c0.296,0.212,0.678,0.321,1.146,0.327c0.556-0.004,0.989-0.143,1.302-0.42
			c0.312-0.274,0.522-0.664,0.634-1.171h-0.541c-0.085,0.341-0.239,0.614-0.464,0.819c-0.226,0.206-0.538,0.311-0.931,0.318
			c-0.344-0.007-0.625-0.101-0.839-0.277c-0.215-0.177-0.373-0.402-0.473-0.668c-0.098-0.265-0.15-0.535-0.151-0.805H37.091z"/>
		<path d="M37.81,44.118h0.541v-2.591c0.013-0.443,0.139-0.808,0.381-1.088c0.242-0.28,0.581-0.427,1.015-0.436
			c0.431,0.007,0.728,0.135,0.893,0.382c0.164,0.25,0.242,0.57,0.234,0.961v2.771h0.541v-2.856c0.011-0.538-0.104-0.954-0.342-1.256
			c-0.24-0.3-0.668-0.453-1.283-0.458c-0.321,0.003-0.611,0.087-0.87,0.247c-0.262,0.161-0.445,0.378-0.55,0.647h-0.018v-0.764
			H37.81V44.118z"/>
		<path d="M42.758,41.588c0.028-0.274,0.102-0.53,0.221-0.771c0.118-0.237,0.281-0.434,0.488-0.583
			c0.208-0.148,0.46-0.224,0.754-0.231c0.294,0.007,0.544,0.083,0.752,0.23c0.206,0.149,0.366,0.343,0.477,0.582
			c0.115,0.24,0.175,0.499,0.185,0.774H42.758z M46.175,42.043c0.015-0.423-0.04-0.824-0.168-1.2
			c-0.131-0.378-0.34-0.688-0.634-0.924c-0.292-0.238-0.675-0.362-1.151-0.369c-0.47,0.007-0.851,0.122-1.147,0.348
			s-0.513,0.518-0.652,0.871c-0.139,0.356-0.206,0.733-0.204,1.128c-0.001,0.429,0.065,0.819,0.204,1.172
			c0.139,0.355,0.355,0.637,0.652,0.852c0.296,0.212,0.677,0.321,1.147,0.327c0.556-0.004,0.989-0.143,1.302-0.42
			c0.312-0.274,0.522-0.664,0.635-1.171h-0.542c-0.084,0.341-0.238,0.614-0.463,0.819c-0.228,0.206-0.538,0.311-0.932,0.318
			c-0.345-0.007-0.626-0.101-0.839-0.277c-0.216-0.177-0.373-0.402-0.473-0.668c-0.098-0.265-0.15-0.535-0.151-0.805H46.175z"/>
		<path d="M46.902,44.118h0.542V41.75c0.007-0.472,0.161-0.86,0.458-1.161c0.297-0.3,0.698-0.444,1.196-0.431v-0.543
			c-0.405-0.012-0.751,0.077-1.038,0.27c-0.288,0.195-0.502,0.472-0.643,0.832h-0.017v-1.04h-0.499V44.118z"/>
		<path d="M50.11,41.038c0.015-0.361,0.131-0.623,0.347-0.789s0.498-0.247,0.841-0.245c0.326-0.008,0.6,0.053,0.819,0.181
			c0.221,0.131,0.334,0.374,0.344,0.731c-0.001,0.238-0.062,0.392-0.182,0.466c-0.119,0.073-0.291,0.119-0.515,0.135
			c-0.399,0.04-0.78,0.09-1.14,0.156c-0.359,0.065-0.657,0.193-0.887,0.381c-0.231,0.187-0.352,0.486-0.359,0.893
			c0.011,0.448,0.157,0.775,0.439,0.985c0.28,0.212,0.631,0.315,1.051,0.314c0.416-0.001,0.745-0.079,0.985-0.234
			c0.243-0.154,0.453-0.377,0.632-0.669h0.017c-0.008,0.236,0.029,0.423,0.111,0.562c0.083,0.137,0.259,0.21,0.523,0.213
			c0.073,0,0.135-0.003,0.186-0.008c0.055-0.006,0.108-0.013,0.168-0.027v-0.454c-0.021,0.009-0.049,0.017-0.078,0.023
			c-0.032,0.006-0.062,0.009-0.096,0.01c-0.107-0.001-0.186-0.029-0.237-0.085c-0.052-0.056-0.08-0.137-0.08-0.242v-2.358
			c-0.006-0.392-0.088-0.693-0.25-0.899c-0.16-0.207-0.365-0.348-0.612-0.422c-0.247-0.078-0.506-0.111-0.771-0.106
			c-0.518-0.003-0.937,0.114-1.262,0.352c-0.324,0.239-0.504,0.617-0.54,1.137H50.11z M52.461,42.398
			c-0.01,0.438-0.164,0.779-0.464,1.023c-0.297,0.242-0.661,0.367-1.086,0.372c-0.265-0.004-0.493-0.081-0.685-0.235
			c-0.194-0.155-0.296-0.369-0.307-0.643c0.01-0.285,0.121-0.49,0.331-0.617c0.213-0.128,0.475-0.215,0.792-0.262
			c0.314-0.051,0.628-0.099,0.944-0.147c0.078-0.011,0.165-0.033,0.259-0.061c0.09-0.027,0.159-0.075,0.198-0.139h0.018V42.398z"/>
	</g>
	<rect x="54.093" y="37.973" width="0.54" height="6.146"/>
	<path d="M55.678,44.118h0.541v-4.44h-0.541V44.118z M55.678,38.842h0.541v-0.87h-0.541V38.842z"/>
	<g>
		<path d="M58.116,38.343h-0.541v1.335h-0.777v0.453h0.777v3.042c-0.009,0.374,0.059,0.634,0.208,0.781
			c0.146,0.149,0.399,0.221,0.754,0.217c0.081-0.001,0.164-0.004,0.242-0.008c0.08-0.006,0.159-0.008,0.241-0.008v-0.465
			c-0.155,0.018-0.309,0.026-0.466,0.026c-0.186-0.014-0.306-0.07-0.363-0.169c-0.056-0.101-0.082-0.238-0.075-0.418v-2.997h0.903
			v-0.453h-0.903V38.343z"/>
		<path d="M60.284,41.038c0.015-0.361,0.131-0.623,0.348-0.789c0.217-0.166,0.499-0.247,0.841-0.245
			c0.326-0.008,0.6,0.053,0.819,0.181c0.219,0.131,0.335,0.374,0.344,0.731c-0.002,0.238-0.064,0.392-0.182,0.466
			c-0.119,0.073-0.293,0.119-0.515,0.135c-0.4,0.04-0.779,0.09-1.14,0.156c-0.36,0.065-0.657,0.193-0.89,0.381
			c-0.229,0.187-0.35,0.486-0.356,0.893c0.01,0.448,0.158,0.775,0.439,0.985c0.279,0.212,0.63,0.315,1.051,0.314
			c0.417-0.001,0.746-0.079,0.987-0.234c0.241-0.154,0.451-0.377,0.631-0.669h0.017c-0.007,0.236,0.03,0.423,0.113,0.562
			c0.083,0.137,0.257,0.21,0.523,0.213c0.07,0,0.134-0.003,0.186-0.008c0.053-0.006,0.108-0.013,0.167-0.027v-0.454
			c-0.021,0.009-0.049,0.017-0.08,0.023c-0.03,0.006-0.061,0.009-0.094,0.01c-0.105-0.001-0.185-0.029-0.238-0.085
			c-0.053-0.056-0.079-0.137-0.079-0.242v-2.358c-0.006-0.392-0.089-0.693-0.249-0.899c-0.16-0.207-0.367-0.348-0.614-0.422
			c-0.25-0.078-0.504-0.111-0.771-0.106c-0.518-0.003-0.935,0.114-1.261,0.352c-0.323,0.239-0.503,0.617-0.538,1.137H60.284z
			 M62.636,42.398c-0.009,0.438-0.165,0.779-0.463,1.023c-0.298,0.242-0.662,0.367-1.087,0.372
			c-0.265-0.004-0.494-0.081-0.688-0.235c-0.192-0.155-0.294-0.369-0.303-0.643c0.009-0.285,0.119-0.49,0.33-0.617
			c0.214-0.128,0.476-0.215,0.792-0.262c0.313-0.051,0.627-0.099,0.944-0.147c0.08-0.011,0.165-0.033,0.259-0.061
			c0.091-0.027,0.159-0.075,0.198-0.139h0.019V42.398z"/>
		<path d="M65.116,38.343h-0.539v1.335h-0.777v0.453h0.777v3.042c-0.012,0.374,0.058,0.634,0.206,0.781
			c0.146,0.149,0.399,0.221,0.754,0.217c0.082-0.001,0.163-0.004,0.243-0.008c0.081-0.006,0.16-0.008,0.241-0.008v-0.465
			c-0.154,0.018-0.31,0.026-0.465,0.026c-0.188-0.014-0.308-0.07-0.364-0.169c-0.057-0.101-0.081-0.238-0.075-0.418v-2.997h0.904
			v-0.453h-0.904V38.343z"/>
		<path d="M73.103,37.974h-0.542v2.546h-0.017c-0.125-0.319-0.328-0.561-0.608-0.725c-0.284-0.164-0.594-0.246-0.932-0.246
			c-0.451,0.004-0.823,0.114-1.12,0.329c-0.297,0.215-0.514,0.5-0.662,0.852c-0.145,0.354-0.218,0.744-0.214,1.167
			c-0.003,0.426,0.07,0.815,0.214,1.169c0.147,0.353,0.364,0.638,0.662,0.852c0.297,0.215,0.668,0.323,1.12,0.329
			c0.332-0.004,0.648-0.092,0.946-0.269c0.297-0.176,0.51-0.409,0.638-0.701h0.017v0.842h0.499V37.974z M69.548,41.896
			c-0.001-0.313,0.049-0.61,0.149-0.899c0.099-0.285,0.254-0.523,0.469-0.709c0.215-0.183,0.493-0.279,0.838-0.285
			c0.381,0.006,0.687,0.102,0.917,0.285c0.229,0.186,0.393,0.424,0.494,0.709c0.101,0.289,0.149,0.586,0.146,0.899
			c0.003,0.314-0.045,0.616-0.146,0.903c-0.101,0.284-0.265,0.522-0.494,0.708c-0.23,0.183-0.536,0.279-0.917,0.283
			c-0.345-0.004-0.624-0.101-0.838-0.283c-0.215-0.186-0.37-0.424-0.469-0.708C69.596,42.513,69.546,42.211,69.548,41.896"/>
		<path d="M74.451,41.588c0.029-0.274,0.102-0.53,0.221-0.771c0.118-0.237,0.28-0.434,0.489-0.583
			c0.207-0.148,0.458-0.224,0.754-0.231c0.292,0.007,0.543,0.083,0.751,0.23c0.206,0.149,0.368,0.343,0.478,0.582
			c0.114,0.24,0.174,0.499,0.184,0.774H74.451z M77.869,42.043c0.016-0.423-0.039-0.824-0.169-1.2
			c-0.131-0.378-0.34-0.688-0.634-0.924c-0.291-0.238-0.674-0.362-1.15-0.369c-0.471,0.007-0.85,0.122-1.148,0.348
			c-0.296,0.226-0.512,0.518-0.652,0.871c-0.137,0.356-0.205,0.733-0.205,1.128c0,0.429,0.067,0.819,0.205,1.172
			c0.141,0.355,0.356,0.637,0.652,0.852c0.299,0.212,0.678,0.321,1.148,0.327c0.555-0.004,0.99-0.143,1.301-0.42
			c0.311-0.274,0.521-0.664,0.635-1.171H77.31c-0.083,0.341-0.238,0.614-0.465,0.819s-0.537,0.311-0.93,0.318
			c-0.346-0.007-0.628-0.101-0.841-0.277c-0.214-0.177-0.372-0.402-0.472-0.668c-0.097-0.265-0.149-0.535-0.151-0.805H77.869z"/>
		<path d="M86.177,39.831c-0.057-0.43-0.208-0.795-0.45-1.088c-0.243-0.295-0.542-0.52-0.896-0.67
			c-0.356-0.153-0.731-0.229-1.124-0.229c-0.646,0.007-1.184,0.16-1.612,0.458c-0.43,0.292-0.752,0.684-0.969,1.168
			c-0.21,0.48-0.32,1.006-0.32,1.576c0,0.568,0.11,1.091,0.32,1.574c0.216,0.484,0.539,0.875,0.969,1.168
			c0.428,0.297,0.966,0.45,1.612,0.457c0.725-0.007,1.311-0.231,1.758-0.668c0.443-0.438,0.709-1.038,0.798-1.801h-0.585
			c-0.058,0.562-0.259,1.027-0.601,1.397c-0.341,0.37-0.798,0.561-1.371,0.576c-0.541-0.011-0.981-0.145-1.322-0.404
			c-0.342-0.259-0.595-0.594-0.756-1.002c-0.16-0.409-0.237-0.841-0.237-1.297c0-0.457,0.077-0.89,0.237-1.298
			c0.162-0.41,0.414-0.743,0.756-1.004c0.34-0.259,0.781-0.395,1.322-0.404c0.457,0.004,0.859,0.134,1.201,0.391
			c0.344,0.257,0.572,0.625,0.684,1.1H86.177z"/>
		<path d="M87.555,41.038c0.016-0.361,0.131-0.623,0.348-0.789c0.219-0.166,0.499-0.247,0.841-0.245
			c0.327-0.008,0.6,0.053,0.82,0.181c0.219,0.131,0.333,0.374,0.342,0.731c-0.001,0.238-0.062,0.392-0.181,0.466
			c-0.119,0.073-0.291,0.119-0.515,0.135c-0.399,0.04-0.78,0.09-1.14,0.156c-0.359,0.065-0.656,0.193-0.887,0.381
			c-0.231,0.187-0.352,0.486-0.36,0.893c0.011,0.448,0.158,0.775,0.439,0.985c0.28,0.212,0.631,0.315,1.052,0.314
			c0.416-0.001,0.745-0.079,0.985-0.234c0.243-0.154,0.453-0.377,0.632-0.669h0.017c-0.008,0.236,0.029,0.423,0.111,0.562
			c0.084,0.137,0.259,0.21,0.524,0.213c0.073,0,0.134-0.003,0.186-0.008c0.055-0.006,0.108-0.013,0.167-0.027v-0.454
			c-0.021,0.009-0.048,0.017-0.077,0.023c-0.032,0.006-0.062,0.009-0.096,0.01c-0.105-0.001-0.186-0.029-0.236-0.085
			c-0.055-0.056-0.081-0.137-0.081-0.242v-2.358c-0.006-0.392-0.088-0.693-0.25-0.899c-0.16-0.207-0.366-0.348-0.612-0.422
			c-0.247-0.078-0.506-0.111-0.771-0.106c-0.518-0.003-0.937,0.114-1.262,0.352c-0.325,0.239-0.504,0.617-0.539,1.137H87.555z
			 M89.906,42.398c-0.008,0.438-0.162,0.779-0.462,1.023c-0.297,0.242-0.662,0.367-1.086,0.372
			c-0.265-0.004-0.494-0.081-0.687-0.235c-0.192-0.155-0.294-0.369-0.304-0.643c0.01-0.285,0.12-0.49,0.33-0.617
			c0.213-0.128,0.476-0.215,0.792-0.262c0.314-0.051,0.627-0.099,0.945-0.147c0.077-0.011,0.164-0.033,0.257-0.061
			c0.093-0.027,0.16-0.075,0.2-0.139h0.016V42.398z"/>
		<path d="M92.388,38.343h-0.54v1.335h-0.777v0.453h0.777v3.042c-0.012,0.374,0.058,0.634,0.204,0.781
			c0.15,0.149,0.401,0.221,0.755,0.217c0.083-0.001,0.164-0.004,0.243-0.008c0.08-0.006,0.161-0.008,0.239-0.008v-0.465
			c-0.152,0.018-0.307,0.026-0.463,0.026c-0.189-0.014-0.308-0.07-0.364-0.169c-0.056-0.101-0.081-0.238-0.075-0.418v-2.997h0.902
			v-0.453h-0.902V38.343z"/>
		<path d="M94.557,41.038c0.016-0.361,0.132-0.623,0.349-0.789c0.217-0.166,0.496-0.247,0.838-0.245
			c0.329-0.008,0.6,0.053,0.821,0.181c0.22,0.131,0.334,0.374,0.343,0.731c0,0.238-0.06,0.392-0.18,0.466
			c-0.12,0.073-0.291,0.119-0.518,0.135c-0.396,0.04-0.777,0.09-1.138,0.156c-0.361,0.065-0.657,0.193-0.888,0.381
			c-0.229,0.187-0.351,0.486-0.356,0.893c0.009,0.448,0.156,0.775,0.439,0.985c0.279,0.212,0.631,0.315,1.05,0.314
			c0.416-0.001,0.745-0.079,0.987-0.234c0.24-0.154,0.452-0.377,0.63-0.669h0.018c-0.008,0.236,0.029,0.423,0.112,0.562
			c0.082,0.137,0.255,0.21,0.523,0.213c0.072,0,0.133-0.003,0.186-0.008c0.052-0.006,0.109-0.013,0.168-0.027v-0.454
			c-0.022,0.009-0.048,0.017-0.08,0.023c-0.034,0.006-0.062,0.009-0.094,0.01c-0.107-0.001-0.184-0.029-0.239-0.085
			c-0.052-0.056-0.077-0.137-0.077-0.242v-2.358c-0.007-0.392-0.088-0.693-0.25-0.899c-0.162-0.207-0.366-0.348-0.613-0.422
			c-0.25-0.078-0.506-0.111-0.774-0.106c-0.514-0.003-0.935,0.114-1.26,0.352c-0.324,0.239-0.504,0.617-0.538,1.137H94.557z
			 M96.907,42.398c-0.009,0.438-0.163,0.779-0.462,1.023c-0.299,0.242-0.662,0.367-1.085,0.372
			c-0.265-0.004-0.493-0.081-0.689-0.235c-0.192-0.155-0.292-0.369-0.301-0.643c0.006-0.285,0.117-0.49,0.33-0.617
			c0.213-0.128,0.475-0.215,0.789-0.262c0.318-0.051,0.629-0.099,0.948-0.147c0.077-0.011,0.162-0.033,0.258-0.061
			c0.092-0.027,0.16-0.075,0.198-0.139h0.017V42.398z"/>
	</g>
	<rect x="98.537" y="37.973" width="0.54" height="6.146"/>
	<g>
		<path d="M103.713,39.678h-0.539v2.333c0,0.305-0.047,0.593-0.143,0.863c-0.091,0.27-0.237,0.488-0.435,0.658
			c-0.197,0.167-0.45,0.253-0.758,0.261c-0.425-0.002-0.727-0.105-0.908-0.311c-0.181-0.208-0.274-0.512-0.281-0.911v-2.893h-0.542
			v2.885c-0.002,0.521,0.116,0.931,0.36,1.228c0.245,0.299,0.645,0.453,1.197,0.457c0.337-0.001,0.639-0.083,0.911-0.242
			c0.271-0.161,0.478-0.389,0.625-0.687h0.016v0.799h0.498V39.678z"/>
		<path d="M104.73,44.118h0.54v-2.591c0.013-0.443,0.139-0.808,0.381-1.088c0.244-0.28,0.581-0.427,1.014-0.436
			c0.432,0.007,0.728,0.135,0.895,0.382c0.164,0.25,0.242,0.57,0.234,0.961v2.771h0.541v-2.856c0.012-0.538-0.104-0.954-0.345-1.256
			c-0.239-0.3-0.667-0.453-1.281-0.458c-0.321,0.003-0.61,0.087-0.87,0.247c-0.262,0.161-0.445,0.378-0.551,0.647h-0.017v-0.764
			h-0.54V44.118z"/>
		<path d="M110.633,44.102l-0.189,0.508c-0.081,0.208-0.172,0.378-0.276,0.504c-0.102,0.126-0.268,0.19-0.5,0.194
			c-0.12-0.001-0.243-0.016-0.369-0.043v0.456c0.04,0.015,0.093,0.026,0.156,0.032c0.065,0.004,0.15,0.007,0.256,0.011
			c0.326,0.006,0.568-0.061,0.724-0.2c0.155-0.14,0.305-0.395,0.445-0.765l1.928-5.12h-0.544l-1.367,3.787l-1.463-3.787h-0.578
			L110.633,44.102z"/>
		<path d="M113.835,41.038c0.018-0.361,0.132-0.623,0.35-0.789s0.496-0.247,0.838-0.245c0.328-0.008,0.6,0.053,0.821,0.181
			c0.218,0.131,0.334,0.374,0.343,0.731c-0.002,0.238-0.062,0.392-0.181,0.466c-0.122,0.073-0.293,0.119-0.519,0.135
			c-0.398,0.04-0.776,0.09-1.138,0.156c-0.36,0.065-0.656,0.193-0.888,0.381c-0.231,0.187-0.35,0.486-0.356,0.893
			c0.009,0.448,0.155,0.775,0.436,0.985c0.28,0.212,0.633,0.315,1.051,0.314c0.417-0.001,0.746-0.079,0.986-0.234
			c0.24-0.154,0.453-0.377,0.632-0.669h0.018c-0.008,0.236,0.03,0.423,0.113,0.562c0.082,0.137,0.256,0.21,0.523,0.213
			c0.071,0,0.135-0.003,0.187-0.008c0.052-0.006,0.108-0.013,0.166-0.027v-0.454c-0.021,0.009-0.048,0.017-0.079,0.023
			c-0.032,0.006-0.062,0.009-0.094,0.01c-0.106-0.001-0.186-0.029-0.239-0.085c-0.052-0.056-0.08-0.137-0.08-0.242v-2.358
			c-0.004-0.392-0.089-0.693-0.25-0.899c-0.159-0.207-0.364-0.348-0.609-0.422c-0.25-0.078-0.506-0.111-0.775-0.106
			c-0.518-0.003-0.936,0.114-1.26,0.352c-0.323,0.239-0.503,0.617-0.537,1.137H113.835z M116.187,42.398
			c-0.009,0.438-0.164,0.779-0.464,1.023c-0.298,0.242-0.661,0.367-1.089,0.372c-0.261-0.004-0.49-0.081-0.683-0.235
			c-0.195-0.155-0.297-0.369-0.307-0.643c0.009-0.285,0.119-0.49,0.332-0.617c0.214-0.128,0.476-0.215,0.79-0.262
			c0.312-0.051,0.629-0.099,0.945-0.147c0.078-0.011,0.163-0.033,0.258-0.061c0.092-0.027,0.158-0.075,0.199-0.139h0.018V42.398z"/>
		<path d="M11.255,36.118c-5.967,0-10.807,5.644-10.807,12.603c0,6.957,4.84,12.602,10.807,12.602
			c5.97,0,10.808-5.645,10.808-12.602C22.063,41.762,17.225,36.118,11.255,36.118 M3.721,54.752
			c-0.969-1.727-1.533-3.798-1.533-6.031c0-2.232,0.564-4.307,1.533-6.032V54.752z M6.019,39.875
			c0.604-0.514,1.262-0.936,1.961-1.26v20.211c-0.699-0.325-1.357-0.75-1.961-1.261V39.875z M10.278,37.95
			c0.323-0.042,0.649-0.062,0.977-0.062c0.333,0,0.663,0.02,0.986,0.062v21.542c-0.323,0.043-0.653,0.063-0.986,0.063
			c-0.328,0-0.654-0.021-0.977-0.063V37.95z M14.539,38.618c0.699,0.325,1.355,0.75,1.959,1.26v17.684
			c-0.604,0.511-1.261,0.937-1.959,1.263V38.618z M18.798,42.703c0.963,1.722,1.526,3.792,1.526,6.019
			c0,2.226-0.562,4.297-1.526,6.017V42.703z M16.498,38.792v0.604c-0.608-0.483-1.264-0.885-1.959-1.193V37.68
			C15.23,37.968,15.886,38.343,16.498,38.792 M11.255,37.021c0.333,0,0.663,0.021,0.986,0.06v0.488
			c-0.323-0.04-0.653-0.061-0.986-0.061c-0.328,0-0.654,0.02-0.977,0.061V37.08C10.601,37.043,10.927,37.021,11.255,37.021
			 M7.98,37.677v0.524c-0.696,0.308-1.353,0.708-1.961,1.193v-0.607C6.63,38.339,7.289,37.963,7.98,37.677 M1.342,48.721
			c0-2.901,0.896-5.555,2.379-7.601v0.85c-1.194,1.877-1.902,4.215-1.902,6.751c0,2.532,0.708,4.871,1.902,6.75v0.851
			C2.237,54.278,1.342,51.624,1.342,48.721 M6.019,58.652v-0.604c0.608,0.483,1.265,0.884,1.961,1.192v0.521
			C7.289,59.476,6.63,59.105,6.019,58.652 M11.255,60.418c-0.328,0-0.654-0.021-0.977-0.057v-0.487
			c0.323,0.038,0.649,0.059,0.977,0.059c0.333,0,0.663-0.021,0.986-0.059v0.486C11.918,60.398,11.588,60.418,11.255,60.418
			 M14.539,59.761v-0.525c0.696-0.306,1.352-0.709,1.959-1.191v0.604C15.886,59.097,15.23,59.474,14.539,59.761 M18.798,55.46
			c1.187-1.877,1.893-4.211,1.893-6.739c0-2.531-0.706-4.864-1.893-6.739v-0.853c1.477,2.044,2.371,4.696,2.371,7.592
			c0,2.896-0.894,5.548-2.371,7.59V55.46z M21.78,60.032c0.074-0.312,0.334-0.616,0.506-0.871c-0.222-0.108-0.504-0.255-0.698-0.426
			c0.427-0.642,0.578-0.961,0.646-1.733l-0.056-3.996c-0.406,1.203-0.872,2.528-1.54,3.508c-0.189,0.277-0.226,0.353-0.333,0.516
			c-0.131,0.2-0.413,0.616-0.405,1.322c-0.238,0.05-0.528-0.014-0.807-0.031c0.036,0.298,0.073,0.356-0.008,0.855
			c-1.153,0.042-1.375,0.747-2.62,1.392c-0.569,0.298-0.809,0.418-1.564,0.697c2.34-0.009,3.373,0.376,4.674-0.502
			c0.152,0.203,0.233,0.48,0.332,0.717c0.186-0.145,0.582-0.406,0.883-0.484c0.344,0.341,0.855,0.531,1.444,0.477
			C22.322,60.995,22.155,60.353,21.78,60.032 M21.984,59.242c-0.153,0.063-0.951,0.33-0.951,0.33l-0.06-0.189
			c0.279-0.165,0.42-0.388,0.424-0.424C21.453,58.961,21.766,59.197,21.984,59.242 M21.428,55.615
			c0.615-1.593,0.508-1.646,0.683-2.307c-0.179,2.226-0.844,4.062-1.488,5.748c0,0-0.148-0.046-0.227-0.03
			c-0.132-0.154-0.163-0.375-0.163-0.375C19.901,57.564,20.943,56.868,21.428,55.615 M19.333,58.56l0.708,0.589
			c-0.49,0.012-0.714,0.015-0.714,0.015C19.413,58.79,19.333,58.56,19.333,58.56 M15.247,61.232l0.909-0.286
			c1.434-0.513,1.949-1.584,3.029-1.524c0.229,0.026,0.424,0.07,0.614,0.181c-0.008,0.069,0.014,0.15,0.037,0.22
			C18.918,60.367,16.945,60.989,15.247,61.232 M20.002,61.182c-0.043-0.112-0.065-0.375-0.228-0.554
			c0.218-0.184,0.263-0.287,0.336-0.465c0.073,0.043,0.15,0.065,0.227,0.071L20.002,61.182z M20.168,59.886
			c-0.14-0.139-0.137-0.361,0.001-0.499c0.137-0.139,0.362-0.138,0.5,0.001c0.136,0.137,0.136,0.36-0.001,0.502
			C20.53,60.026,20.304,60.024,20.168,59.886 M20.852,60.687c-0.161-0.181-0.149-0.242-0.209-0.494
			c0.08-0.022,0.198-0.106,0.253-0.186l1.108,1.193C21.594,61.238,21.107,61,20.852,60.687 M21.78,37.459
			c0.074,0.313,0.334,0.615,0.506,0.873c-0.222,0.108-0.504,0.256-0.698,0.424c0.427,0.641,0.578,0.962,0.646,1.735l-0.056,3.995
			c-0.406-1.202-0.872-2.529-1.54-3.508c-0.189-0.277-0.226-0.351-0.333-0.517c-0.131-0.202-0.413-0.612-0.405-1.322
			c-0.238-0.047-0.528,0.015-0.807,0.035c0.036-0.302,0.073-0.358-0.008-0.856c-1.153-0.041-1.375-0.748-2.62-1.393
			c-0.569-0.297-0.809-0.419-1.564-0.698c2.34,0.009,3.373-0.374,4.674,0.502c0.152-0.203,0.233-0.481,0.332-0.718
			c0.186,0.145,0.582,0.407,0.883,0.485c0.344-0.341,0.855-0.529,1.444-0.475C22.322,36.496,22.155,37.136,21.78,37.459
			 M21.984,38.25c-0.153-0.062-0.951-0.329-0.951-0.329l-0.06,0.189c0.279,0.166,0.42,0.388,0.424,0.425
			C21.453,38.527,21.766,38.295,21.984,38.25 M21.428,41.877c0.615,1.592,0.508,1.646,0.683,2.307
			c-0.179-2.228-0.844-4.062-1.488-5.748c0,0-0.148,0.044-0.227,0.029c-0.132,0.155-0.163,0.376-0.163,0.376
			C19.901,39.927,20.943,40.625,21.428,41.877 M19.333,38.932l0.708-0.589c-0.49-0.011-0.714-0.016-0.714-0.016
			C19.413,38.702,19.333,38.932,19.333,38.932 M15.247,36.262l0.909,0.281c1.434,0.517,1.949,1.584,3.029,1.525
			c0.229-0.024,0.424-0.07,0.614-0.177c-0.008-0.07,0.014-0.154,0.037-0.223C18.918,37.124,16.945,36.502,15.247,36.262
			 M20.002,36.309c-0.043,0.112-0.065,0.376-0.228,0.555c0.218,0.184,0.263,0.284,0.336,0.465c0.073-0.044,0.15-0.066,0.227-0.073
			L20.002,36.309z M20.168,37.605c-0.14,0.139-0.137,0.361,0.001,0.5c0.137,0.138,0.362,0.138,0.5-0.001
			c0.136-0.14,0.136-0.362-0.001-0.5C20.53,37.465,20.304,37.465,20.168,37.605 M20.852,36.802
			c-0.161,0.184-0.149,0.245-0.209,0.499c0.08,0.022,0.198,0.104,0.253,0.181l1.108-1.19C21.594,36.253,21.107,36.49,20.852,36.802
			 M0.732,60.009c-0.073-0.312-0.334-0.615-0.506-0.87c0.222-0.109,0.506-0.256,0.698-0.425c-0.424-0.642-0.576-0.963-0.647-1.736
			l0.058-3.993c0.406,1.199,0.871,2.528,1.538,3.508c0.189,0.277,0.227,0.351,0.335,0.516c0.128,0.201,0.412,0.617,0.403,1.321
			c0.238,0.05,0.528-0.013,0.806-0.034c-0.033,0.304-0.072,0.362,0.007,0.856c1.156,0.045,1.377,0.749,2.622,1.395
			c0.572,0.298,0.812,0.418,1.565,0.696c-2.34-0.008-3.373,0.376-4.675-0.502c-0.153,0.202-0.232,0.482-0.332,0.718
			c-0.185-0.145-0.582-0.407-0.881-0.482c-0.345,0.338-0.857,0.528-1.448,0.475C0.192,60.974,0.357,60.331,0.732,60.009
			 M0.529,59.221c0.154,0.061,0.952,0.328,0.952,0.328l0.06-0.189c-0.28-0.167-0.422-0.388-0.425-0.422
			C1.059,58.939,0.745,59.175,0.529,59.221 M1.085,55.595c-0.617-1.594-0.51-1.646-0.684-2.311c0.177,2.229,0.844,4.063,1.489,5.751
			c0,0,0.148-0.047,0.223-0.032c0.133-0.154,0.164-0.374,0.164-0.374C2.611,57.543,1.57,56.845,1.085,55.595 M3.178,58.539
			l-0.708,0.589c0.491,0.012,0.715,0.015,0.715,0.015C3.1,58.768,3.178,58.539,3.178,58.539 M7.264,61.208l-0.907-0.283
			c-1.436-0.515-1.95-1.584-3.03-1.522c-0.229,0.022-0.424,0.07-0.615,0.178c0.008,0.068-0.014,0.151-0.036,0.221
			C3.596,60.343,5.568,60.969,7.264,61.208 M2.51,61.162c0.044-0.112,0.066-0.375,0.228-0.554c-0.218-0.187-0.262-0.285-0.335-0.467
			c-0.074,0.045-0.149,0.066-0.228,0.074L2.51,61.162z M2.345,59.865c0.137-0.137,0.137-0.362-0.004-0.498
			c-0.135-0.139-0.36-0.139-0.499,0c-0.136,0.14-0.136,0.363,0.001,0.502C1.983,60.004,2.207,60.004,2.345,59.865 M1.659,60.668
			c0.161-0.187,0.149-0.247,0.21-0.496c-0.081-0.024-0.2-0.106-0.255-0.184l-1.108,1.19C0.919,61.216,1.405,60.978,1.659,60.668
			 M0.732,37.438c-0.073,0.313-0.334,0.617-0.506,0.871c0.222,0.11,0.506,0.259,0.698,0.426c-0.424,0.64-0.576,0.961-0.647,1.732
			l0.058,3.998c0.406-1.202,0.871-2.527,1.538-3.507c0.189-0.277,0.227-0.353,0.335-0.517c0.128-0.201,0.412-0.615,0.403-1.324
			c0.238-0.046,0.528,0.014,0.806,0.037c-0.033-0.303-0.072-0.363,0.007-0.858c1.156-0.042,1.377-0.75,2.622-1.394
			c0.572-0.295,0.812-0.417,1.565-0.696c-2.34,0.008-3.373-0.375-4.675,0.501c-0.153-0.201-0.232-0.481-0.332-0.718
			c-0.185,0.148-0.582,0.409-0.881,0.487c-0.345-0.34-0.857-0.531-1.448-0.476C0.192,36.475,0.357,37.116,0.732,37.438
			 M0.529,38.229C0.683,38.166,1.481,37.9,1.481,37.9l0.06,0.188c-0.28,0.166-0.422,0.386-0.425,0.423
			C1.059,38.507,0.745,38.276,0.529,38.229 M1.085,41.856c-0.617,1.592-0.51,1.646-0.684,2.308c0.177-2.227,0.844-4.064,1.489-5.75
			c0,0,0.148,0.045,0.223,0.03C2.246,38.6,2.277,38.82,2.277,38.82C2.611,39.907,1.57,40.603,1.085,41.856 M3.178,38.911
			L2.469,38.32c0.491-0.011,0.715-0.014,0.715-0.014C3.1,38.681,3.178,38.911,3.178,38.911 M7.264,36.238l-0.907,0.286
			c-1.436,0.513-1.95,1.584-3.03,1.522c-0.229-0.021-0.424-0.071-0.615-0.177c0.008-0.072-0.014-0.153-0.036-0.221
			C3.596,37.103,5.568,36.48,7.264,36.238 M2.51,36.288c0.044,0.112,0.066,0.376,0.228,0.554c-0.218,0.182-0.262,0.283-0.335,0.465
			c-0.074-0.042-0.149-0.065-0.228-0.072L2.51,36.288z M2.345,37.584c0.137,0.139,0.137,0.361-0.004,0.501
			c-0.135,0.137-0.36,0.137-0.499-0.001c-0.136-0.142-0.136-0.362,0.001-0.501C1.983,37.443,2.207,37.443,2.345,37.584
			 M1.659,36.781c0.161,0.185,0.149,0.246,0.21,0.495c-0.081,0.028-0.2,0.109-0.255,0.185l-1.108-1.189
			C0.919,36.232,1.405,36.47,1.659,36.781"/>
	</g>
</g>
</svg>
