<svg width="95" height="84" viewBox="0 0 95 84" fill="none" xmlns="http://www.w3.org/2000/svg">
<path d="M80.4261 82.55L71.4261 73.65C68.2261 75.7833 64.7761 77.4167 61.0761 78.55C57.3761 79.6833 53.4594 80.25 49.3261 80.25C43.7927 80.25 38.5927 79.2 33.7261 77.1C28.8594 75 24.6261 72.15 21.0261 68.55C17.4261 64.95 14.5761 60.7167 12.4761 55.85C10.3761 50.9833 9.32607 45.7833 9.32607 40.25C9.32607 36.1167 9.89274 32.2 11.0261 28.5C12.1594 24.8 13.7927 21.35 15.9261 18.15L6.82607 9.05C6.02607 8.25 5.64274 7.3 5.67607 6.2C5.70941 5.1 6.12607 4.15 6.92607 3.35C7.72607 2.55 8.67607 2.15 9.77607 2.15C10.8761 2.15 11.8261 2.55 12.6261 3.35L86.1261 76.95C86.9261 77.75 87.3261 78.6833 87.3261 79.75C87.3261 80.8167 86.9261 81.75 86.1261 82.55C85.3261 83.35 84.3761 83.75 83.2761 83.75C82.1761 83.75 81.2261 83.35 80.4261 82.55ZM49.3261 72.25C52.3261 72.25 55.1761 71.85 57.8761 71.05C60.5761 70.25 63.1261 69.15 65.5261 67.75L49.3261 51.55V72.25ZM82.8261 62.25L76.9261 56.35C78.3261 54.0167 79.4094 51.5 80.1761 48.8C80.9427 46.1 81.3261 43.25 81.3261 40.25C81.3261 31.3833 78.2094 23.8333 71.9761 17.6C65.7427 11.3667 58.1927 8.25 49.3261 8.25V28.75L27.3261 6.75C30.5261 4.68333 33.9761 3.08333 37.6761 1.95C41.3761 0.816667 45.2594 0.25 49.3261 0.25C54.8594 0.25 60.0594 1.3 64.9261 3.4C69.7927 5.5 74.0261 8.35 77.6261 11.95C81.2261 15.55 84.0761 19.7833 86.1761 24.65C88.2761 29.5167 89.3261 34.7167 89.3261 40.25C89.3261 44.3167 88.7594 48.2 87.6261 51.9C86.4927 55.6 84.8927 59.05 82.8261 62.25Z" fill="black"/>
</svg>
