<?xml version="1.0" encoding="utf-8"?>
<!-- Generator: Adobe Illustrator 15.0.0, SVG Export Plug-In . SVG Version: 6.00 Build 0)  -->
<!DOCTYPE svg PUBLIC "-//W3C//DTD SVG 1.1//EN" "http://www.w3.org/Graphics/SVG/1.1/DTD/svg11.dtd">
<svg version="1.1" id="Capa_1" xmlns="http://www.w3.org/2000/svg" xmlns:xlink="http://www.w3.org/1999/xlink" x="0px" y="0px"
	 width="216.6px" height="133.7px" viewBox="-31.2 -0.4 216.6 133.7" style="enable-background:new -31.2 -0.4 216.6 133.7;"
	 xml:space="preserve">
<g>
	<path d="M-20.9,31.1c-1.3-2-1.4-3.5-0.9-5.1l-0.2-0.3c0,0-2.5,1.6-4.7,3c-2.1,1.4-4.5,3-4.5,3L-31,32c1.6,0.2,3,0.9,4.3,2.9
		l16.2,25c2,3.1,1.8,5.8-0.8,7.6c-2.4,1.6-5.7,0.2-7.3-2.2c-1.6-2.5-1.5-4.6,0.2-5.7c0.3-0.2,0.6-0.3,0.8-0.4
		c-0.1-0.3-0.2-0.5-0.4-0.8c-1.3-2-3.5-2.3-5.2-1.2c-2.3,1.5-2.9,5.5-0.4,9.6c3.4,5.3,9.5,6.1,14.1,3.1c6.2-4.1,6.8-10.3,3.5-15.5
		L-20.9,31.1z"/>
	<path d="M-0.1,50.6c1.3-0.7,3.3-1.7,4.6-2.4l-8.7-11.5L-0.1,50.6z M-0.8,63.2L-1,62.9c0.3-1.8,0.1-2.5-0.5-4.8l-6.9-24.6
		c-0.6-1.9-0.9-2.8-2-3.7l-0.2-0.3c1.4-0.8,5.7-3,6.9-3.5l0.2,0.3c0.1,1.4,0.6,2.2,1.8,3.8L14,50.4c1.1,1.5,1.9,2.4,3.3,3.1l0.1,0.3
		c-2.4,1-5.4,2.4-8,3.7l-0.2-0.3c0.4-1.6,0-2.5-1-3.8l-2.1-2.7C5,51.2,1.5,53,0.4,53.6l1,3.4c0.4,1.4,0.9,2.5,2.5,3l0.2,0.3
		C2.7,61.2,0.7,62.3-0.8,63.2"/>
	<path d="M19.5,16.3l3.4,9.2l-0.3,0.1c-4.4-4.4-7-5.7-8.6-5c-1.4,0.6-1.8,2.5-0.4,6.4l6,16.3c1.7,4.7,3.7,6.9,5.9,6.1
		c2.5-0.9,2.3-4.3,0.7-8.4c-0.5-1.4-0.7-1.8-1-2.4c0.2-0.1,0.4-0.2,0.6-0.3c1.5-0.5,2.8-0.3,3.7,2.1c1.9,4.8,1,9.5-3.2,11.1
		c-6,2.2-11.8-2-16.1-13.8C6.5,27.5,7.6,20.5,13,18.5c2.4-0.9,3.7-0.2,4.9-0.6c0.8-0.3,1.1-0.8,1.5-1.5L19.5,16.3z"/>
	<path d="M53,43.5c-1-0.5-1.7-1.2-2.4-2.5l-8-15.4h-0.2c-0.2,0.2-0.5,0.3-0.8,0.3c-0.9,0.2-1.8,0-2.8-0.3l2.6-8.5
		c1.3-4,1.8-4.8,2.5-6l-0.1-0.3c-1.7,0.3-4.1,0.8-5.9,1.1l0.1,0.3c0.3,0.4,0.5,1,0.6,1.8c0.2,1.1,0,2.5-0.4,4l-3.1,10.3l-2.6-10.8
		c-0.5-2.1-0.2-2.9,0.3-4.1L32.7,13c-2.5,0.6-6,1.5-8.5,2.3l0.1,0.3c1.1,0.9,1.7,1.4,2.2,3.6l6.4,25.1c0.4,1.6,0.3,2.4-0.4,3.8
		l0.1,0.3c2.8-0.8,5.5-1.6,8.4-2.3l-0.1-0.3c-1.4-0.8-1.8-1.4-2.2-3.1l-2.2-9l1.2-4l6.5,12.6c0.6,1.2,1.4,2.3,2.1,2.7
		c2.4-0.5,4.3-0.8,6.7-1.2V43.5z"/>
	<path d="M70.7,20.3c-0.6-10-2.4-18.2-6.9-18c-0.5,0-0.7,0.3-0.7,1l2,35.7c0,0.6,0.2,0.8,0.7,0.7C70.1,39.5,71.3,31.9,70.7,20.3
		 M61.3-0.3c2.9-0.1,6.2-0.3,9.4,2c4.6,3.3,6.7,10.9,7.1,17.5c0.6,10.3-1.7,22.7-12.5,23.3c0,0-2.9,0.2-3.8,0.3
		c-1.2,0.1-4.6,0.4-4.6,0.4v-0.4c0.7-0.6,1.8-1.9,1.6-4.5L56.5,5c-0.2-2.8-1.2-3.9-2.1-4.6V0C55.4,0.1,58.7-0.2,61.3-0.3"/>
	<path d="M83.8,31.7c1.5,0.1,3.7,0.2,5.2,0.4l-1.4-14.3L83.8,31.7z M76.7,42.1v-0.4c1-1.2,1.4-2.2,2.1-4.4l7-24.6
		c0.5-2,0.7-2.9,0.2-4.2V8.2c1.7,0,2.9,0.1,4.3,0.3c1.1,0.1,2.2,0.2,3.5,0.4v0.3c-0.7,1.2-0.7,2.2-0.5,4.2L96.1,39
		c0.3,2.4,0.5,3.4,1.2,4.4l-0.1,0.4c-2.9-0.4-6-0.8-8.8-1v-0.4c1.2-1.2,1.3-2.2,1.1-3.7l-0.4-3.4c-1.2-0.2-5.1-0.5-6.4-0.5l-0.9,3.4
		c-0.4,1.3-0.6,2.7,0.5,3.8v0.4C80.5,42.2,78.5,42.2,76.7,42.1"/>
	<path d="M111.9,11.5l-0.1,0.3c-0.7,0.6-0.7,1.5-0.4,3.3l2.7,18.6l4.2-16.7c0.4-1.6,0.6-2.3-0.2-3.8l0.1-0.3
		c1.5,0.4,3.8,0.9,5.2,1.3l-0.1,0.3c-1.3,0.9-1.5,1.6-1.9,3.2L115,43c-0.4,2-0.5,2.8-0.1,4l-0.1,0.3c-2-0.5-3.7-1-5.8-1.5l0.1-0.3
		c0.2-0.7,0.2-1.6,0.1-2.8l-2.9-20.4l-3.4,18.1c-0.2,1.2-0.3,2.4,0.5,3.7l-0.1,0.3c-1.7-0.3-3.4-0.6-5.2-0.9l0.1-0.3
		c1-1,1.2-1.8,1.5-3.3l4.7-25.5c0.4-2.2,0.2-2.9-0.4-4.2l0.1-0.3C106.3,10.4,109.6,11,111.9,11.5"/>
	<path d="M116.7,48l0.1-0.3c1.3-0.9,1.8-1.3,2.3-3.1l7.7-24.7c0.7-2.1,0.5-2.9,0.1-4.2l0.1-0.3c2.2,0.6,6.5,2,8.5,2.7l-0.1,0.3
		c-1.1,0.8-1.8,1.4-2.5,3.5l-8,24.6c-0.6,1.7-0.4,2.4,0.2,3.9l-0.1,0.3C122.6,49.8,119.2,48.7,116.7,48"/>
	<path d="M151,31c-1-2.8-1.9-4.6-3.8-5.4l-1.3-0.6c-0.9-0.4-1-0.2-1.3,0.6l-3.8,9.2c0,0,0.7,0.3,1.3,0.5c2,0.8,3.6-0.7,4.4-1.4
		l0.2,0.1l-3.5,8.5l-0.2-0.1c-0.1-1.4,0-3.6-2.1-4.6c-0.5-0.2-1.2-0.5-1.2-0.5l-5.3,12.9c-0.3,0.8,0,1,1.9,1.8
		c1.4,0.6,2.5,0.5,6.8-1.7l0.3,0.1l-3.8,6.2c-4-2-8.6-3.9-13.3-5.6l0.1-0.3c1.4-0.7,1.9-1.1,2.5-2.8l9.5-24.2c0.8-2,0.7-2.8,0.4-4.1
		l0.1-0.3c4.7,1.7,9.9,3.9,13.9,5.8l-0.3,0.8l-1.4,5.3L151,31z"/>
	<path d="M159,56.6l-5.8,7.6c-3.4-2.1-8.2-4.8-12.4-6.9L141,57c1.5-0.6,2-0.9,2.9-2.5l12.4-22.8c1.1-1.9,1-2.7,0.9-4.1l0.2-0.3
		c2,1,6.4,3.3,7.9,4.2l-0.2,0.3c-1.2,0.6-2,0.9-3.1,2.9l-12.6,22.6c-0.5,0.9-0.3,1.1,0.7,1.7c1.8,1,3.2,0.4,8.7-2.7L159,56.6z"/>
	<path d="M172.2,26.9c0.6,0,1,0.2,1.4,0.4c1.4,0.8,1.8,2,1.8,3.1c-0.1,3.1-3.4,5.5-7.7,5.5c-0.7,0-1.5-0.1-1.5-0.1v-0.5
		c1.4-0.3,3.2-1,4.3-2.4c-1-0.6-1.7-1.7-1.6-3C169.1,28.2,170.5,26.9,172.2,26.9"/>
	<path d="M179.9,53c0.1-6.9,0-9.9-1.9-11.3c-1.3-0.9-3.1-0.8-4.2,0.7c-1.6,2.3-0.9,5.6-0.1,10.5c0.9,5.2,1.6,10.9-1.2,14.8
		c-2.5,3.4-7.4,5.3-12.1,2c-2.3-1.7-2.6-3.4-4.1-4.5c-0.6-0.4-1.2-0.3-1.8,0.3l-0.6-0.5l6-7.9l0.3,0.2c-1.1,4.4-0.9,8.7,1.5,10.4
		c1.9,1.3,4.1,1,5.2-0.5c1.7-2.4,1.4-6.5,0.7-11.4c-1.2-6.9-1.4-10.9,1.1-14.4c2.7-3.7,7.1-4.3,10.8-1.7c1.9,1.4,2.8,3.5,4,4.4
		c0.5,0.4,1.2,0.3,1.6,0.1l0.3,0.2L179.9,53L179.9,53z"/>
	<path d="M169.5,74.9c0.2,0,0.3,0,0.4-0.1c0.2-0.1,0.3-0.2,0.3-0.4s-0.1-0.3-0.3-0.4c-0.1,0-0.2,0-0.4,0h-0.7v0.9H169.5z
		 M168.4,73.6h1.2c0.2,0,0.3,0,0.5,0c0.4,0.1,0.6,0.4,0.6,0.8s-0.2,0.7-0.6,0.8l0.7,1.2h-0.5l-0.6-1.1H169v1.1h-0.5L168.4,73.6
		L168.4,73.6z M169.5,72.3c0.5,0,0.9,0.1,1.4,0.4c0.4,0.2,0.8,0.6,1,1c0.2,0.4,0.4,0.9,0.4,1.4s-0.1,0.9-0.4,1.4
		c-0.2,0.4-0.6,0.7-1,1c-0.4,0.2-0.9,0.4-1.4,0.4s-1-0.1-1.4-0.4c-0.4-0.2-0.8-0.6-1-1c-0.2-0.4-0.4-0.9-0.4-1.4s0.1-0.9,0.4-1.4
		c0.2-0.4,0.6-0.8,1-1C168.5,72.4,169,72.3,169.5,72.3 M169.5,72.7c-0.6,0-1.2,0.2-1.6,0.7c-0.4,0.4-0.7,1-0.7,1.6
		c0,0.6,0.2,1.2,0.7,1.6c0.4,0.4,1,0.7,1.6,0.7s1.2-0.2,1.6-0.7c0.4-0.4,0.7-1,0.7-1.6c0-0.6-0.2-1.2-0.7-1.6
		C170.6,72.9,170.1,72.7,169.5,72.7"/>
	<path d="M138.7,101.5c-0.9,1.4-1.7,2.4-2.8,3.5c-0.6-0.5-1.4-0.8-2.5-0.9c1.4-2.3,2.6-4.7,3.5-7.2c0.5-1.5,1-3,1.3-4.5
		c1.2-0.3,2.4-1,3.4-1.8c0.3,0.5,0.5,1.2,0.5,1.9C142,94.8,140.9,98.1,138.7,101.5 M134.9,108.8c-0.5,0.7-1.1,1.3-1.8,1.9
		c-0.7,0.6-1.4,1.1-2.1,1.7c-0.7,0.5-1.5,1-2.3,1.4c-1,0.5-1.9,1-3,1.4c-0.5-0.4-1.2-0.7-2-1c0.8-0.6,1.6-1.2,2.4-1.8
		c1.5-1.3,2.9-2.6,4.2-4.1c0.3,0,0.5,0.1,0.8,0.1c1.7,0,3.2-0.8,4.5-1.6C135.7,107.4,135.4,108.1,134.9,108.8 M125.9,116.8
		c0,1.8-1.8,2.9-4.3,3.9c-2.3,0.9-5.4,1.4-8.2,1.6c-0.1-0.1-0.1-0.3-0.2-0.4c-0.4-0.6-0.8-1-1.4-1.3c2.7-1.1,5.4-2.3,7.9-3.8
		c0.5,0.1,1.1,0.2,1.9,0.2c1.3,0,2.7-0.2,4.2-0.6C125.9,116.5,125.9,116.7,125.9,116.8 M111.3,120.8c0.7,0.4,1.2,0.9,1.4,1.4v0.1
		c-0.7,0-1.3,0-1.9,0c-1-0.1-1.8-0.2-2.4-0.5c0.4-0.1,0.8-0.3,1.2-0.4C110.2,121.2,110.7,121,111.3,120.8 M109.5,120.9
		c-0.6,0.2-1.1,0.4-1.7,0.6c-0.2-0.2-0.4-0.4-0.4-0.6c0-0.5,0.4-0.8,1.3-0.8c0.7,0,1.3,0.1,1.9,0.4
		C110.2,120.6,109.8,120.8,109.5,120.9 M119.8,116.1c-0.7-0.1-1-0.4-1-0.8c0-0.8,1.2-1.1,2.2-1.1c0.5,0,1.1,0.1,1.6,0.2
		C121.6,115,120.7,115.6,119.8,116.1 M123.3,114.5c0.6,0.2,1.3,0.5,1.8,0.9c-0.5,0.2-0.9,0.3-1.4,0.4c-0.9,0.2-1.8,0.4-2.7,0.4
		c-0.1,0-0.2,0-0.3,0C121.5,115.7,122.4,115.1,123.3,114.5 M132.6,105.4c0.1-0.2,0.3-0.4,0.4-0.7c0.8,0.1,1.8,0.3,2.3,0.8l0,0
		c-1.5,1.3-2.9,2-4.4,2C131.4,106.9,132,106.1,132.6,105.4 M130.2,107.5c-0.7-0.1-1-0.5-1-1c0-1.1,1.3-1.8,3.1-1.9
		c-0.1,0.1-0.2,0.2-0.2,0.4C131.5,105.9,130.8,106.7,130.2,107.5 M112.9,123.4c0,0.4-0.2,0.8-0.4,1.1c-0.4,0.7-1.2,1.1-1.9,1.4
		c-0.8,0.3-1.6,0.4-2.5,0.5c-0.4,0.1-0.9,0.1-1.3,0.1c-2.5,0-5.9-0.4-8.6-0.4c-0.9,0-1.9,0.1-2.7,0.4c-0.5,0.2-0.7,0.4-0.7,0.7
		c0,0.3,0.3,0.4,0.7,0.5c0.9,0.2,1.9,0.3,2.7,0.6c0.4,0.2,0.8,0.4,1.1,0.7c0.3,0.3,0.3,0.7,0.2,1.1c-0.2,0.6-1.1,0.7-1.9,0.6
		c-0.8-0.1-1.6-0.4-2.4-0.8c-1.6-0.8-3.5-1.7-5.4-2c-1.9-0.4-3.9-0.4-5.8-0.3s-3.8,0.3-5.7,0.7c-0.8,0.2-1.2,0.4-1.2,0.7
		c0,0.2,0.2,0.4,0.7,0.4c0.3,0,0.9-0.1,1.1-0.1c0.9-0.1,1.9-0.2,2.8-0.3c0.9-0.1,1.9-0.1,2.8-0.1c2,0.2,3.4,0.5,3.4,1.4
		c0,0.3-0.2,0.6-0.6,0.8c-0.7,0.3-1.6,0.3-2.5,0.4c-0.4,0-0.9,0-1.3,0.1c-0.4,0-0.8,0-1.3-0.1c-0.9-0.1-1.8-0.2-2.8-0.3
		s-1.9-0.3-2.8-0.4c-1-0.1-1.9,0-2.9,0.1c-3,0.4-4.6,0.7-6.7,0.7c-1.7,0-3.8-0.1-3.8-1.1c0-0.5,0.7-0.9,1.5-1.1
		c0.9-0.3,1.8-0.3,2.7-0.3c1.7,0,3.3,0.2,5,0.5c0.3,0,0.8,0.1,1,0.1c0.4,0,0.6-0.2,0.6-0.4c0-0.4-0.6-0.6-1.1-0.8
		c-1.4-0.4-3.8-0.8-6.3-0.8c-0.4,0-0.9,0-1.3,0c-1.7,0.1-3.4,0.4-5,0.9c-1.6,0.5-3.2,1.2-4.7,1.7c-0.8,0.2-1.9,0.6-2.7,0.6
		c-0.9,0-1.3-0.4-1.3-1c0-0.9,1.2-1.6,3.2-2c0,0,1-0.2,1.3-0.3c0.5-0.1,0.6-0.2,0.6-0.5c0-0.3-0.2-0.5-0.7-0.7
		c-0.7-0.3-1.7-0.3-2.5-0.4c-2.9,0-5.9,0.5-8.7,0.5c-4.4,0.1-6.4-1.3-6.4-3.1v-0.1c1.8-0.1,3.8-0.5,4.9-1.1c5.9,2,12,3.3,18.2,4.3
		c0.1,0,0.3-0.1,0.3-0.2c0-0.1-0.1-0.2-0.2-0.3c-6.1-1-12-2.3-17.8-4.2c0.2-0.2,0.3-0.5,0.3-0.7c0-0.8-0.8-1.2-2-1.2
		c-0.8,0-1.6,0.3-2.2,0.5c-2.6-1-5.2-2.2-7.7-3.6c0.3-0.2,0.5-0.4,0.7-0.7c0.1-0.2,0.1-0.3,0.1-0.5c0-1.1-1.4-1.7-3.2-1.7
		c-0.6,0-1.3,0.1-1.7,0.2c-0.6-0.4-1.2-0.9-1.8-1.3c-1.8-1.4-3.4-3-4.8-4.7c0.7-0.3,1.1-0.9,1.1-1.5c0-1.3-1.5-2.5-3.9-2.5
		c-0.1,0-0.1,0-0.2,0c-1.2-1.9-2.3-4-3.2-6.3c-0.7-1.7-1.2-3.4-1.7-5c0.1,0,0.2,0,0.3,0c1.1,0,2-0.6,2-1.5c0-1.3-1.3-2.2-3.2-2.3
		c-0.4-3-0.6-5.9-0.7-9c0-3.3,0.4-6.5,1-8.5c1.2,0.2,2.3,0.6,3.5,1c1.7,0.6,3.7,1.5,5.6,2.1c0.1,1.2,0.1,2.4,0,3.5
		c-0.2,3.2-0.5,6.3-0.5,9.6c-0.1,3.2,0.2,6.5,1.2,9.7c2.1,7.3,6.9,11.9,11.5,15.4c2.6,1.9,5.4,3.5,8.2,5c0.1,0.1,0.2,0,0.3-0.1
		c0.1-0.1,0-0.3-0.1-0.3c-5.9-3.2-10.8-7.1-14.1-12.2c-1.5-2.3-2.9-5.2-3.9-8.3c-0.9-2.9-1.3-6-1.5-9.2c-0.2-3.1-0.1-6.3-0.1-9.5
		c0-1.1-0.1-2.2-0.2-3.3c1.1,0.3,2.3,0.5,3.5,0.5c5.8,0,8.1-3.8,7.9-7.3c0.1,0,0.1,0,0.2,0c3.9,0,8.2-1.7,9.4-4.8c0.4,0,0.8,0,1.1,0
		c3,0,5.9-1.3,7-3.6c0.6,0.1,1.3,0.2,2.1,0.2c2.5,0,5.1-1,6.1-2.6c1,0.4,2.2,0.6,3.5,0.6c3,0,5.3-1.2,6.7-2.9
		c0.5,1.5,2.1,2.3,3.8,2.3c0.4,0,0.9-0.1,1.3-0.2c0.1,0,0.2-0.1,0.4-0.1c0.5,0.2,1.2,0.3,1.8,0.3c1.8,0,3.2-1,3.7-2.4
		c1.1,1.5,2.6,2.4,4.5,2.8c1,0.2,2,0.3,2.9,0.2c0.8,0,1.5-0.1,2.2-0.3c0.9,1.5,3.2,2.8,6.5,2.8c0.7,0,1.2-0.1,1.8-0.2
		c1,2,4.2,3.6,8.1,3.5c0.3,0,0.6,0,0.9-0.1c0,0.1,0.1,0.2,0.1,0.3c1.1,2.3,4.2,4,8.3,4c0.1,0,0.3,0,0.4,0c0,0.1,0,0.1,0,0.2
		c0,4.9,4.1,7.3,8.6,7.3c0.9,0,1.9-0.1,2.8-0.3c-0.1,1.4-0.2,2.9-0.2,4.3c-0.1,3.1,0,6.3-0.2,9.4c-0.2,3.1-0.6,6.1-1.7,9
		c-3.7,10.2-11,16.1-18.3,20c-0.1,0.1-0.1,0.2-0.1,0.3c0.1,0.1,0.2,0.2,0.3,0.1c10.3-5.2,17.1-11.9,19.9-19.7
		c1.1-3.1,1.5-6.4,1.5-9.5c0-3.2-0.3-6.3-0.5-9.5c-0.1-1.5-0.2-3-0.1-4.4c3.4-0.9,6.6-2.8,8.9-3.4c0.6,2,1,4.5,1.1,7
		c0,3.5-0.2,7-0.7,10.4c-1.7,0.2-3,1.2-3,2.4c0,1.1,0.9,1.4,1.9,1.4c0.1,0,0.2,0,0.3,0c-0.3,1.4-0.8,2.8-1.2,4.2
		c-0.9,2.6-2.1,5.1-3.6,7.4c-2.2,0.1-4,1-4,2.4c0,0.7,0.4,1.2,1,1.5c-1.2,1.4-2.5,2.7-3.9,3.9c-0.9,0.7-1.8,1.4-2.7,2.1
		c-0.7-0.1-1.4-0.2-2-0.2c-1.5,0-2.8,0.5-2.8,1.6c0,0.4,0.2,0.9,0.8,1.2c-2.5,1.4-5.2,2.7-7.8,3.7c-0.1-0.1-0.2-0.1-0.3-0.1
		c-0.6-0.3-1.3-0.4-2.1-0.4c-1.2,0-1.9,0.5-1.9,1.3c0,0.3,0.1,0.5,0.3,0.7c-5.2,1.7-10.5,3-15.9,4c-0.1,0-0.2,0.2-0.2,0.3
		c0,0.1,0.2,0.2,0.3,0.2c5.5-1,11-2.3,16.3-4.1c0.7,0.5,1.8,0.8,3,1C111.4,123.2,112.1,123.3,112.9,123.4L112.9,123.4 M42.7,121.8
		c-0.1,0-0.1,0-0.2,0c-0.8,0.2-1.6,0.2-2.4,0.3c-0.4,0-0.8,0-1.2,0c0.1-0.2,0.3-0.5,0.5-0.7c0.2-0.2,0.5-0.4,0.7-0.6
		C41,121.2,41.8,121.6,42.7,121.8 M43.5,121.4c0,0-0.1,0.1-0.2,0.1c-0.9-0.3-1.8-0.6-2.6-1c0.2-0.1,0.5-0.2,0.7-0.3
		c0.2-0.1,0.5-0.1,0.8-0.1c1,0,1.5,0.3,1.5,0.7C43.7,121.1,43.7,121.3,43.5,121.4 M25.6,117.1c0-0.1,0-0.2,0-0.3
		c1.6,0.4,3.6,0.6,5.1,0.4c0.4-0.1,0.7-0.1,1.1-0.3c2.5,1.4,5,2.6,7.7,3.7c-0.5,0.3-1.1,0.8-1.5,1.5C31.1,122,25.6,119.4,25.6,117.1
		 M31.1,116.5c-0.1,0-0.3,0-0.4,0c-1.5,0.1-3.1-0.3-4.5-0.8c0.2-0.2,0.4-0.4,0.7-0.6c0.4-0.3,0.8-0.5,1.3-0.6
		C29.1,115.3,30.1,115.9,31.1,116.5 M28.8,114.4c0.4-0.1,0.8-0.1,1.3-0.1c1.8,0,2.7,0.6,2.7,1.2c0,0.4-0.2,0.7-0.9,0.9
		C30.8,115.7,29.8,115.1,28.8,114.4 M15.5,106.8L15.5,106.8c0.8,0.4,1.6,0.8,2.5,1.1c0.8,0.3,1.7,0.4,2.6,0.4c0.2,0,0.3,0,0.5-0.1
		c1.6,1.9,3.3,3.5,5.1,4.9c0.5,0.4,1,0.7,1.5,1.1c-0.8,0.3-1.7,0.8-2.2,1.3C21.7,114,15.5,109.4,15.5,106.8 M20.7,107.6
		C20.6,107.6,20.6,107.7,20.7,107.6c-0.8,0-1.6-0.2-2.4-0.5c-0.9-0.4-1.7-0.9-2.4-1.5c0.5-0.7,1.4-1.1,2.4-1.2
		C19.1,105.6,19.8,106.6,20.7,107.6 M19,104.4c1.9,0,3.4,1,3.4,2.1c0,0.5-0.3,1-1,1.1C20.5,106.6,19.7,105.5,19,104.4 M9.1,93
		c0-1.1,0.2-1.8,0.6-2.4c0.9,0.8,2,1.6,3.4,1.9c0.5,1.8,1,3.5,1.8,5.3c0.9,2.3,1.9,4.3,3.1,6.2c-1,0.2-1.9,0.6-2.6,1.2
		C12.6,102.7,9.1,97.5,9.1,93 M13,91.7c-0.9-0.4-1.6-1-2.3-1.9c0.5-0.3,1.1-0.5,1.8-0.6C12.6,90.1,12.8,90.9,13,91.7 M12.9,89.2
		c1.5,0,2.7,0.8,2.7,1.8c0,0.5-0.5,0.9-1.2,1c-0.3,0-0.5,0-0.8-0.1C13.3,91,13.1,90.1,12.9,89.2 M5.8,77.3c0-2.3,0.6-3.6,1.5-4.5
		c1.1-1.1,2.6-1.5,4.2-1.5c0.5,0,0.9,0,1.1,0.1c-0.6,2-1,5.1-1,8.6c0,3.1,0.3,6,0.8,8.8c-0.8,0-1.5,0.2-2.1,0.6
		C7.5,86,5.8,81,5.8,77.3 M17.3,66.9c2.6,0,4,2.4,4.5,5.9c-1.6-0.6-3.2-1.2-5-1.7c-1.2-0.3-2.4-0.5-3.6-0.6
		C14.4,67.9,15.8,66.9,17.3,66.9 M26.6,63.5c0-0.7,0.6-1.2,1.7-1.2c2.2,0,4.3,1.7,5,4.1C29.2,66.3,26.6,65,26.6,63.5 M38.3,59.3
		c0-0.7,0.6-1.2,1.6-1.2c1.9,0,3.5,1.8,3.5,3.5v0.1C40.4,61.5,38.3,60.6,38.3,59.3 M48.2,56.4c0-0.6,0.4-0.9,1-0.9
		c1.2,0,2.5,1,2.4,2.6c0,0.1,0,0.2,0,0.3C49.5,58.2,48.2,57.4,48.2,56.4 M57.7,54.5c0-0.4,0.2-0.6,0.7-0.6c0.7,0,1.5,0.7,1.5,1.6
		c0,0.3,0,0.6-0.1,0.8C58.2,55.9,57.7,55.1,57.7,54.5 M74.3,54.5c0-0.9,0.6-1.4,1.4-1.4c0.8,0,1.4,0.5,1.4,1.4c0,0.8-0.5,1.6-1.4,2
		C74.8,56.1,74.3,55.3,74.3,54.5 M91,56c0-1.3,0.9-2,1.9-2c0.5,0,0.9,0.2,0.9,0.6c0,0.6-0.7,1.4-2.6,1.8c-0.1,0-0.1,0-0.1,0
		C91,56.3,91,56.1,91,56 M102.1,55.8c0.6,0,1.1,0.3,1.1,0.9c0,1.1-1.5,2-3.6,2.3c0-0.1,0-0.2,0-0.4C99.5,57,100.6,55.7,102.1,55.8
		 M111.8,58.4c1,0,1.6,0.4,1.6,1.2c0,0.8-0.9,2.1-4.9,2.5c0-0.1,0-0.2,0-0.3C108.6,59.8,110,58.4,111.8,58.4 M119.7,63.3
		c0.7-0.6,1.5-1,2.4-1.1c0.3-0.1,0.6-0.1,0.9-0.1c1.1,0,1.6,0.5,1.6,1.1c0,1.5-2.2,3-6.9,3.1C118.1,65,118.7,64,119.7,63.3
		 M133.7,67.2c1.7,0,2.9,0.9,3.8,3c-2.6,0.3-5.3,1.6-7.5,2.5c-0.3,0.1-0.5,0.2-0.8,0.3C129.9,68.8,131.7,67.2,133.7,67.2 M137.7,92
		c-0.2,0-0.4,0.1-0.6,0.1c-0.9,0-1.3-0.4-1.3-1c0-0.7,0.9-1.8,2.5-1.9C138.1,90.2,137.9,91.1,137.7,92 M138.8,89.2
		c0.9,0,1.6,0.3,2.1,0.7c-0.9,0.9-1.8,1.6-2.7,1.9C138.5,91,138.7,90.1,138.8,89.2 M143.6,72.2c1.4,1.1,1.9,2.8,2,4.8
		c0,3.1-0.7,8.4-4.1,12.4c-0.7-0.5-1.6-0.7-2.5-0.7c0.5-3.4,0.7-6.9,0.6-10.4c-0.1-2.4-0.4-5-1.1-7.1c0.5-0.1,1.1-0.2,1.6-0.2
		C141.3,71.1,142.7,71.5,143.6,72.2 M147.3,78.7c0-4-2.6-8.5-9-8.5c-0.1,0-0.2,0-0.3,0c-0.9-2.1-2.2-3.4-4.3-3.4
		c-3.2,0-4.6,3.7-5.1,6.4c-1.6,0.5-3.1,0.7-4.1,0.7c-4.3,0-7-2.5-7-6.1c0,0,0,0,0-0.1c3.9-0.3,7.7-2.1,7.7-4.6
		c0-1.1-0.9-1.7-2.2-1.6c-2.4,0-5.1,1.8-5.9,4.6c-0.3,0-0.7,0-1,0c-1.8-0.1-3.6-0.4-5.1-1.2c-0.8-0.4-1.5-0.9-1.9-1.6
		c2.5-0.5,5-2.1,4.9-3.8c0-1-0.9-1.7-2.2-1.7c-2.4,0-4,1.8-4,3.9c0,0.1,0,0.1,0,0.2c-0.7,0-1.5,0.1-2.2,0c-0.9-0.1-1.8-0.2-2.6-0.4
		c-0.9-0.2-1.7-0.6-2.4-1.1c-0.3-0.2-0.5-0.4-0.7-0.6c0,0,0,0,0.1,0c2.1-0.6,3.5-1.8,3.5-3.2c0-0.9-0.6-1.4-1.6-1.4
		c-1.7,0-3.2,1.4-3.3,3.4c0,0.1,0,0.2,0,0.2c-0.2,0-0.4,0-0.7,0c-3,0-5.6-0.5-6.6-1.7c1.4-0.5,2.7-1.4,2.7-2.6
		c0-0.7-0.5-1.1-1.4-1.1c-1.3,0-2.4,1-2.4,2.5c0,0.2,0,0.3,0,0.5c-1.5,0.3-3.1,0.3-4.6,0.1c-1.7-0.3-3.5-1-4.6-2.4l0,0v-0.2
		l-0.1,0.4c-0.4,1.4-1.5,2.4-3.3,2.5c-0.4,0-0.8,0-1.3-0.1c0.7-0.5,1.3-1.2,1.3-2.2c0-1.2-0.9-1.9-1.9-1.9c-1.1,0-1.9,0.8-1.9,1.9
		c0,1,0.5,1.7,1.3,2.2c-0.4,0.1-0.8,0.1-1.1,0.1c-1.9,0-3.1-0.9-3.5-2.2l0,0l-0.1-0.3l-0.3,0.3c-2.4,2.3-5.9,2.7-9,2.2
		c-0.3,0-0.5-0.1-0.8-0.2c0.1-0.3,0.1-0.6,0.1-0.8c0-1.4-1-2.1-2-2.1c-0.7,0-1.2,0.4-1.2,1.1c0,1.2,1.2,2,2.1,2.4
		c-0.8,0.9-2.3,1.2-3.7,1.4c-1.3,0.2-2.3,0.2-3.5,0.1c0-0.1,0-0.3,0-0.4c0-1.5-1.1-3-2.9-3c-0.9,0-1.5,0.5-1.5,1.4
		c0,1.4,1.7,2.5,3.3,3c-0.9,1.1-2.9,2.1-5.7,2.3c-0.4,0-0.9,0-1.3,0c0-2.2-1.9-4.1-4.2-4.1c-1.3,0-2.1,0.7-2.1,1.7
		c0,2,2.8,3.4,5.1,3.8c-1.1,1.6-4,3-8.5,3.2c-0.1,0-0.3,0-0.4,0c-0.7-2.3-2.7-4.5-5.7-4.5c-1.3,0-2.2,0.7-2.2,1.7
		c0,2.4,3.4,4.2,7.5,4.5c0,0.1,0,0.1,0,0.2c0,3.4-2,5.7-6,5.7c-2.1,0-3.7-0.4-4.9-0.9c-0.5-2.9-1.7-6.5-5.2-6.5
		c-1.9,0-3.5,1.3-4.5,4c-0.4,0-0.7,0-1.1,0c-4.3,0.3-7.3,3-7.3,8.6c0,3.5,1.6,7.8,4.8,11c-0.9,1-1.5,2.4-1.5,4.1c0,4.6,3.6,9.6,7,12
		c-0.1,0.3-0.2,0.7-0.2,1.2c0,4.2,5.1,7.8,10.1,9.2c0,0.1,0,0.1-0.1,0.2c-0.1,0.3-0.1,0.6-0.1,0.8c0.1,2.7,3.7,5.2,10.4,5.6
		c0.9,0,1.7,0.1,2.6,0c0,0.2,0,0.3,0,0.6c0,2.2,2,4.2,6,4.2c3.6,0,6.7-1.4,10-1.5c0.8,0,1.8,0,2.5,0.3c0.1,0,0.1,0.1,0.2,0.1
		c0,0,0,0.1-0.1,0.1c-2.9,0.5-5.2,1.2-5.2,3c0,1.3,1.2,2.1,2.9,2.1c0.9,0,1.6-0.2,2.4-0.5c1.6-0.6,3.1-1.4,4.6-2.1
		c1.5-0.7,3.1-1.1,4.7-1.4c1.6-0.2,3.3-0.1,5,0.1c0.8,0.1,1.7,0.3,2.4,0.5c0.2,0.1,0.5,0.2,0.7,0.3l0,0c-0.1,0-0.1,0-0.2,0
		c-0.2,0-0.6-0.1-0.7-0.1c-1.6-0.3-3.3-0.5-5-0.5c-1,0-1.9,0.1-2.9,0.3c-0.5,0.1-0.9,0.3-1.4,0.6c-0.2,0.2-0.4,0.4-0.5,0.7
		c-0.1,0.3-0.1,0.6,0,0.9c0.2,0.6,0.7,1,1.1,1.3c0.5,0.3,1,0.5,1.5,0.6c1,0.2,2,0.2,3,0.1c2-0.3,3.7-1.1,5.5-1.5
		c0.9-0.2,1.8-0.3,2.7-0.1c0.9,0.1,1.8,0.4,2.7,0.7c0.9,0.3,1.8,0.6,2.7,0.8c0.5,0.1,1,0.2,1.5,0.2s1,0,1.5,0c1-0.1,2-0.4,2.9-1.1
		c0.2-0.2,0.4-0.4,0.5-0.7c0.1-0.2,0.1-0.4,0.1-0.6c0-1.6-2.6-2-4.9-2c-0.7,0-1.3,0-1.9,0.1c-0.9,0.1-1.9,0.2-2.8,0.3
		c-0.2,0-1.1,0.1-1.3,0.1l0,0c0.2-0.1,0.7-0.2,0.9-0.2c1.8-0.4,3.8-0.6,5.6-0.7c1.9-0.1,3.7,0.1,5.5,0.7c0.9,0.3,1.7,0.6,2.5,1
		c0.8,0.4,1.6,0.9,2.5,1.3c0.9,0.4,1.9,0.9,3,0.9c1.5,0,2.6-0.9,2.6-2c0-1-0.7-1.6-1.8-2c-0.9-0.3-1.9-0.4-2.8-0.6
		c-0.2,0-0.3-0.1-0.3-0.1c0-0.1,0.2-0.2,0.4-0.3c0.4-0.2,0.9-0.2,1.3-0.3c0.9,0,1.8,0.1,2.8,0.2c1.8,0.3,3.6,0.9,5.6,1.1
		c1,0.1,1.9,0.2,2.9,0.1c1-0.1,2-0.3,3-0.8c0.9-0.5,1.8-1.3,2.2-2.3c0.2-0.5,0.3-1.1,0.3-1.6c0,0,0,0,0-0.1c3.2,0.1,6.3-0.4,8.5-1.2
		c2.8-1,4.8-2.9,4.8-4.9c0-0.4-0.1-0.8-0.3-1.2c0.9-0.3,1.9-0.7,2.8-1.1c0.9-0.4,1.7-0.9,2.6-1.4c0.8-0.5,1.6-1.1,2.4-1.8
		c0.7-0.7,1.4-1.5,1.9-2.4c0.4-0.7,0.6-1.4,0.6-2.5c0-0.4-0.1-0.7-0.2-1c4-3.1,6.8-8.2,6.8-12.3c0-1.7-0.4-2.8-1.2-3.7
		C145.1,87.2,147.3,83.3,147.3,78.7"/>
	<path d="M120.6,92.6c-0.7,15.6-19.1,28-44.7,28.1c-25.6,0-44.1-12.5-44.8-28.1C30.4,77.3,47.3,63,75.8,62.7
		C104.4,63,121.3,77.3,120.6,92.6 M30.4,92.6c0.8,17.7,20.4,30.3,45.4,30.3s44.6-12.6,45.4-30.3c0.8-17.4-17.4-32-45.4-32.3
		C47.8,60.6,29.6,75.2,30.4,92.6"/>
	<path d="M67.7,74.6c-1.2,0-2.1-0.9-2.1-2.3c0-1.4,0.8-2.3,2.1-2.3c1.3,0,2.1,0.8,2.1,2.3C69.8,73.4,69.2,74.6,67.7,74.6 M67.7,68.6
		c-2.3,0-3.6,1.6-3.6,3.7c0,2.1,1.3,3.7,3.6,3.7c2.3,0,3.6-1.6,3.6-3.6C71.3,70.2,70,68.6,67.7,68.6"/>
	<path d="M79.5,74.5L79.5,74.5h-4.1v-5.3c0-0.3,0.2-0.6,0.2-0.6h-1.9c0,0,0.2,0.3,0.2,0.6v6.1c0,0.3-0.2,0.6-0.2,0.6h0.2h1.6h4.3
		l0.2-1.3l0,0v-0.3C80.1,74.3,79.8,74.5,79.5,74.5"/>
	<path d="M84.5,74.5h-1.2V70h1.2c1.6,0,2.2,0.8,2.2,2.3C86.8,73.6,86.1,74.5,84.5,74.5 M84.6,68.7h-2.9c0,0,0.2,0.3,0.2,0.6v6.1
		c0,0.3-0.2,0.6-0.2,0.6h1.8h1.2c2,0,3.7-1.1,3.7-3.6C88.3,69.9,86.9,68.7,84.6,68.7"/>
	<path d="M56.4,110c-0.8-0.2-2.3-0.5-2.3-0.5v-1.9c0,0,1.6,0.1,2.4,0.2c0.9,0.1,1,0.6,1,1.3C57.4,109.8,57.3,110.2,56.4,110
		 M57.1,105.6c0,0.6,0,1-0.9,0.9c-0.7,0-1.4-0.1-2.1-0.1v-1.8c0,0,1.4,0,2.1,0C57,104.7,57.1,105.1,57.1,105.6 M58.1,107.1
		c0.5-0.4,0.8-0.8,0.8-1.5c0-1.5-0.8-2.2-2.4-2.1c-0.9,0-2,0-2.9,0c-0.4,0-0.8,0-1.2,0v6.9c1.3,0.4,2.6,0.8,3.9,1.1
		c1.7,0.4,2.8-0.3,2.8-2.1C59.2,108.1,58.8,107.4,58.1,107.1"/>
	<path d="M65.8,107.5c-0.7,0-1.6,0-2.3,0c0-0.8,0-1.7,0-2.5c0.6,0,1.6,0,2.3,0.1c0.9,0,1.3,0.4,1.3,1.2
		C67.1,107,66.7,107.5,65.8,107.5 M68.4,111.9c-0.4-0.7-1.1-2.4-1.4-3.1h-1.9c0.5,1.3,1,2.6,1.5,3.5c0.6,1.1,1.2,1.4,2,1.5
		c0.6,0,0.9-0.1,0.9-0.1v-1.2C69,112.5,68.8,112.4,68.4,111.9 M66.8,108.8c1.5-0.4,2.2-1.4,2.2-2.7c0-1.9-1.1-2.7-2.8-2.7
		c-1.4,0-3.1,0-4.5,0c0,3,0,6.1,0,9.1c0.6,0.1,1.2,0.2,1.8,0.3c0-1.3,0-2.7,0-4c0.3,0,1,0.1,1.3,0.1l1,0.1"/>
	<path d="M75.7,109.9c-0.4-0.2-0.9-0.5-1.2-0.8l1.1-3.4l1.2,3.4C76.5,109.3,76.1,109.6,75.7,109.9 M78.6,113.9c0.6,0,1.5,0,2.1-0.1
		l-3.9-10.4h-2.3l-3.7,10.3c0.6,0.1,1.4,0.1,2,0.1l1.1-3.2c0.5,0.4,1.1,0.8,1.7,1.1c0.6-0.3,1.2-0.8,1.7-1.1L78.6,113.9z"/>
	<path d="M88,103.4c0,1.9,0,4,0.1,5.6l-3.8-5.6h-1.9l0.1,10.2c0.6,0,1.2-0.1,1.7-0.1c0-2.3,0-4.7-0.1-6.7l4.3,6.2
		c0.5-0.1,1-0.2,1.5-0.2c0-3.1-0.1-6.2-0.1-9.3C89.1,103.4,88.5,103.4,88,103.4"/>
	<path d="M95.6,110c-0.4,0.1-0.4,0.1-0.8,0.1c0-1.7,0-3.5,0-5.2c0.4,0,0.6,0,1,0c1.9,0,2.6,0.5,2.6,2.2
		C98.3,108.7,97.4,109.6,95.6,110 M96.1,103.4h-3.3c0,0,0.2,0.3,0.2,0.7c0,2.4,0.1,4.8,0.1,7.3c0,0.4-0.2,0.7-0.2,0.7
		c0.1,0,0.2,0,0.2-0.1c0.6-0.1,1.1-0.2,1.7-0.4h0.1l0,0c0.4-0.1,0.4-0.1,0.8-0.2c2.8-0.7,4.3-1.9,4.3-4.6
		C100,104.5,98.8,103.4,96.1,103.4"/>
	<path d="M79.1,84.1v5.6c0,1.5-1,2.8-2.5,2.8s-2.5-1.2-2.5-2.8v-5.6c0-1.6,0.5-2.9,2.5-2.9C78.7,81.2,79.1,82.5,79.1,84.1 M68.9,87
		c0,3.5,3.1,6.5,7.6,6.5c4.1,0,7.7-2.4,7.7-6.5c0-4.2-3.8-6.8-7.7-6.8C72.8,80.2,68.9,82.8,68.9,87"/>
	<path d="M74.4,97.6c0,1.1,1,2,2.2,2c1.2,0,2.2-0.9,2.2-2s-1-2-2.2-2C75.4,95.6,74.4,96.5,74.4,97.6"/>
	<path d="M49.2,85.4l9.3,13.2h6.8l-1-1.4V83.9c0-1.9,0.7-2.9,1.9-3.2h0.2v-0.2h-6v0.2h0.2c1.1,0.4,1.9,1.3,1.9,3.2v10.5l-9.9-14
		h-7.7c1.3,1.4,2.3,2.9,2.3,4c0,2.9,0,10.6,0,10.6c0,1.9-0.7,2.9-1.9,3.2h-0.2v0.2h6v-0.2h-0.2C49.8,97.8,49,96.9,49,95L49.2,85.4z"
		/>
	<path d="M108.3,81c0-0.4,0-0.6-0.3-0.8c-0.5,0.3-1,0.6-1.7,0.8c-2.4,0.5-4.9-0.6-6.8-0.9c-1.1-0.2-2.6-0.2-3.6,0
		c-2.4,0.6-3.3,0.3-3.5-0.4c-0.1,0-0.6,0-0.6,0l-1.5,7.1h0.6c0.6-1.2,1.5-1.8,2.8-1.8c1.5,0,2.8,0.8,4.8,0.8c1,0,2.6-0.2,4.1-0.9
		c0,0,0,0,0.1,0l0.1,0.1c-0.3,1-9.1,4.2-9.1,9.8c0,2.1,1.2,4.6,5.4,4.6c5.6,0,6.4-4.9,5.3-6.3c-0.6,0.6-1.2,0.9-2.1,0.9
		c-1,0-1.8-0.5-1.8-2C100.5,88,108.3,83.5,108.3,81"/>
</g>
</svg>
