<?xml version="1.0" encoding="utf-8"?>
<!-- Generator: Adobe Illustrator 15.0.0, SVG Export Plug-In . SVG Version: 6.00 Build 0)  -->
<!DOCTYPE svg PUBLIC "-//W3C//DTD SVG 1.1//EN" "http://www.w3.org/Graphics/SVG/1.1/DTD/svg11.dtd">
<svg version="1.1" id="Capa_1" xmlns="http://www.w3.org/2000/svg" xmlns:xlink="http://www.w3.org/1999/xlink" x="0px" y="0px"
	 width="154.3px" height="132.7px" viewBox="0 0 154.3 132.7" style="enable-background:new 0 0 154.3 132.7;" xml:space="preserve"
	>
<style type="text/css">
<![CDATA[
	.st0{fill:#FFFFFF;}
]]>
</style>
<g>
	<path d="M151.7,96.4H97.1c17.8-7.7,30.2-25.6,30.2-46.2C127.3,22.5,104.9,0,77.2,0C49.4,0,26.9,22.5,27,50.2
		c0,20.9,13,38.6,31.2,46.2H2.6C1.2,96.4,0,97.6,0,99v33.7c0.8-1.5,2.3-2.5,4-2.5l146.3-0.1c1.7,0,3.3,1,4,2.5l0,0V99
		C154.3,97.6,153.2,96.4,151.7,96.4"/>
	<path class="st0" d="M120.8,40.7c-0.6-2.9-1.5-5.7-2.6-8.3c-1.1-2.6-2.5-5.2-4.1-7.5c-1.6-2.4-3.4-4.6-5.4-6.6
		c-2-2-4.2-3.8-6.6-5.4c-2.4-1.6-4.9-3-7.6-4.1c-2.7-1.1-5.5-2-8.4-2.6c-2.9-0.6-5.9-0.9-9-0.9c-3,0-6,0.3-9,0.9
		c-2.9,0.6-5.7,1.5-8.4,2.6c-2.6,1.1-5.2,2.5-7.6,4.1c-2.4,1.6-4.6,3.4-6.6,5.4c-2,2-3.8,4.2-5.4,6.6c-1.6,2.4-3,4.9-4.1,7.5
		c-1.1,2.7-2,5.5-2.6,8.3c-0.6,2.9-0.9,5.9-0.9,9c0,3,0.3,6,0.9,9c0.6,2.9,1.5,5.7,2.6,8.3c1.1,2.6,2.5,5.2,4.1,7.5
		c1.6,2.4,3.4,4.6,5.4,6.6c2,2,4.2,3.8,6.6,5.4c2.1,1.4,4.3,2.7,6.6,3.7l0.9-2.1c-2.2-1-4.3-2.2-6.3-3.5c-2.2-1.5-4.3-3.2-6.3-5.2
		c-1.9-1.9-3.6-4-5.2-6.2c-1.5-2.3-2.8-4.7-3.9-7.2c-1.1-2.5-1.9-5.2-2.5-7.9c-0.6-2.8-0.9-5.6-0.9-8.5c0-2.9,0.3-5.7,0.9-8.5
		c0.6-2.7,1.4-5.4,2.5-7.9c1.1-2.5,2.4-4.9,3.9-7.2c1.5-2.2,3.3-4.3,5.2-6.2c1.9-1.9,4-3.6,6.3-5.2c2.3-1.5,4.7-2.8,7.2-3.9
		c2.6-1.1,5.2-1.9,7.9-2.5c2.8-0.6,5.7-0.9,8.5-0.9c2.9,0,5.7,0.3,8.5,0.9c2.7,0.6,5.4,1.4,7.9,2.5c2.5,1.1,4.9,2.4,7.2,3.9
		c2.2,1.5,4.3,3.2,6.3,5.2c1.9,1.9,3.6,4,5.2,6.2c1.5,2.3,2.8,4.7,3.9,7.2c1.1,2.5,1.9,5.2,2.5,7.9c0.6,2.8,0.9,5.6,0.9,8.5
		c0,2.9-0.3,5.7-0.9,8.5c-0.6,2.7-1.4,5.4-2.5,7.9c-1.1,2.5-2.4,4.9-3.9,7.2c-1.5,2.2-3.2,4.3-5.2,6.2s-4,3.6-6.3,5.2
		c-2,1.3-4.1,2.5-6.3,3.5l0.9,2.1c2.3-1,4.5-2.3,6.6-3.7c2.4-1.6,4.6-3.4,6.6-5.4c2-2,3.8-4.2,5.4-6.6c1.6-2.4,3-4.9,4.1-7.5
		c1.1-2.7,2-5.5,2.6-8.3c0.6-2.9,0.9-5.9,0.9-9C121.7,46.6,121.4,43.6,120.8,40.7"/>
	<path class="st0" d="M106.1,78.5c1.8-1.8,3.5-3.9,5-6c1.5-2.2,2.7-4.5,3.8-6.9c1-2.5,1.8-5,2.4-7.7c0.6-2.7,0.8-5.5,0.8-8.2
		c0-2.8-0.3-5.5-0.8-8.2c-0.5-2.6-1.3-5.2-2.4-7.7c-1-2.4-2.3-4.7-3.8-6.9c-1.5-2.2-3.1-4.2-5-6c-1.8-1.8-3.9-3.5-6-5
		c-2.2-1.5-4.5-2.7-6.9-3.8c-2.5-1-5-1.8-7.7-2.4c-2.7-0.5-5.5-0.8-8.2-0.8c-2.8,0-5.5,0.3-8.2,0.8c-2.6,0.5-5.2,1.3-7.7,2.4
		c-2.4,1-4.8,2.3-6.9,3.8c-2.2,1.5-4.2,3.1-6,5c-1.8,1.8-3.5,3.9-5,6c-1.5,2.2-2.7,4.5-3.8,6.9c-1,2.5-1.8,5-2.4,7.7
		c-0.6,2.7-0.8,5.5-0.8,8.2c0,2.8,0.3,5.5,0.8,8.2c0.5,2.6,1.3,5.2,2.4,7.7c1,2.4,2.3,4.7,3.8,6.9c1.5,2.2,3.1,4.2,5,6
		c1.8,1.8,3.9,3.5,6,5c1.9,1.3,3.9,2.4,6,3.4l0.3-0.7c-2.1-0.9-4-2-5.9-3.3c-2.1-1.4-4.1-3.1-5.9-4.9c-1.8-1.8-3.5-3.8-4.9-5.9
		c-1.4-2.1-2.7-4.4-3.7-6.8c-2.1-4.9-3.2-10.2-3.2-15.6s1.1-10.7,3.2-15.6c1-2.4,2.3-4.7,3.7-6.8c1.4-2.1,3.1-4.1,4.9-5.9
		c1.8-1.8,3.8-3.5,5.9-4.9c2.1-1.4,4.4-2.7,6.8-3.7c4.9-2.1,10.2-3.1,15.6-3.1c5.4,0,10.7,1.1,15.6,3.1c2.4,1,4.7,2.2,6.8,3.7
		c2.1,1.4,4.1,3.1,5.9,4.9c1.8,1.8,3.5,3.8,4.9,5.9c1.4,2.1,2.7,4.4,3.7,6.8c2.1,4.9,3.2,10.2,3.2,15.6s-1.1,10.6-3.2,15.6
		c-1,2.4-2.3,4.7-3.7,6.8c-1.4,2.1-3.1,4.1-4.9,5.9c-1.8,1.8-3.8,3.5-5.9,4.9c-1.9,1.3-3.9,2.4-5.9,3.3l0.3,0.7
		c2.1-0.9,4.1-2.1,6-3.4C102.2,82,104.3,80.3,106.1,78.5"/>
</g>
<polygon class="st0" points="76,25.2 72.2,25.2 72.2,27.6 76,27.6 76,36.4 78.4,36.4 78.4,27.6 82.3,27.6 82.3,25.2 78.4,25.2 
	78.4,21.4 76,21.4 "/>
<g>
	<path class="st0" d="M65.2,43c0-0.1,0-0.3,0-0.4c0-0.3,0-0.5,0-0.8c-1.2,1.6-2.5,3.2-3.8,4.9c0.1,0.3,0.3,0.6,0.4,0.8
		C62.9,46,64,44.5,65.2,43"/>
	<path class="st0" d="M67.2,40.4c3.8-5,6.9-9.1,8-10.6V29c-0.3,0.4-3.9,4.9-8.4,10.8c0.1,0.1,0.2,0.3,0.3,0.5
		C67.1,40.3,67.1,40.4,67.2,40.4"/>
	<path class="st0" d="M74.7,28.4H74L59.4,39.6c0.1,0.2,0.2,0.4,0.3,0.7L74.7,28.4z"/>
	<path class="st0" d="M55.3,43.7l2.3-1.8c0-0.3,0-0.6-0.1-0.9l-2.2,1.7C55.3,43,55.3,43.4,55.3,43.7"/>
	<path class="st0" d="M53,36.9l0.8-0.4c0.1-0.4,0.3-0.7,0.5-1l-0.8,0.3c-0.1,0.3-0.3,0.5-0.4,0.8C53.1,36.7,53,36.8,53,36.9"/>
	<path class="st0" d="M72.7,28.4h-1.1l-15.2,6.2c0,0.1-0.1,0.5-0.1,0.8L72.7,28.4z"/>
	<path class="st0" d="M54.8,29.8c0.3-0.3,0.6-0.6,0.9-0.9c0,0,0,0,0,0l-5.5,0.7c0,0.3,0.1,0.6,0.2,0.8L54.8,29.8z"/>
	<path class="st0" d="M58.5,29.3l12.8-1.8v-0.5l-12.2,1.6c-0.1,0.2-0.3,0.4-0.5,0.7C58.6,29.2,58.6,29.2,58.5,29.3"/>
	<path class="st0" d="M46.4,31l1-0.1c0-0.3-0.1-0.6-0.1-0.9l-1,0.1c0,0.2,0,0.4,0.1,0.6C46.3,30.8,46.3,30.9,46.4,31"/>
	<path class="st0" d="M50.8,23.3C50.8,23.4,50.8,23.4,50.8,23.3l20.6,2.6v-0.5L51,22.6c0,0,0,0,0,0C50.9,22.9,50.8,23.1,50.8,23.3"
		/>
	<path class="st0" d="M68.3,48.1c0,0.2,0.1,0.5,0.2,0.8l6.7-16.6V31l-7,16.5c0,0,0,0.1,0,0.1C68.3,47.8,68.3,47.9,68.3,48.1"/>
	<path class="st0" d="M74.1,53.7l2-16.5h-0.5l-2.3,16.4c0,0,0,0,0,0C73.5,53.7,73.8,53.7,74.1,53.7"/>
	<path class="st0" d="M89.3,43.1c1.1,1.4,2.2,2.9,3.3,4.4c0.1-0.2,0.3-0.5,0.4-0.8c0,0,0,0,0,0c-1.3-1.6-2.6-3.3-3.8-4.8
		c0,0.1,0,0.3,0,0.4C89.3,42.6,89.3,42.9,89.3,43.1"/>
	<path class="st0" d="M87.7,39.7c-4.6-5.8-8.1-10.3-8.4-10.7v0.7c1.2,1.6,4.2,5.6,8,10.6c0.1-0.1,0.1-0.2,0.2-0.3
		C87.5,39.9,87.6,39.8,87.7,39.7"/>
	<path class="st0" d="M96.9,42L96.9,42l2.4,1.9c0-0.3,0-0.7,0-1L97,41.1c0,0.2,0,0.3,0,0.5C96.9,41.7,96.9,41.8,96.9,42"/>
	<path class="st0" d="M80.4,28.4h-0.7l15,11.8c0.1-0.2,0.2-0.5,0.3-0.7L80.4,28.4z"/>
	<path class="st0" d="M99.7,29.8l4.4,0.6c0.1-0.2,0.1-0.5,0.2-0.8l-5.4-0.7C99.2,29.3,99.5,29.6,99.7,29.8"/>
	<path class="st0" d="M95.3,28.5L83,26.9v0.5l12.8,1.8c0,0,0-0.1-0.1-0.1C95.6,29,95.5,28.7,95.3,28.5"/>
	<path class="st0" d="M107.1,30.9l0.9,0.1c0.1-0.3,0.1-0.6,0.2-0.9l-1-0.1c0,0.2,0,0.4-0.1,0.5C107.2,30.7,107.1,30.8,107.1,30.9"/>
	<path class="st0" d="M103.5,22.6C103.5,22.6,103.5,22.6,103.5,22.6L83,25.4v0.5l20.6-2.5c0-0.1,0-0.2-0.1-0.3
		C103.5,23,103.5,22.8,103.5,22.6"/>
	<path class="st0" d="M79.2,31v1.3L86,49c0.1-0.4,0.2-0.8,0.3-1.3L79.2,31z"/>
	<path class="st0" d="M81.2,53.6l-2.3-16.4h-0.5l2,16.5c0,0,0,0,0,0C80.7,53.7,80.9,53.6,81.2,53.6"/>
	<path class="st0" d="M39.4,54.9c0.1,0.4,0.1,0.9,0.2,1.3l11.8-9.3c-0.1-0.3-0.3-0.5-0.4-0.8L39.4,54.9z"/>
	<path class="st0" d="M39.9,41.4c-0.1,0.4-0.2,0.8-0.2,1.2l7.4-3.2c-0.2-0.2-0.4-0.5-0.5-0.8L39.9,41.4z"/>
	<path class="st0" d="M55.9,18C55.8,18,55.8,18,55.9,18l15.7,6.4h1.3l-16.2-6.9C56.3,17.7,56.1,17.9,55.9,18"/>
	<path class="st0" d="M61.5,14.9L74,24.4h0.8l-12.5-9.9C62,14.7,61.7,14.8,61.5,14.9"/>
	<path class="st0" d="M66.4,13l8.8,10.9v-0.7l-8.1-10.4C66.9,12.9,66.7,13,66.4,13"/>
	<path class="st0" d="M70.8,12l4.4,9.9v-1.2l-3.7-8.8C71.2,12,71,12,70.8,12"/>
	<path class="st0" d="M74.9,11.6l1.3,9h0.5l-1.2-9.1C75.3,11.5,75.1,11.6,74.9,11.6"/>
	<path class="st0" d="M114.9,56.2c0.1-0.4,0.1-0.9,0.2-1.3l-11.6-8.8c-0.1,0.3-0.3,0.6-0.4,0.8L114.9,56.2z"/>
	<path class="st0" d="M114.8,42.7c-0.1-0.4-0.2-0.8-0.2-1.2l-6.6-2.7c-0.2,0.2-0.4,0.5-0.6,0.7L114.8,42.7z"/>
	<path class="st0" d="M98.6,18C98.6,18,98.6,18,98.6,18c-0.3-0.2-0.5-0.3-0.8-0.5l-16.3,6.9h1.3L98.6,18z"/>
	<path class="st0" d="M79.7,24.4h0.8L93,14.9c-0.3-0.1-0.5-0.2-0.8-0.3L79.7,24.4z"/>
	<path class="st0" d="M79.2,23.3v0.7L88,13c-0.2-0.1-0.5-0.1-0.7-0.2L79.2,23.3z"/>
	<path class="st0" d="M79.2,20.7V22l4.4-10c-0.2,0-0.4-0.1-0.6-0.1L79.2,20.7z"/>
	<path class="st0" d="M77.8,20.6h0.5l1.3-9c-0.2,0-0.4,0-0.6,0L77.8,20.6z"/>
	<path class="st0" d="M57.1,52.1c-6.1,7.8-11.8,15-13,16.6c0.2,0.4,0.5,0.8,0.7,1.2c1.3-1.7,7-9.2,13.2-17.4c-0.1,0-0.2-0.1-0.3-0.1
		C57.5,52.3,57.3,52.2,57.1,52.1"/>
	<path class="st0" d="M54.3,80.2c0.4,0.3,0.7,0.5,1.1,0.8l6.8-16.7c-0.3-0.2-0.6-0.3-0.9-0.5L54.3,80.2z"/>
	<path class="st0" d="M96.4,52.5c6.2,8.2,12,15.8,13.2,17.4c0.2-0.4,0.5-0.8,0.7-1.2c-1.1-1.5-6.8-8.7-13-16.6
		c-0.1,0.1-0.3,0.1-0.4,0.2C96.8,52.4,96.6,52.4,96.4,52.5"/>
	<path class="st0" d="M92,63.8L99,81c0.4-0.3,0.7-0.5,1.1-0.8l-7.2-16.9C92.6,63.5,92.3,63.6,92,63.8C92,63.8,92,63.8,92,63.8"/>
	<path class="st0" d="M101.5,36.9c-0.1-0.3-0.3-0.7-0.4-1l-1-0.4c0.2,0.4,0.3,0.7,0.5,1L101.5,36.9z"/>
	<path class="st0" d="M98,35.4c0-0.2-0.1-0.5-0.1-0.8l-15.1-6.2h-1.1L98,35.4C98,35.4,98,35.4,98,35.4C98,35.4,98,35.4,98,35.4"/>
	<path class="st0" d="M70.9,64.5c-0.3-0.2-0.7-0.1-0.9,0.1c0.4,0.1,0.8,0.2,1.2,0.4C71.3,64.7,71.1,64.6,70.9,64.5"/>
	<path class="st0" d="M83.6,64.4c-0.3,0.1-0.5,0.3-0.6,0.6l0,0.1l0.1,0c0.3-0.1,1.1-0.3,1.2-0.3l0.1,0l0,0
		C84.1,64.4,83.9,64.3,83.6,64.4"/>
	<path class="st0" d="M78.7,79.3c0.5-0.1,1.8-0.3,2.1-1.3c-0.1,0-1,0.2-1.8,0.1c-2-0.4-3.2,0-4.1,0c-0.6,0-0.9,0-1.5-0.1
		c0,0.3,0.1,0.7,0.2,1c0.8,1.6,1.8,1.9,2.3,2c0.8,0.1,1.6,0,2.5-0.1c0.4-0.1,0.9-0.2,1.3-0.6c0.2-0.2,0.3-0.3,0.4-0.7
		c-0.1,0-1.3,0.6-2.5,0.4c-0.8-0.2-1.8-0.6-1.8-0.9C76.1,79.2,77.1,79.5,78.7,79.3"/>
	<path class="st0" d="M69.5,90.4c-0.1-0.2-2.2-1.8-2.6-4.2c-0.1-0.4-0.2-1.4-0.2-1.6c0,0,0,0,0,0c0,0,0,0,0,0
		c-1.5,3,0.7,6.4,2.9,7.1c-0.2-0.4-0.9-0.9-1-1.5C68.8,90.2,69.3,90.4,69.5,90.4"/>
	<path class="st0" d="M94.6,52c-0.1,0-3.3,1.1-3.4,1.1c-1.1,0.3-2.1,0.8-3.2,1.3c-1.8,1-2.2,1.6-2.3,1.7c0,0-0.1,0.1-0.1,0.3
		c0,0.1,0.1,0.1,0.2,0.3c0,0.1,0.1,0.2,0.2,0.3c0,0,0.1,0.1,0.2,0.2c0.3,0.1,0.6,0.1,0.9,0c0.5-0.1,1-0.3,1.5-0.5
		c0.8-0.3,1.6-0.5,2.4-0.6c0.2,0,0.3,0,0.5-0.1c0.6-0.1,1.3-0.2,1.9-0.3c0.5-0.1,1-0.3,1.5-0.4c0.2-0.1,0.5-0.1,0.7-0.2
		c0.1,0,0.2-0.1,0.4-0.1c0,0,0,0,0,0c0.2,1.3,0,2.5-0.6,3.7c-0.3,0.6-0.6,1-1.1,1.4l0,0c-0.2,0.2-0.5,0.5-0.7,0.7
		c-0.1,0.1-0.2,0.2-0.2,0.4c0,0.2-0.1,0.3,0,0.5c0,0,0,0.1,0,0.1c-0.2,0.1-1.6,0.7-2,0.8c-0.9,0.4-2.2,0.6-3,0.8
		c-0.3,0.1-0.6,0.1-0.9,0.2c-0.9,0.2-0.9,0.5-1.1,0.6c0-0.4,0-0.8,0-1.2c1.3,0,1.9-0.2,1.9-0.2s-0.5-0.4-1.1-0.7
		c0.1-0.1,0.2-0.1,0.2-0.1c2.1-1.1,2.2-1.4,3.9-3.9c0.1-0.1,0.2-0.2,0.3-0.3c0.9-0.2,1.6-0.4,2.5-0.6c0,0.3-0.7,1.4-1.2,1.9
		c-0.6,0.8-2.3,1.9-2.4,2c0.1,0,1-0.1,2.8-1.4c1.2-0.8,1.9-1.5,1.9-3.6c-0.4,0.1-0.3,0.1-0.7,0.2c-0.7,0.2-1.3,0.4-2,0.4
		c-2,0.2-3.3,1.1-3.8,1.6c-1.3,1.2-2.6,1.7-2.9,1.8v-0.3c0-0.3,0-0.6,0-1c0-0.2,0-0.5-0.1-0.7c-0.3-1.3-1.2-2.2-2.5-2.7
		c-0.4-0.1-1.3-0.1-1.3-0.1c0.4,0.1,1.9,0.4,1.9,0.6c-0.1,0-1.3-0.2-1.8-0.2c-0.8-0.1-1.5,0-2.2,0.2c-0.4,0.1-0.7,0.2-1.1,0.4
		c-0.8,0.2-1.5,0.3-2.3,0c-0.2-0.1-0.3-0.1-0.5-0.2c-0.4-0.2-1.4-0.3-1.9-0.4c0,0-0.1,0-0.2-0.1c0.5-0.2,1.5-0.1,1.9,0
		c-0.5-0.2-0.9-0.4-1.4-0.4c-1.2-0.1-2.4,0.1-3.6,0.6c-0.7,0.3-1.2,0.8-1.5,1.4c-0.8,1.4-0.5,2.7-0.5,3c-0.2-0.2-1.9-1.7-3.3-2.5
		c-1.3-0.8-1.9-0.5-6.7-1.9c-0.1,0.4,0.8,4.8,4.9,5.6c0.1,0,0.9,0.1,1,0.1c-2.1-0.8-4.3-3.9-4.6-4.5c0.1,0,0.2,0,0.2,0
		c0.9,0.2,1.8,0.5,2.7,0.7c0.2,0,0.2,0.2,0.3,0.3c1.8,3.4,3.9,3.8,4,3.9c-0.3,0.4-1,0.5-1.4,0.7c0.6,0.5,2,0.2,2.4,0.2
		c-0.1,0.5-0.3,1.1-0.2,1.5c-0.1,0-0.2,0-0.3-0.1c-0.4,0-1-0.1-1.5-0.1c-0.6,0-1.3-0.1-2-0.4c-0.8-0.3-1.5-0.7-2.3-1.2
		c-0.2-0.1-0.9-0.5-0.9-0.5c-0.3-0.2-0.3-0.4-0.3-0.4c0.1-0.7-0.3-1.1-0.6-1.4c-0.9-0.8-1.5-1.9-2-3.2c-0.2-0.7-0.3-1.4-0.1-2
		c0-0.1,0-0.2,0.1-0.2l0,0c0,0,0,0,0,0c0,0,0,0,0,0c0.3,0.1,0.6,0.2,0.9,0.2c0.6,0.2,1.3,0.4,1.9,0.5c0.5,0.1,1,0.2,1.5,0.3
		c0.2,0,0.4,0.1,0.7,0.1c0.2,0,0.4,0.1,0.7,0.1c0.5,0.1,1,0.2,1.5,0.2c0.3,0.1,0.7,0.2,1,0.4c0.1,0,1.1,0.5,1.6,0.7
		c0.2,0.1,0.2,0.1,0.3,0c0,0,0.1-0.2,0.1-0.2s0.5-0.7,0.5-1.1c0-0.1,0-0.1-0.2-0.2c-0.2-0.2-0.6-0.6-1.2-1c-0.1-0.1-0.2-0.2-0.4-0.3
		c-0.7-0.4-1.1-0.6-1.8-1c-0.9-0.5-1.8-0.8-2.8-1c-7.9-2.2-7.9-4.9-7.9-4.9c0,0,3,2.9,7,3.7c-1.6-2.5-1.7-3.8-1.7-4
		c0,0,2.9,4.6,7.5,5.3c-1.2-2.8-0.5-3.9-0.5-3.9s0.8,2.9,1.6,4.1c0.9,1.4,2.5,2,2.5,2c0,0,1-0.4,2.4-0.3c1.1,0.1,2.1,0.3,3.1,0.5
		c0.2,0.1,0.4,0.1,0.7,0.2c0.1,0,0.2,0.1,0.3,0.1c0.1,0,0.2,0,0.3,0c0.9-0.3,1.8-0.4,2.7-0.6c0.2,0,2.5-0.2,3.1-0.1
		c0.4,0.1,0.7,0.2,0.7,0.2l0.4-0.2c2.1-1.2,3.5-6.6,3.5-6.7c0.2,1.3,0,4.1-0.5,4.9c0.2,0.1,3.8-1.5,4.9-2.5c0.8-0.7,2.2-2.8,2.3-2.8
		C94.5,50,93.3,51,93,51.4c4.1-1.1,5.7-2.4,6.2-2.7C99.1,48.8,99.1,50.2,94.6,52 M84.5,65.6c0-0.1,0-0.1,0-0.2c0-0.1,0.1-0.2,0-0.3
		l0,0l0,0c-0.3,0.1-0.7,0.2-1.1,0.4c-0.1,0-0.2,0.1-0.3,0.1l-0.1,0l0.1,0c0.1,0,0.2,0.1,0.2,0.1c0.1,0.1,0.2,0.1,0.3,0.2
		c0,0,0,0,0,0c0,0,0,0,0,0c-0.2,0.2-0.4,0.2-0.6,0.1c-0.1,0-0.3-0.1-0.4-0.1c-0.1,0-0.2,0-0.3-0.1c-0.2,0-0.4,0-0.5,0.1
		c-0.2,0.2-0.4,0.2-0.7,0.1c0,0,0,0,0,0c0-0.2,0.1-0.3,0.2-0.4c0.5-0.2,0.5-0.3,0.6-0.6c0-0.1,0-0.1,0.1-0.2c0.2-0.5,0.5-0.9,1-1.2
		c0,0,0,0,0,0c0,0,0,0,0.1-0.1c0.2-0.1,0.4-0.2,0.6-0.2c0.2,0,0.4,0,0.6,0.1c0,0,0,0,0.1,0c0,0,0.1,0,0.1,0.1
		c0.2,0.1,0.3,0.1,0.5,0.2l0.1,0.1c0,0,0.1,0,0.1,0.1C85.5,64.7,85.1,65.5,84.5,65.6 M80.8,62.9c-1.1,0.6-1.4,1.5-1.6,2
		c-0.2-0.1-0.3-0.4-0.4-0.8c-0.4,0.3-0.7,0.8-1,1.3c-0.3,0.5-0.5,1-0.6,1.6c-0.1-0.3-0.4-1-1-2c-0.2-0.3-0.4-0.6-0.7-0.9
		c-0.1,0.3-0.2,0.5-0.4,0.8c-0.1-0.1-0.7-1.4-1.5-2.1c0,0,0,0.5-0.3,1.1c-0.9-1.4-2-2.3-3.8-2c0-0.1,1.2-1.5,3.8-0.6
		c-0.6-1.4-3-1.2-3-1.2c0.1-0.9,0.4-1.6,1.5-2.1c-0.9,0-1.3,0.5-1.7,0.9c0,0-0.1-1,0.4-1.5c0.3-0.4,0.8-0.7,1.3-0.7
		c1.5,0,2,0.5,2.4,0.7c-0.1-0.2-0.4-0.6-0.6-0.8c0.4,0,2.4,0.4,2.6,2.2h0.1c0-0.8-0.2-1.2-0.3-1.4c0.4,0,0.7,0.3,1,0.9h0
		c0-0.2-0.1-0.5-0.2-0.7c0.7,0,1,0,1.8-0.3c-0.4,1-0.4,1.3-0.4,1.5h0.1c0.1-0.2,0.1-1.1,1.2-1.7c1-0.5,2.3-0.4,2.3-0.4
		c-0.2,0.1-0.8,0.5-1,0.9c0.2-0.1,1.1-0.5,2-0.4c0.8,0,1.3,0.6,1.5,1.4c0.1,0.4,0.1,0.8,0,1.3C84.2,60,84.2,60,84.2,60
		s-1-0.2-1.9,0.3c-1,0.5-1.2,1-1.2,1c0.2-0.1,2.7-1.1,3.9,0.5c-0.2-0.1-1.1-0.1-1.3,0c-2,0.5-2.4,2-2.5,2.1
		C80.9,63.6,80.8,63.2,80.8,62.9 M77.1,73.3c0,0-0.1,0-0.1,0c-0.8,0-0.8-0.3-1.9-0.4c0,0,0.7-0.5,2-0.5h0c1.3,0,2,0.5,2,0.5
		C78,73.1,77.9,73.3,77.1,73.3 M73.2,66.1c-0.2,0.2-0.4,0.2-0.6,0.1C72.4,66,72.1,66,71.8,66c-0.3,0-0.6,0-0.9,0
		c-0.1,0-0.1,0-0.2-0.1c0,0,0,0,0,0c0.2-0.1,0.4-0.2,0.6-0.4c-0.5-0.2-0.9-0.3-1.4-0.5c0.1,0.2,0.1,0.4,0.1,0.5c0,0,0,0,0,0
		c-0.1,0.1-0.2,0-0.3,0c-0.3-0.2-0.4-0.4-0.5-0.7C69,64.6,68.9,64.3,69,64c0,0,0,0,0,0c0.7-0.3,0.6-0.3,1-0.4c0.1,0,0.3-0.1,0.4-0.1
		c1,0,1.7,0.7,1.9,1.4c0.1,0.1,0.1,0.3,0.1,0.4c0,0.2,0.1,0.3,0.3,0.3C73,65.7,73.2,65.8,73.2,66.1C73.3,66,73.3,66.1,73.2,66.1
		 M75.5,97.2c-0.9-0.2-2-0.5-3-0.9c-0.9-0.4-1.6-0.8-2.1-1.3c-0.4-0.4-0.9-1-1.2-1.5l-0.4-0.7c0,0-0.2,0.4,0.1,2.2
		c-0.1-0.1-0.2-0.1-0.2-0.1c-0.7-0.4-1.4-1.1-2.2-1.8c-0.9-0.9-1.6-1.9-2-2.9c-0.3-0.7-0.5-1.4-0.4-2.4c0-1.2,0.4-2.4,1-3.7
		c0.5-1,1.1-2,1.7-2.9c1.5-2.4,1.5-2.9,1.5-2.9c1.4,6.6,3.4,6.9,3.4,6.9l-0.1-1.4c0.6,0.6,2.2,2.4,2.5,2.8c0,0,1.6,1.7,1.1,4.5
		c-0.1,0.3-0.1,0.7-0.2,1c-0.6,2-0.5,2.4-0.5,2.4s0.7-0.9,0.7-1c0,0.2-0.1,2.7,0.7,3.8C75.9,97.2,75.5,97.2,75.5,97.2 M109.7,29
		c-0.1-0.5-0.5-1-0.7-1c0,0.3,0,0.6,0,0.8c-0.7,7.2-3.5,9-3.8,9.1c-0.1-0.2,0.2-2.5,0.3-2.9c0.2-0.8,0.5-1.7,0.7-2.5
		c0.2-0.6,0.3-1.3,0.4-1.9c0.1-1,0.1-2,0-3c-0.4-3-1.4-4.3-1.8-4.9c-0.3-0.4-0.6-0.5-0.8-0.4c0.1,0.3,0.1,0.5,0.2,0.8
		c1.8,5.8,0.2,8.4,0,8.7c-0.4,0.6-1.1,0.8-1.8,0.6c-0.3-0.1-1.8-0.5-4.8-3.9c-0.6-0.7-1.7-2.3-1.8-2.5c-0.4,0.2-0.3,1.1-0.3,1.5
		c0.1,0.5,0.4,1,0.7,1.4c1.1,1.5,6.7,5.7,6.2,11.6c-0.1,1.1-0.5,2.2-0.9,3.3c0,0.1-0.2,0.3-0.2,0.4c0-0.7-0.1-1.4-0.1-2.1
		c-0.1-1.1-0.2-2.1-0.5-3.1c-0.2-0.7-0.8-2.7-1.9-4.3c-0.5-0.8-0.3,0.7-0.3,0.8c0.1,1,0.6,2.8,0.8,3.7c1.5,6.6-0.7,9-1.5,9.6
		c-1.6,1.2-2.8,1.7-3,1.7c0,0,0.5-0.7,0.9-2.9c0.2-1.1,0.5-4.8,0.5-5.5c0-0.6,0.3-2.1,0-2.6c0-0.1-0.1-0.1-0.2-0.1
		c-0.7,0.3-0.8,1.2-1,1.6c-0.3,1-0.4,8.9-6.8,10.9c0.2-0.8,0.4-2.2,0.4-3.1c0-0.9,0-1.8,0-2.6c0-0.3,0-0.6,0-1c0-0.9,0-1.8,0-2.7
		c0-0.6,0-0.7,0-1.3c0-0.2,0-1.2,0-1.2c-0.1,0-1.6,0.4-1.5,3.5c0.1,6.9-2.3,9.6-3.5,10.7C83.6,54,83.6,54,83.5,54
		c-0.2,0-0.6,0-0.9,0.1c-0.2,0-0.4,0-0.5,0c-0.2,0-0.3,0-0.5,0c-0.4,0-0.7,0-1.1,0.1c-0.2,0-0.3,0.1-0.5,0.1
		c-0.9,0.2-1.8,0.3-2.7,0.6c-0.1,0-0.1,0-0.2,0c-0.2-0.1-0.5-0.2-0.7-0.2c-1.1-0.3-2.1-0.4-3.2-0.5c-0.4,0-1.5,0-2.1,0
		c0,0-0.1,0-0.1-0.1c0,0-0.1-0.1-0.1-0.1c-1.1-1.1-2-2.4-2.5-3.9c-0.2-0.6-0.5-1.3-0.5-2c-0.1-0.5-0.1-1-0.2-1.5
		c-0.1-0.8-0.2-1.5-0.2-2.3c-0.1-0.8-0.1-1.6-0.3-2.4c-0.1-0.5-0.2-1-0.5-1.4c-0.3-0.6-0.7-0.7-0.9-0.7c0,0.2,0,0.3,0,0.5
		c0,0.5,0,0.9,0,1.4c0,1,0,2,0,2.9c-0.1,3.3-0.3,4.7,0.4,7.1c-0.1,0-2.7-0.6-4.6-3.5c-0.9-1.3-1.4-2.8-1.6-4.4
		c-0.1-0.9-0.3-1.9-0.5-2.8c-0.1-0.5-0.3-1-0.6-1.4c-0.5-0.7-0.6-0.4-0.6-0.3c0,0.1,0,0.1,0,0.2c0,0.3,0,0.7,0,1
		c0.4,7.3,1.5,9.7,1.5,9.7c-0.1,0-1.6-0.8-2.3-1.2c-1-0.6-1.7-1.5-2.1-2.6c-0.4-1.2-1.1-4,0.2-9.8c0.1-0.5,0.3-2,0.4-2.2
		c0-0.1,0-0.1-0.1-0.2c0,0-0.1,0-0.2,0.1c-2.7,3.4-2.5,9.5-2.6,9.6c-1.2-2.6-1.2-4.6-1.1-5.2c0.1-0.8,0.3-1.7,0.6-2.4
		c0.2-0.5,0.4-1,0.7-1.4c0.6-1,1.3-2,2.1-2.9c0.9-1.1,1.9-2.2,2.9-3.3c0.6-0.7,0.8-1.5,0.6-2.3c0-0.2-0.1-0.4-0.2-0.4
		c-0.1,0-0.2,0.2-0.2,0.2c-0.7,1.1-1.5,2.1-2.4,3.1c-0.6,0.7-1.3,1.3-2,1.8c-0.7,0.5-1.4,1-2.3,1.2c-0.9,0.1-1.5-0.5-1.8-1.3
		c-0.3-0.7-0.4-1.4-0.4-2.1c0-0.5-0.1-2.9,0.3-4.4c0.2-0.7,0.4-1.4,0.6-2.1c0-0.1,0-0.2,0.1-0.2c0-0.1,0-0.1-0.1-0.1
		c-0.1,0-0.1,0.1-0.2,0.1c-0.4,0.3-0.8,0.8-1,1.2c-3.4,5.9,1,13,0.1,14.2c-0.4-0.1-0.7-0.4-0.9-0.7c-0.6-0.7-1.1-1.6-1.5-2.4
		c-0.3-0.8-0.6-1.6-0.8-2.4c-0.1-0.5-0.3-0.9-0.3-1.4c-0.1-0.9-0.2-1.8-0.3-2.7c0-0.1-0.1-0.3-0.1-0.2c-0.1,0.1-0.1,0.2-0.2,0.2
		c-0.2,0.4-0.4,0.8-0.5,1.2c-0.8,6.4,3.6,10.7,4.2,11.3c0.3,0.2,0.5,0.5,0.7,0.9c0.2,0.5,0.5,1,0.7,1.5c0.4,0.8,0.7,1.7,1.1,2.6
		c0.3,0.7,0.6,1.4,1.1,2c0.5,0.7,1.1,1.4,1.8,2c1.1,1,2.4,1.7,3.7,2.3c1.4,0.6,3.7,1.4,5.2,1.9c1.2,0.4,2.5,0.9,3.6,1.6
		c0.3,0.2,0.6,0.5,0.9,0.8c0.2,0.3,0.2,0.6,0.1,0.8c-0.4-0.1-1-0.3-1.2-0.4c-0.1,0-0.1-0.1-0.2-0.1c-0.3-0.2-0.7-0.3-1.1-0.4
		c-0.5-0.1-1-0.2-1.5-0.2c-0.2,0-0.4-0.1-0.7-0.1c-0.2,0-0.5-0.1-0.7-0.1c-0.5-0.1-1-0.1-1.5-0.2c-0.6-0.1-1.3-0.3-1.9-0.5
		c-0.3-0.1-1.3-0.3-1.3-0.3s-0.2,0.4-0.3,0.7c-0.2,0.7-0.1,1.4,0.2,2.2c0.5,1.4,1.2,2.5,2.1,3.4c0.3,0.3,0.5,0.6,0.4,1
		c0,0.4,0.1,0.7,0.5,0.9c0,0,0.2,0.1,0.2,0.1c0.3,0.1,0.5,0.3,0.7,0.4c0.8,0.5,1.6,0.9,2.4,1.2c0.7,0.3,1.5,0.4,2.2,0.4
		c0.4,0,1.1,0,1.4,0.1c0.1,0,0.4,0,0.4,0.2c0,0.2,0,0.5-0.1,0.6c0,0.2-0.2,0.8-0.3,1c0,0.2-0.1,0.4,0,0.7c0.1,0.4,0.2,0.7,0.3,1.1
		c0.2,0.5,0.5,1.6,0.5,2l0,0.2c0,0.5,0,1,0,1.5c0,0.3,0.1,0.6,0.1,0.9c0,0.1,0.1,0.3,0.6,1.1c0.2,0.3,0.4,0.8,0.5,1.1
		c0.2,0.6,0.9,1.5,1,1.6c0,0,0,0,0,0c0,0,0,0,0,0c0-0.1-0.1-0.2-0.2-0.3c-0.1-0.2-0.2-0.7-0.4-1.2c0-0.2-0.4-1.4-0.5-1.6
		c-0.3-0.8-0.5-1.6-0.5-2.5c0-0.7,0.1-2.3,0.1-2.4c0.1,0.1,2.1,1.1,2.4,1.2c0.7,0.4,1,1,1.1,1.8c0,0.1,0,0.3,0.1,0.4
		c0.3-0.3,0.4-0.6,0.5-1c0.3,0.5,0.2,1.2,0.1,1.7c-0.2,0.7-0.4,1.4-0.5,2.1c-0.1,0.4-0.2,0.8-0.1,1.2c0,0.6,0.3,1,0.9,1.2
		c0.3,0.1,0.6,0.1,0.9,0.1c0.3,0,0.6-0.1,0.9-0.1c0.3,0,0.3,0,0.4-0.3c0.1-0.5,0-0.9-0.1-1.4c0,0-0.1,0.4-0.5,0.4
		c-0.2,0-0.4,0-0.6,0c-0.3,0-0.5-0.2-0.5-0.6c0-0.3,0-0.6,0.1-0.9c0.1-0.4,0.4-0.7,0.9-0.7c0.2,0,0.5,0,0.7,0
		c0.4,0.1,0.8,0.1,1.1,0.2c0.2,0,0.3,0,0.5,0c0.4-0.1,0.8-0.2,1.2-0.3c0.4-0.1,0.9,0,1.2,0.5c0.2,0.3,0.2,0.4,0.2,0.7
		c0.1,0.3,0,0.8-0.3,1c-0.2,0.1-0.2,0.1-0.4,0.1c-0.1,0-0.2,0-0.5,0c-0.3,0-0.4-0.2-0.5-0.5c-0.1,0.2-0.1,0.3-0.1,0.4
		c-0.1,0.3,0,0.6,0,1c0.1,0.3,0.1,0.4,0.4,0.4c0.6,0.1,1.1,0.1,1.7-0.1c0.7-0.2,1.1-0.7,1.1-1.4c0-0.4-0.1-0.7-0.1-1
		c-0.1-0.6-0.3-1.2-0.4-1.8c-0.1-0.4-0.4-1.3,0-1.8c0.2,0.3,0.3,0.7,0.6,1c0-0.1,0-0.1,0-0.2c0-0.3,0.1-0.6,0.2-0.8
		c0.2-0.6,0.6-1,1.2-1.3c0.5-0.3,2-1.1,2.2-1.2c0,0.3,0,2.1,0,2.8c0,0.9-0.1,1.6-0.5,2.4c-0.2,0.5-0.9,1.6-0.9,1.7c0,0,0,0,0,0
		c0.5-0.1,1.8-2.5,1.8-2.6c0,0.6,0,1.2-0.1,1.9c-0.1,0.6,0.1,1.2,0.2,1.5c0.1,1.2,0,1.6,0.1,2.5c0,0.7,0.4,1.3,0.6,1.6
		c0.2,0.3,1.2,1.5,1.4,1.8c0.7,0.9,1.7,2.4,1.7,2.5c0.4,0.7,0.8,1.8,0.9,2.6c0.1,0.6,0,1.3-0.1,1.9c-0.3,1.1-0.6,1.9-1.2,2.7
		c0-0.2-0.1-0.4-0.2-0.6c0-0.1-0.1-0.2-0.1-0.3l-0.3-1l-0.2,1c-0.3,1.2-0.8,2.1-1.1,2.4c-0.6,0.7-1.2,1.1-2.1,1.3
		c0.1-0.1,0.1-0.3,0.2-0.4c0.1-0.3,0.3-0.7,0.4-1l0.2-0.7c0,0-1.2,1.1-3.7,2.2c-2.6,1.1-4.1,2.2-4.4,2.6c-0.1-0.3-0.7-2.5,0.2-4.2
		c1.2-2.3,2.6-2.9,3.2-3.6c0.4-0.4,0.4-0.7,0.4-0.8c0.3,0.3,0.2,0.9,0.1,1.2c0,0.2-0.1,0.3-0.2,0.5c0.2-0.1,0.9-0.5,1.6-1.6
		c0.4-0.6,0.7-1.3,0.8-2.1c0.3,0.1,0.4,0.4,0.4,1.2c0.1,0,0.5-0.4,0.6-1.6c0.1-0.9-0.1-1.8-0.3-2.7c-0.2-0.7-0.4-1.4-0.6-2.2
		c-0.2-0.8-0.3-1.5-0.1-2.3c0-0.2,0.1-0.4,0.1-0.6c0,0-0.2,0-0.4,0.1c-0.4,0.2-0.7,0.5-1,0.8c-0.3,0.3-0.6,0.6-0.9,1
		c-0.5,0.6-1,1.3-1.4,2.1c-0.4,0.7-1,1.4-1.5,2.1c-0.2,0.2-0.3,0.5-0.6,0.6c-0.1-0.1,0-0.2,0-0.4c0-0.9-0.3-1.1-0.4-1.1
		c-0.2,1.3-0.6,2.3-0.8,2.4c-0.1-0.1-0.2-0.2-0.2-0.3c-0.2-0.3-0.4-0.6-0.6-0.9c-0.3-0.5-0.7-0.8-1.2-1.1c-0.7-0.6-1.5-1.1-2.2-1.7
		c-0.5-0.4-0.9-0.8-1.2-1.3c-0.1-0.2-0.2-0.5-0.4-0.7c-0.2,0.3-0.2,1-0.6,1.2c-0.7-2.5-2.1-4.5-2.4-5c0-0.1-0.1,0-0.1,0
		c0,0.6-0.1,1.5-0.6,2.4c-0.1,0.2-0.9,1.6-1.2,2.1c-0.6,0.9-1.2,1.9-1.7,3c-0.7,1.4-1,2.7-1.1,3.9c0,1,0.2,1.8,0.5,2.6
		c0.4,1.1,1.1,2.1,2.1,3c2.6,2.3,3.4,2.5,3.4,2.5l-0.1-0.3c0-0.2-0.1-0.3-0.1-0.5c0-0.2-0.1-0.4-0.1-0.6c0.3,0.3,0.5,0.6,0.8,0.9
		c0.6,0.6,1.3,1,2.2,1.4c1,0.5,2.1,0.7,3.1,0.9C76.3,97.9,78,98,78,98l0,0c0.2-0.4,2.1-1.8,4.4-2.8c1.1-0.5,1.5-0.7,2-1
		c0.1-0.1,0.2-0.2,0.4-0.3c0,0.1-0.1,0.1-0.1,0.2c-0.1,0.2-0.2,0.3-0.2,0.5c0,0-0.2,0.3-0.2,0.4l-0.3,0.4l0.5-0.1c0,0,0.3,0,0.3-0.1
		c1.1-0.2,1.8-0.7,2.5-1.5c0.4-0.4,0.8-1.1,1-1.9c0.2,0.5,0.1,1,0.1,1l0.4-0.3c0.2-0.1,0.3-0.3,0.4-0.4c0.7-0.8,1-1.7,1.3-2.9
		c0.2-0.7,0.2-1.4,0.1-2c-0.1-0.9-0.6-2.1-1-2.8c-0.1-0.1-1.1-1.7-1.8-2.6c-0.2-0.3-1.2-1.5-1.4-1.8c-0.1-0.2-0.5-0.7-0.5-1.3
		c0-0.9,0.1-1-0.1-2.6c0-0.2-0.2-0.7-0.1-1.2c0.1-0.8,0-1.4,0.1-2.1c0-0.4,0-0.8,0-1.3l0,0c0.1-1.1,0.6-3.3,0.7-3.8
		c0.1-0.5,0-1.1-0.1-1.3c-0.2-0.5-0.2-1.4,0-1.7c0.1-0.2,0.2-0.3,0.3-0.4c0.5-0.4,3.9-0.8,4.8-1.2c0.4-0.2,0.8-0.4,1.2-0.6
		c0.2-0.1,0.4-0.2,0.6-0.3c0.2-0.1,0.3-0.3,0.3-0.5c0-0.2,0-0.3,0-0.5c0,0,0-0.1,0-0.1c0.2-0.2,0.5-0.5,0.7-0.7l0,0
		c0.5-0.4,0.8-0.9,1.1-1.5c0.7-1.3,0.9-2.6,0.7-4c0-0.1-0.2-0.5-0.2-0.5l-0.2,0.1c-0.1,0-0.1,0-0.2,0.1c-0.1,0-0.3,0.1-0.4,0.1
		c-0.2,0.1-0.5,0.1-0.7,0.2c-0.5,0.2-1,0.3-1.5,0.4c-0.6,0.1-1.3,0.2-1.9,0.3c-0.2,0-0.3,0-0.5,0.1c-0.8,0.1-1.6,0.3-2.5,0.6
		c-0.5,0.2-1,0.4-1.4,0.5c-0.2,0.1-0.6,0-0.7-0.2c0.2-0.3,0.5-0.7,0.7-0.8c2.6-1.8,7.7-3.3,9.6-4c1.4-0.5,2.7-1.4,3.8-2.5
		c0.8-0.8,1.5-1.6,2-2.6c0.8-1.4,2.2-5.1,2.4-5.4c0.5-0.8,2.5-2.7,3.3-4.1C109,35.9,110.5,32.2,109.7,29"/>
	<path class="st0" d="M105.1,106.7l0.5-1.3l-3.5-1.4l-1.7,2.8l1.5,0.6c0,0,0,6.9,0,10l-0.5,3.7l3.7,0.9l1.6-2.7c0,0-1.5-0.5-1.6-0.5
		V106.7z"/>
</g>
<polygon class="st0" points="103.4,103.4 103.9,103.5 105.7,101.5 104.1,100.9 "/>
<polygon class="st0" points="117.7,101.3 115.4,104.3 113.2,106.6 114.4,106.6 114.4,118.4 113.9,121.2 117.6,122.2 119.2,119.5 
	117.7,119 117.6,106.6 119.5,106.6 120.8,104.1 117.7,104.1 "/>
<g>
	<path class="st0" d="M89.2,107.6l0.6-2l-4.2-1.5l-2.8,5.2c0,0,0,0,0-1.9l0.4-1.8l-4.2-1.5l-2.9,4.9c0,0,0-1.3,0-2
		c0-0.7,0.4-1.6,0.4-1.6l-3.2-1.2l-1.8,2.6l1.4,0.7v11.8l-0.4,2.2l3.3,0.9l1.4-2.6l-1-0.3v-8.7l2-3.3l1.5,0.6v11l-0.4,2.6l3.3,0.9
		l1.5-2.7l-1.1-0.4v-8.5l2.1-3.5l1.1,0.4c0,0,0,9.2,0,11l-0.4,2.6l3.6,1l1.4-2.7l-1.4-0.4V107.6z"/>
</g>
<path class="st0" d="M57,108l2.3,2.7L57,115V108z M60.4,119.3l-3.3-0.9v-1.9l4.2-7.5l0.5-0.6l-4.1-4.2l-2,2.3l-2.2,0.6l0.3,2.4v9.6
	l-0.3,1.6l6.2,1.5l2.1-3.7l-1-0.3L60.4,119.3z"/>
<polygon class="st0" points="37.2,103.5 37.7,103.6 39.5,101.5 38,100.9 "/>
<polygon class="st0" points="34.1,103.5 34.7,103.6 36.5,101.5 34.9,100.9 "/>
<g>
	<path class="st0" d="M17.2,100.9v6.4h0.1l1.1-3.2c0,0,0,0,3.1,0c0.9,0,3.1-0.5,3.1-0.5l0.1,0.1l-1.9,1.2l0.2,0.8v2.8h-2.6v-0.6
		h-1.2v5.6h0.1l1-2.9h2.7v11.7l-4.9-6.2c-0.4-0.5,0-1.2,0-1.2h-0.6c-0.2,0.1-1.2,1.7-1.2,3.5c0,1.3,0.4,1.7,0.7,2.1
		c1.2,1.6,4.3,5.5,4.3,5.5l3.1-2.3l2.6-1l-0.2-2.4v-16.2c0-1.7,1.4-2,1.4-2v-0.7h-9.6l-0.4-0.6H17.2z"/>
	<path class="st0" d="M34.3,108.4c-1-0.4-1.1-1-1.2-1.3l3.8,1.1C36.6,108.3,35.3,108.8,34.3,108.4 M34.5,119.2l-1.4-0.4v-8.2
		l2.7-1.3v7.6L34.5,119.2z M39.1,119.1v-11.7l0.6-1.2l-5.7-2.1l-1.6,1.9l-2.8,1.4c0.2,0.7,1.4,1.8,2.3,2.2l-2.4,0.9l0.3,1.3v8.6
		l-0.2,1l4,0.8l2.3-3.7l-0.2,2.9l3.1,0.8l1.7-2.7L39.1,119.1z"/>
	<path class="st0" d="M48.4,110.4v5.6l-1.8,3.3l-1.2-0.3v-11.8l3.4,1.2l-0.8,0.8C48.1,109.2,48.4,109.9,48.4,110.4 M48.4,122.8
		l-2.6-0.6l2.6-4.4V122.8z M44.4,106l-2.6,1.1l0.4,1.2l0,11l-0.4,1.8l3.5,0.9l0.1,0.2c-1.3,0.1-2,0.9-2.7,1.6
		c-0.7,0.7-1.4,2.1-1.4,2.1l0.8,0.3c0,0,0.4-0.8,0.8-1.1c1.4-0.9,4.8,0.8,4.8,0.8l1.9-1.9l2.1-0.6l0-16.2l0.5-1l-6.1-2.1L44.4,106z"
		/>
	<path class="st0" d="M69.4,104.1h-0.8l-2.4,4.3v-2.2l0.3-1l-2.9-1l-1.9,2.7l1.4,0.5v10.9l-0.4,2.8l4.8,1.3l2.2-3.6l-1.2-0.4
		l-0.3,1.1l-2.1-0.6V110l1.3-2.2c0,0,1.2,3.4,1.1,4c0,0.5-0.7,1.2-0.7,1.2l0.7,0.7c0,0,0.3-0.3,0.8-0.8c0.6-0.6,1.8-2.2,1.3-4.3
		L69.4,104.1z"/>
</g>
<path class="st0" d="M124.5,108l2.3,2.7l-2.3,4.4V108z M127.9,119.3l-3.3-0.9v-1.9l4.2-7.5l0.5-0.6l-4.1-4.2l-2,2.3l-2.2,0.6
	l0.3,2.4v9.6l-0.3,1.6l6.2,1.5l2.1-3.7l-1-0.3L127.9,119.3z"/>
<g>
	<path class="st0" d="M136.9,104.1h-0.8l-2.4,4.3v-2.2l0.3-1l-2.9-1l-1.9,2.7l1.4,0.5v10.9l-0.4,2.8l4.8,1.3l2.3-3.6l-1.2-0.4
		l-0.3,1.1l-2.1-0.6V110l1.3-2.2c0,0,1.2,3.4,1.1,4c0,0.5-0.7,1.2-0.7,1.2l0.7,0.7c0,0,0.3-0.3,0.8-0.8c0.6-0.6,1.8-2.2,1.3-4.3
		L136.9,104.1z"/>
</g>
<path class="st0" d="M95.3,108l2.3,2.7l-2.3,4.4V108z M98.6,119.3l-3.3-0.9v-1.9l4.2-7.5l0.5-0.6l-4.1-4.2l-2,2.3l-2.2,0.6l0.3,2.4
	v9.6l-0.3,1.6l6.2,1.5l2.1-3.7l-1-0.3L98.6,119.3z"/>
<g>
	<path class="st0" d="M115.5,101.1c-1,1.4-2.2,0.5-2.2,0.5l-1.5-1.1l-1.8,1.9l-2.5,0.7l0.4,1.4l0,21.4h1.3c0-1,0.9-1.8,1.9-1.8
		c0,0,0.1,0,0.1,0l0-20.3c0.9,0.5,2.2,0.7,3.2,0.1l1.8-2.4L115.5,101.1z"/>
</g>
</svg>
