<?xml version="1.0" encoding="UTF-8"?>
<svg id="Capa_2" data-name="Capa 2" xmlns="http://www.w3.org/2000/svg" viewBox="0 0 35.57 18.46">
  <defs>
    <style>
      .cls-1 {
        fill: #010101;
        stroke: #fff;
        stroke-miterlimit: 10;
        stroke-width: .5px;
      }
    </style>
  </defs>
  <g id="Capa_1-2" data-name="Capa 1">
    <path class="cls-1" d="M6.91,13.65c.37.34,1.01.48,2.08.48h7.8v-3h-7.87c-1.01,0-1.6.14-1.95.43-.27.27-.39.62-.39,1.08,0,.44.09.78.32,1.01M7.59,5.79c0,.43.14.8.37,1.05.32.3.91.41,1.69.41h7.14v-2.93h-6.98c-.87,0-1.46.11-1.78.41-.3.25-.43.62-.43,1.05M1.28,16.38c-.69-.8-1.03-2.01-1.03-3.25,0-1.05.27-2.06.85-2.72.69-.89,1.9-1.53,3.18-1.69-.87-.11-1.69-.57-2.17-1.17-.59-.71-.87-1.67-.87-2.84s.34-2.2,1.12-2.97C3.23.84,4.8.25,7.27.25h15.51v17.96H6.84c-2.54,0-4.51-.55-5.56-1.83M30.31,14.91c-2.77,0-5.01-2.17-5.01-4.94s2.24-4.96,5.01-4.96,5.01,2.15,5.01,4.96c0,2.77-2.26,4.94-5.01,4.94"/>
  </g>
</svg>