<?xml version="1.0" encoding="utf-8"?>
<!-- Generator: Adobe Illustrator 29.6.1, SVG Export Plug-In . SVG Version: 9.03 Build 0)  -->
<svg version="1.1" id="Capa_1" xmlns="http://www.w3.org/2000/svg" xmlns:xlink="http://www.w3.org/1999/xlink" x="0px" y="0px"
	 width="182px" height="133px" viewBox="0 0 182 133" enable-background="new 0 0 182 133" xml:space="preserve">
<rect fill="#FFFFFF" width="182" height="133"/>
<g>
	<path d="M56.208,61.606c-1.191-2.283-4.268-2.581-6.849-2.68c-2.283-0.099-1.489,1.29-1.29,1.489
		c3.077,4.467,3.375,10.125,2.482,15.187c-0.893,5.062-3.871,7.941-5.062,8.934c-2.085,1.687-4.268,1.687-5.261,1.39
		c-0.099,0-0.397-0.099-0.596-0.298c-0.099,0-0.099-0.099,0-0.298c0.199-0.298,1.29-1.588,1.886-2.283
		c1.985-2.382,4.467-6.055,1.985-9.728c-2.382-3.573-2.879-3.673-3.375-3.474c-0.298,0.199-0.397,0.397-0.993,1.588
		c-0.496,1.191-0.893,2.184-3.176,6.452c-0.199,0.496-1.29,2.283-1.588,2.283c-0.298,0-1.29-2.68-1.687-4.864
		c-1.29-6.948,0.794-11.614,3.375-15.287c4.963-6.849,12.805-4.169,13.301-5.261c0.397-0.794,0-1.787-1.787-2.68
		c-4.864-2.581-10.621-1.39-14.492,1.39c-2.382,1.687-5.658,4.765-7.345,10.026c-4.368,13.5,1.985,21.441,2.879,22.93
		c0.099,0.199,0.099,0.298,0,0.496c-0.993,1.489-8.934,8.636-12.011,8.537c-2.779-0.099-4.268-15.187-2.581-32.161
		c0.397-4.268,2.085-12.904-0.397-18.761c-0.893-1.985-3.772-5.459-8.437-5.459c-1.092,0-2.184,0.099-2.68,0.199
		c-0.596,0.099-1.29,0.397-1.29,0.893c0,0.695,1.588,2.085,2.482,3.474c1.886,2.879,2.879,8.04,1.985,19.257
		c-0.893,9.926,0.099,38.316,4.864,43.179c0.496,0.496,1.092,0.794,1.687,0.695c5.459-0.199,14.889-7.445,21.143-13.996
		c0.199-0.199,0.794-0.893,1.191-1.191c0.099-0.099,0.298-0.099,0.397-0.099c0.794,0.298,2.879,1.588,6.055,1.588
		C54.62,92.973,63.256,75.006,56.208,61.606"/>
	<path d="M148.126,70.44c-7.246-2.283-7.246-9.331-6.75-12.805c1.29-8.934,5.062-12.507,2.581-17.867
		c-0.496-0.993-1.787-2.184-2.779-2.581c-3.673-1.092-7.941,1.588-11.117,5.36c-1.985,2.283-2.184,2.482-5.658,7.246
		c-0.199,0.298-1.588,2.184-1.886,2.085c-0.298-0.099,0-0.993,0.099-1.39c0.099-0.596,0.298-1.092,0.596-1.886
		c2.184-6.353,6.452-16.775-4.566-17.371c-0.199,0-0.794,0.099-0.893,0.397c-0.199,0.298,0,0.596,0.199,1.191
		c1.985,4.864-2.382,19.456-6.154,25.61c-1.985,3.176-0.993,9.728,1.092,11.018c0.794,0.496,2.184,0.099,3.573-1.39
		c4.864-5.459,15.882-18.661,19.356-20.845c0,0,1.29-0.993,1.39,0.298c0,0.298,0,0.993-0.199,1.985
		c-3.474,13.698-3.772,18.86-0.099,21.54c1.191,0.893,4.665,3.276,11.415,0.794c0.298-0.099,0.596-0.496,0.596-0.695
		C148.622,70.936,148.523,70.539,148.126,70.44"/>
	<path d="M180.784,66.37c-0.695-4.864-2.779-7.842-4.765-8.239c-4.963-0.794-9.132-0.695-13.897,0.199
		c-1.39,0.298-2.779,0.596-4.268,0.993c-0.496,0.099-0.397-0.199-0.298-0.397c0.298-0.397,0.893-0.993,1.092-1.191
		c2.779-2.581,15.783-10.82,17.57-12.706c0.794-0.893,2.184-1.886,1.489-5.261c-0.794-3.772-11.515-8.338-17.47-8.14
		c-3.573,0.099-10.621,1.687-11.415,10.82c0,0.496,0.397,0.893,0.596,0.893c0.298,0,0.596-0.099,0.794-0.298
		c2.085-2.184,2.779-3.375,6.154-3.772c5.757-0.794,10.82,1.29,11.812,2.283c0.496,0.496,0.298,1.092-0.993,1.886
		c-1.191,0.794-1.985,1.29-4.566,2.879c-12.011,7.445-13.5,10.522-14.989,13.003c-1.092,1.787-1.588,4.07-0.695,5.658
		c0.397,0.596,2.184,2.978,3.971,3.573c0.496,0.199,1.191-0.099,1.29-0.099c10.323-4.07,18.562-3.474,24.915-1.886
		c1.092,0.298,1.886,0.596,2.283,0.695c0.496,0.199,0.893,0.199,1.191,0C180.784,67.065,180.784,66.668,180.784,66.37"/>
	<path d="M60.973,58.429c0.993,1.886,2.283,5.559,2.581,8.14c0.596,4.864,0.397,7.048-0.099,10.82c-0.099,0.496,0,1.092,0.893,1.687
		c1.29,0.695,3.573,1.588,6.154,1.39c1.092-0.099,1.588-0.298,1.588-1.787c-0.397-9.529,0.596-16.577,2.879-24.617
		c2.283-8.338,6.452-13.798,9.629-16.676c1.092-1.092,3.375-1.985,5.459-1.39c0.893,0.199,1.092-0.298,1.191-0.596
		c0.199-1.092-3.474-5.559-6.055-5.559c-1.787,0-3.077,0.596-4.368,1.39c-5.162,3.276-10.82,12.11-12.606,21.54
		c-0.298,0.993-0.397,0.993-0.496,2.283c0,0.298-0.199,0.993-0.397,1.092c-0.298,0-0.099-0.298-1.092-1.29
		c-0.199-0.199-0.596-0.496-0.993-0.596c-1.092-0.397-3.276-0.695-5.261-0.397c-0.893,0.099-1.39,0.596-0.794,1.29
		C59.385,55.65,59.98,56.444,60.973,58.429"/>
	<path d="M123.012,68.753c-0.695,0-0.794,0.893-3.573,4.963c-3.673,5.261-11.515,15.088-29.481,23.426
		c0,0-22.235,11.316-51.22,6.948c-0.496-0.099-2.184-0.397-2.581-0.397c-0.993-0.199-1.191,0.695,0.298,1.29
		c0.893,0.397,2.978,0.993,3.474,1.191c32.161,9.033,67.797-3.276,83.48-25.709C125.792,77.091,124.601,68.753,123.012,68.753"/>
	<path d="M88.667,57.04c0.298-0.794,0.397-0.993,0.794-1.886c0,0,0.397-0.794,0.893-1.886c4.169-8.04,10.125-11.415,12.11-11.713
		c0.496-0.099,0.695,0.099,0.893,0.199c0.099,0.099,0.298,0.298,0.199,0.794c-0.199,0.695-1.29,3.573-4.665,7.445
		c-4.268,5.062-8.934,7.743-8.934,7.743c-0.496,0.298-1.191,0.695-1.39,0.596C88.27,58.231,88.469,57.437,88.667,57.04
		 M103.16,54.459c5.757-5.459,12.408-17.371,5.062-18.86C87.476,31.43,65.34,72.028,90.156,74.907
		c9.033,0.993,14.79-5.956,15.882-8.735c0.695-1.588,1.191-5.559,0.893-8.537c0-0.199-0.199-0.993-0.695-0.993
		s-0.794,0.695-0.893,0.794c-0.397,0.695-0.893,1.687-1.687,2.879c-2.581,3.971-6.154,8.04-11.018,8.239
		c-1.489,0.099-3.971-0.298-4.566-2.779c-0.199-0.794-0.199-0.893,0.397-1.191c1.29-0.496,2.482-1.092,3.971-1.985
		C96.311,60.712,101.174,56.245,103.16,54.459"/>
</g>
<g>
</g>
<g>
</g>
<g>
</g>
<g>
</g>
<g>
</g>
<g>
</g>
<g>
</g>
<g>
</g>
<g>
</g>
<g>
</g>
<g>
</g>
<g>
</g>
<g>
</g>
<g>
</g>
<g>
</g>
</svg>
