<?xml version="1.0" encoding="utf-8"?>
<!-- Generator: Adobe Illustrator 15.0.0, SVG Export Plug-In . SVG Version: 6.00 Build 0)  -->
<!DOCTYPE svg PUBLIC "-//W3C//DTD SVG 1.1//EN" "http://www.w3.org/Graphics/SVG/1.1/DTD/svg11.dtd">
<svg version="1.1" id="Capa_1" xmlns="http://www.w3.org/2000/svg" xmlns:xlink="http://www.w3.org/1999/xlink" x="0px" y="0px"
	 width="194.8px" height="97px" viewBox="-12.3 0 194.8 97" style="enable-background:new -12.3 0 194.8 97;" xml:space="preserve">
<rect x="-12.3" style="fill:#FFFFFF;" width="194.8" height="97"/>
<g>
	<g>
		<path d="M-6.8,45l-2.8-1c-0.2-0.1-0.4-0.2-0.5-0.3c-0.2-0.1-0.2-0.3-0.2-0.6v-2.5c0-0.3,0-0.5,0.1-0.6c0.1-0.1,0.2-0.2,0.5-0.3
			l8.6-1.9c0.1,0,0.1,0,0.1,0h0.1c0.5,0,0.9,0.3,1,0.8l1,3.4c0.3-0.4,0.6-0.8,0.9-1.1c0.3-0.4,0.7-0.7,1.1-1c0.8-0.6,1.6-1,2.6-1.3
			c0.9-0.3,1.9-0.4,2.8-0.4h1.2c0.3,0,0.6,0.1,0.7,0.2c0.1,0.1,0.2,0.4,0.2,0.7v5.6c0,0.3-0.1,0.6-0.2,0.7c-0.1,0.1-0.4,0.2-0.7,0.2
			H9.5c-0.6,0-1.3,0-2,0.1c-0.7,0.1-1.4,0.2-2,0.4c-0.6,0.2-1.3,0.5-1.8,0.8c-0.6,0.4-1,0.8-1.4,1.5c-0.1,0.2-0.2,0.3-0.3,0.5
			c-0.1,0.2-0.1,0.4-0.2,0.5c-0.1,0.4-0.2,0.8-0.2,1.2c0,0.4-0.1,0.8-0.1,1.2v14.1l2.8,1c0.2,0.1,0.4,0.2,0.5,0.3
			c0.1,0.1,0.1,0.3,0.1,0.6v2.4c0,0.3-0.1,0.6-0.2,0.7C4.7,71,4.4,71.1,4,71.1H-9.3c-0.3,0-0.6-0.1-0.7-0.2
			c-0.1-0.1-0.2-0.3-0.2-0.7v-2.4c0-0.3,0-0.5,0.1-0.6c0.1-0.1,0.3-0.2,0.5-0.3l2.8-1L-6.8,45L-6.8,45z"/>
		<path d="M31.4,56.4h-1.6c-0.6,0-1.2,0-1.9,0.1s-1.3,0.2-1.9,0.3c-0.6,0.2-1.2,0.4-1.7,0.7s-1,0.8-1.4,1.3
			c-0.2,0.3-0.4,0.7-0.5,1.1c-0.2,0.5-0.3,1.1-0.3,1.7c0,0.6,0.1,1.2,0.3,1.7c0.2,0.6,0.5,1,0.9,1.4c0.4,0.4,0.8,0.8,1.3,1
			s1.1,0.4,1.7,0.4c0.5,0,1-0.1,1.5-0.2c0.5-0.1,0.9-0.3,1.3-0.6c0.4-0.2,0.8-0.5,1.2-0.8c0.4-0.3,0.7-0.6,1.1-1V56.4z M42.2,66.9
			c0.2,0.1,0.4,0.2,0.5,0.3c0.1,0.1,0.1,0.3,0.1,0.6v2.4c0,0.2,0,0.5-0.1,0.6c-0.1,0.2-0.2,0.3-0.5,0.3l-7.9,0.8c-0.1,0-0.2,0-0.4,0
			c-0.1,0-0.2,0-0.4,0c-0.3,0-0.5-0.1-0.6-0.2c-0.1-0.2-0.2-0.4-0.3-0.6l-0.7-2.2c-0.4,0.4-0.9,0.7-1.3,1.1
			c-0.4,0.4-0.9,0.6-1.4,0.9c-0.8,0.4-1.6,0.7-2.4,0.8c-0.8,0.2-1.7,0.2-2.5,0.2s-1.6-0.1-2.4-0.2c-0.8-0.1-1.5-0.4-2.3-0.7
			c-0.6-0.3-1.2-0.6-1.8-1.1c-0.6-0.5-1.2-1-1.6-1.6c-0.4-0.6-0.8-1.3-1.1-2c-0.3-0.7-0.5-1.4-0.6-2.2c-0.1-0.8-0.2-1.5-0.2-2.3
			c0-0.6,0-1.2,0.1-1.7c0.1-0.6,0.2-1.2,0.3-1.7c0.2-0.7,0.5-1.4,0.9-2.1c0.2-0.3,0.4-0.6,0.6-0.8c0.2-0.3,0.4-0.5,0.6-0.8
			c0.4-0.4,0.9-0.8,1.3-1.2c0.5-0.3,1-0.6,1.5-0.9c0.5-0.3,1-0.5,1.6-0.7c0.5-0.2,1.1-0.3,1.7-0.5c0.7-0.2,1.4-0.3,2.1-0.4
			s1.4-0.2,2.1-0.2c0.7-0.1,1.4-0.1,2.2-0.1c0.7,0,1.4,0,2.1-0.1v-2c0-0.4,0-0.9-0.1-1.4c0-0.5-0.1-0.9-0.3-1.3
			c-0.1-0.4-0.4-0.8-0.7-1.1S29.5,44.2,29,44c-0.4-0.1-0.8-0.2-1.2-0.3c-0.4,0-0.8-0.1-1.2-0.1c-0.9,0-1.9,0.1-2.8,0.3
			c-0.9,0.2-1.8,0.4-2.7,0.7c-0.3,0.1-0.6,0.2-0.8,0.3c-0.3,0.1-0.5,0.2-0.8,0.3c-0.2,0.1-0.3,0.1-0.5,0.2c-0.2,0.1-0.4,0.1-0.5,0.1
			c-0.2,0-0.4-0.1-0.5-0.2c-0.1-0.1-0.2-0.3-0.2-0.5l-1.4-4.1c0-0.1-0.1-0.2-0.1-0.2c0-0.1,0-0.2,0-0.2c0-0.2,0-0.3,0.1-0.4
			c0.1-0.1,0.2-0.2,0.3-0.3c0.1-0.1,0.3-0.2,0.4-0.3c0.2-0.1,0.3-0.1,0.4-0.2l0.4-0.2c0.1,0,0.2-0.1,0.2-0.1c0.1,0,0.2-0.1,0.3-0.1
			s0.2-0.1,0.2-0.1c0.1,0,0.2-0.1,0.3-0.1c1.4-0.5,2.8-0.8,4.2-1c1.4-0.2,2.9-0.3,4.4-0.3c0.8,0,1.7,0,2.5,0.1
			c0.8,0.1,1.7,0.2,2.5,0.4c0.8,0.2,1.6,0.5,2.3,0.9c0.7,0.4,1.4,0.9,2,1.6c0.4,0.4,0.8,0.9,1.1,1.4c0.2,0.3,0.3,0.6,0.5,0.9
			c0.1,0.3,0.2,0.6,0.3,0.9c0.2,0.7,0.3,1.4,0.4,2.1c0,0.7,0.1,1.4,0.1,2.1v17.9L42.2,66.9z"/>
		<path d="M66.9,45.3c-0.4-0.2-0.8-0.4-1.2-0.5c-0.4-0.1-0.8-0.3-1.1-0.4c-0.4-0.1-0.8-0.2-1.2-0.2s-0.8-0.1-1.3-0.1s-0.9,0-1.4,0.1
			c-0.5,0-0.9,0.2-1.4,0.3c-0.4,0.2-0.8,0.4-1.2,0.7c-0.3,0.3-0.6,0.6-0.8,1c-0.2,0.4-0.4,0.8-0.6,1.2c-0.2,0.4-0.3,0.8-0.4,1.3
			c-0.1,0.5-0.2,0.9-0.2,1.3S56,50.9,56,51.3c0,0.3,0,0.6-0.1,0.9c0,0.3,0,0.6,0,0.9c0,0.4,0,0.8,0,1.1c0,0.4,0,0.8,0,1.1
			c0,0.7,0,1.4,0,2c0,0.2,0,0.5,0.1,0.8c0,0.2,0,0.5,0.1,0.8c0.1,0.6,0.1,1.2,0.2,1.9c0.1,0.7,0.3,1.3,0.5,1.9
			c0.2,0.6,0.5,1.2,0.9,1.6c0.4,0.5,0.9,0.9,1.5,1.1c0.4,0.1,0.8,0.2,1.1,0.3c0.4,0,0.8,0.1,1.2,0.1c0.6,0,1.1,0,1.7-0.1
			c0.6-0.1,1.1-0.3,1.6-0.5c0.4-0.2,0.8-0.4,1.1-0.7s0.7-0.6,1-0.9V45.3z M78.2,66.9c0.3,0.1,0.4,0.2,0.5,0.3
			c0.1,0.1,0.1,0.3,0.1,0.6v2.4c0,0.3,0,0.5-0.1,0.6c-0.1,0.2-0.3,0.3-0.5,0.3l-7.9,0.8c-0.1,0-0.2,0-0.4,0c-0.1,0-0.2,0-0.4,0
			c-0.3,0-0.5-0.1-0.6-0.2c-0.1-0.2-0.2-0.4-0.3-0.6l-0.7-2.3c-0.9,0.6-1.7,1.2-2.7,1.8c-0.9,0.5-1.9,0.9-3,1.2
			c-0.6,0.1-1.2,0.3-1.7,0.3c-0.6,0.1-1.2,0.1-1.8,0.1c-0.7,0-1.4,0-2-0.1c-0.7-0.1-1.3-0.2-2-0.5c-0.8-0.3-1.6-0.8-2.2-1.4
			c-0.7-0.6-1.2-1.2-1.8-2c-0.5-0.7-0.9-1.4-1.3-2.2c-0.4-0.8-0.7-1.6-0.9-2.4c-0.2-0.8-0.4-1.6-0.6-2.5c-0.1-0.8-0.2-1.7-0.3-2.5
			c0-0.6-0.1-1.1-0.1-1.7c0-0.6,0-1.1,0-1.7c0-0.6,0-1.1,0-1.7s0.1-1.1,0.1-1.7c0-0.5,0.1-1,0.1-1.5c0.1-0.5,0.1-1,0.2-1.5
			c0.1-0.8,0.3-1.5,0.6-2.3c0.2-0.8,0.5-1.5,0.9-2.2c0.3-0.7,0.7-1.4,1.2-2.1c0.4-0.7,0.9-1.3,1.5-1.8c0.6-0.6,1.2-1.1,1.8-1.5
			c0.7-0.4,1.4-0.8,2.2-1c0.7-0.2,1.3-0.4,2-0.4c0.7-0.1,1.4-0.1,2-0.1c0.6,0,1.2,0,1.8,0.1c0.6,0.1,1.2,0.2,1.8,0.3
			c0.6,0.2,1.1,0.4,1.6,0.6c0.5,0.2,1,0.5,1.6,0.8v-6.5l-2.8-1c-0.3-0.1-0.4-0.2-0.5-0.3c-0.1-0.1-0.1-0.3-0.1-0.6v-2.5
			c0-0.3,0-0.5,0.1-0.6c0.1-0.1,0.2-0.2,0.5-0.3l9.9-2.1c0.1,0,0.2,0,0.3-0.1c0.1,0,0.2,0,0.3,0c0.3,0,0.4,0.1,0.6,0.2
			c0.1,0.2,0.2,0.4,0.2,0.6v39.9L78.2,66.9z"/>
		<path d="M97.4,30.1c0,0.8-0.2,1.5-0.4,2.1c-0.3,0.7-0.7,1.2-1.2,1.7s-1.1,0.9-1.7,1.2c-0.7,0.3-1.4,0.4-2.1,0.4
			c-0.8,0-1.4-0.1-2.1-0.4c-0.7-0.3-1.2-0.7-1.7-1.2s-0.9-1.1-1.2-1.7c-0.3-0.7-0.4-1.4-0.4-2.1c0-0.8,0.1-1.5,0.4-2.1
			c0.3-0.7,0.7-1.2,1.2-1.7s1.1-0.9,1.8-1.1c0.7-0.3,1.4-0.4,2.1-0.4s1.4,0.1,2.1,0.4s1.2,0.7,1.7,1.2s0.9,1.1,1.2,1.7
			C97.4,28.7,97.4,29.4,97.4,30.1 M88,45.4l-2.8-1c-0.2-0.1-0.4-0.2-0.5-0.3c-0.1-0.1-0.1-0.3-0.1-0.6V41c0-0.3,0-0.5,0.1-0.6
			c0.1-0.2,0.3-0.2,0.5-0.3l9.9-2.1c0.1,0,0.2,0,0.3-0.1c0.1,0,0.2,0,0.3,0c0.3,0,0.4,0.1,0.5,0.2c0.1,0.2,0.2,0.4,0.2,0.6v27.2
			l2.8,1c0.3,0.1,0.4,0.2,0.5,0.3c0.1,0.1,0.1,0.3,0.1,0.6v2.4c0,0.3-0.1,0.6-0.2,0.7c-0.1,0.1-0.4,0.2-0.7,0.2H85.5
			c-0.3,0-0.6-0.1-0.7-0.2c-0.1-0.1-0.2-0.4-0.2-0.7v-2.4c0-0.3,0-0.5,0.1-0.6c0.1-0.1,0.3-0.2,0.5-0.3l2.8-1V45.4z"/>
		<path d="M125.5,55c0-0.7,0-1.3,0-2c0-0.3,0-0.5,0-0.8s0-0.5-0.1-0.8c-0.1-0.4-0.1-0.9-0.2-1.3c-0.1-0.5-0.2-0.9-0.3-1.4
			s-0.3-0.9-0.4-1.4c-0.2-0.5-0.4-0.9-0.6-1.2c-0.3-0.4-0.6-0.7-0.9-1c-0.4-0.3-0.8-0.5-1.2-0.6c-0.3-0.1-0.6-0.2-0.8-0.2
			c-0.3,0-0.6-0.1-0.8-0.1c-0.3,0-0.6,0-0.8,0.1c-0.3,0-0.5,0.1-0.8,0.2c-0.5,0.2-1,0.4-1.4,0.8c-0.4,0.4-0.7,0.8-1,1.3
			s-0.5,1-0.6,1.5c-0.1,0.5-0.3,1.1-0.4,1.6c0,0.2-0.1,0.4-0.1,0.6s-0.1,0.4-0.1,0.6c0,0.3-0.1,0.7-0.1,1c0,0.3,0,0.7-0.1,1
			c0,0.3,0,0.6,0,1c0,0.3,0,0.6,0,1c0,0.7,0,1.4,0,2.1c0,0.3,0,0.5,0.1,0.8c0,0.3,0,0.5,0.1,0.8c0,0.2,0,0.4,0.1,0.6
			c0,0.2,0.1,0.4,0.1,0.6c0.1,0.6,0.2,1.1,0.3,1.7c0.1,0.6,0.3,1.2,0.6,1.7s0.6,1,1,1.4c0.4,0.4,0.9,0.7,1.5,0.9
			c0.3,0.1,0.5,0.1,0.8,0.2c0.3,0,0.6,0,0.8,0c0.3,0,0.6,0,0.8,0c0.3,0,0.6-0.1,0.8-0.2c0.5-0.1,0.8-0.3,1.2-0.6
			c0.3-0.3,0.6-0.6,0.9-0.9c0.3-0.4,0.5-0.7,0.6-1.2c0.2-0.4,0.3-0.9,0.4-1.3s0.2-0.9,0.3-1.3c0.1-0.4,0.1-0.9,0.2-1.3
			c0-0.3,0.1-0.6,0.1-0.9s0-0.6,0-1C125.5,56.2,125.5,55.6,125.5,55 M134.4,54.8c0,0.8,0,1.6-0.1,2.4c-0.1,0.8-0.2,1.6-0.3,2.4
			c-0.1,0.8-0.3,1.6-0.5,2.4c-0.2,0.8-0.5,1.5-0.8,2.3c-0.5,1-1.1,2-1.8,2.9c-0.3,0.5-0.7,0.9-1.1,1.3c-0.4,0.4-0.8,0.8-1.3,1.1
			c-0.6,0.5-1.2,0.9-1.9,1.2s-1.4,0.6-2.1,0.8c-0.7,0.2-1.4,0.4-2.2,0.5c-0.7,0.1-1.5,0.1-2.3,0.1c-0.8,0-1.5,0-2.3-0.1
			c-0.7-0.1-1.5-0.3-2.2-0.5c-0.5-0.1-0.9-0.3-1.4-0.5c-0.4-0.2-0.9-0.4-1.3-0.7c-0.5-0.3-0.9-0.6-1.3-0.9c-0.4-0.3-0.8-0.7-1.2-1
			c-0.9-0.9-1.6-1.9-2.2-3c-0.6-1.1-1.1-2.2-1.4-3.4c-0.3-1.2-0.6-2.4-0.7-3.6c-0.2-1.2-0.2-2.5-0.2-3.7s0.1-2.5,0.2-3.7
			c0.2-1.2,0.4-2.4,0.8-3.6c0.4-1.2,0.8-2.3,1.4-3.3c0.6-1.1,1.3-2,2.2-3c0.3-0.3,0.7-0.6,1-0.9c0.4-0.3,0.7-0.6,1.1-0.8
			c0.5-0.3,0.9-0.5,1.4-0.8c0.5-0.2,1-0.4,1.5-0.6c0.8-0.3,1.6-0.4,2.4-0.5c0.8-0.1,1.6-0.2,2.4-0.2c1.5,0,3,0.2,4.4,0.6
			c1.4,0.4,2.8,1.1,4,2c0.4,0.3,0.9,0.7,1.2,1.1c0.4,0.4,0.8,0.8,1.1,1.3c0.4,0.5,0.7,0.9,1,1.5c0.3,0.5,0.6,1,0.8,1.6
			c0.3,0.7,0.6,1.4,0.8,2.2c0.2,0.8,0.4,1.5,0.5,2.3c0.1,0.8,0.2,1.6,0.3,2.4C134.4,53.2,134.4,54.1,134.4,54.8"/>
		<path d="M173.2,47.6c0.8,0.4,1.5,0.8,2.2,1.2c0.7,0.4,1.3,0.9,1.9,1.5c0.6,0.5,1.1,1.2,1.5,1.8c0.4,0.7,0.8,1.4,1,2.3
			c0.2,0.5,0.3,1.1,0.3,1.6c0.1,0.5,0.1,1.1,0.1,1.7c0,0.9-0.1,1.8-0.2,2.8c-0.1,0.9-0.4,1.8-0.7,2.7c-0.2,0.4-0.3,0.8-0.5,1.2
			c-0.2,0.4-0.4,0.8-0.7,1.2c-0.7,1.1-1.6,2-2.5,2.8c-1,0.8-2,1.4-3.1,1.9s-2.3,0.9-3.5,1.1c-1.2,0.2-2.5,0.4-3.8,0.4
			c-1.7,0-3.4-0.2-5.1-0.6c-1.7-0.4-3.3-1-4.8-1.7c-0.3-0.2-0.7-0.3-1-0.5s-0.7-0.4-1-0.6c-0.2-0.1-0.3-0.2-0.5-0.4
			c-0.2-0.1-0.2-0.3-0.2-0.5c0-0.1,0-0.3,0.1-0.4c0-0.1,0.1-0.2,0.2-0.4l2.3-4.4c0.1-0.2,0.2-0.3,0.3-0.4c0.1-0.1,0.3-0.2,0.5-0.2
			s0.4,0.1,0.7,0.2c0.2,0.1,0.4,0.2,0.6,0.3c0.3,0.2,0.6,0.3,0.9,0.4c0.3,0.1,0.6,0.3,0.9,0.4c1,0.4,1.9,0.7,2.9,1
			c1,0.2,2,0.4,3,0.4c0.7,0,1.4-0.1,2.1-0.2c0.7-0.1,1.3-0.3,1.9-0.6c0.6-0.3,1.1-0.7,1.6-1.2s0.8-1.1,1.1-1.8
			c0.1-0.4,0.2-0.8,0.3-1.2c0.1-0.4,0.1-0.8,0.1-1.3c0-0.3,0-0.7-0.1-1c0-0.3-0.1-0.7-0.2-1c-0.1-0.5-0.3-0.9-0.6-1.3
			c-0.4-0.6-0.8-1.1-1.4-1.5c-0.5-0.4-1.1-0.7-1.7-0.9c-0.6-0.2-1.3-0.4-2-0.4c-0.7-0.1-1.4-0.1-2-0.1h-2.3c-0.4,0-0.6-0.1-0.8-0.3
			c-0.2-0.2-0.2-0.4-0.2-0.8v-5c0-0.2,0-0.4,0.1-0.6c0.1-0.2,0.2-0.3,0.5-0.4c0.1,0,0.2,0,0.2,0c0.1,0,0.2,0,0.2,0h2.4
			c0.6,0,1.3,0,2-0.1c0.7-0.1,1.3-0.3,1.9-0.5c0.6-0.2,1.1-0.6,1.6-1c0.5-0.4,0.9-1,1.1-1.6c0.2-0.4,0.3-0.9,0.4-1.4
			c0.1-0.5,0.1-1,0.1-1.5c0-0.4,0-0.8-0.1-1.1c-0.1-0.4-0.1-0.7-0.3-1.1c-0.2-0.5-0.5-1-0.8-1.4c-0.3-0.4-0.7-0.7-1.2-1
			c-0.4-0.2-0.9-0.4-1.4-0.6c-0.5-0.1-1-0.2-1.6-0.2c-0.8,0-1.7,0.2-2.4,0.5c-0.7,0.4-1.4,0.8-2,1.4c-0.1,0.1-0.1,0.1-0.2,0.2
			c-0.1,0.1-0.1,0.2-0.2,0.2l-0.6,0.6c-0.1,0.1-0.2,0.2-0.2,0.3c-0.1,0.1-0.2,0.2-0.3,0.3c-0.1,0.1-0.2,0.2-0.3,0.2
			c-0.1,0.1-0.2,0.1-0.4,0.1s-0.3,0-0.4-0.1c-0.1-0.1-0.2-0.2-0.3-0.3l-3.7-3.3c-0.1-0.1-0.2-0.2-0.3-0.4c-0.1-0.1-0.1-0.3-0.1-0.4
			c0-0.2,0.1-0.4,0.2-0.5c0.1-0.2,0.2-0.3,0.3-0.4c0.2-0.3,0.5-0.6,0.8-0.9s0.6-0.6,0.8-0.9c0.7-0.6,1.4-1.2,2.2-1.7
			s1.6-0.9,2.4-1.2s1.7-0.6,2.6-0.7c0.9-0.2,1.8-0.2,2.7-0.2c1,0,2,0.1,3,0.3c1,0.2,1.9,0.5,2.8,0.9c0.9,0.4,1.7,0.9,2.5,1.6
			c0.8,0.7,1.5,1.4,2,2.2c0.2,0.3,0.4,0.7,0.7,1c0.2,0.4,0.4,0.7,0.5,1.1c0.3,0.8,0.5,1.6,0.7,2.4c0.1,0.8,0.2,1.7,0.2,2.5
			c0,0.7,0,1.3-0.1,2c-0.1,0.7-0.3,1.3-0.5,1.9s-0.6,1.2-0.9,1.7c-0.4,0.5-0.8,1-1.3,1.5s-1,0.9-1.5,1.3
			C174.2,46.9,173.7,47.3,173.2,47.6"/>
	</g>
</g>
</svg>
