<?xml version="1.0" encoding="utf-8"?>
<!-- Generator: Adobe Illustrator 15.0.0, SVG Export Plug-In . SVG Version: 6.00 Build 0)  -->
<!DOCTYPE svg PUBLIC "-//W3C//DTD SVG 1.1//EN" "http://www.w3.org/Graphics/SVG/1.1/DTD/svg11.dtd">
<svg version="1.1" id="Capa_1" xmlns="http://www.w3.org/2000/svg" xmlns:xlink="http://www.w3.org/1999/xlink" x="0px" y="0px"
	 width="170.3px" height="52.2px" viewBox="-0.6 0 170.3 52.2" style="enable-background:new -0.6 0 170.3 52.2;"
	 xml:space="preserve">
<style type="text/css">
<![CDATA[
	.st0{fill:#1A171B;}
]]>
</style>
<g>
	<path class="st0" d="M147.3,47.7l1.5-2.6l1.5,2.6H147.3z M149.6,42.1h-1.7l-5.5,9.8h2.4l1.4-2.4h5.1l1.4,2.4h2.4L149.6,42.1z
		 M142.9,42.1H132V44h4.3v8h2.2v-8h4.3V42.1z M125.6,42.1h-2.2V52h8.9v-1.9h-6.7V42.1z M112.5,47.7L114,45l1.5,2.6H112.5z
		 M113.1,42.1l-5.5,9.8h2.4l1.4-2.4h5.1l1.4,2.4h2.4l-5.5-9.8H113.1z M98.9,47.3L95,42.1h-1.9V52h2.2v-6.1l3.6,4.7l3.6-4.7V52h2.2
		v-9.8h-1.9L98.9,47.3z M74.4,47.7h4.1v-1.9h-4.1V44h6.8v-1.9h-9V52h9.4v-1.9h-7.2V47.7z M62.4,42.1h-2.2V52h8.9v-1.9h-6.7V42.1z
		 M52.4,50.1h-4.9v-2.5h4.9c0.9,0,1.4,0.5,1.4,1.3C53.8,49.6,53.3,50.1,52.4,50.1 M47.5,44h4.4c0.9,0,1.2,0.3,1.2,0.9
		c0,0.5-0.3,0.8-1.2,0.8h-4.4V44z M54.7,46.4c0.4-0.4,0.6-1,0.6-1.6c0-1.8-1.3-2.7-3.5-2.7h-6.5V52h6.9c2.4,0,3.9-1.2,3.9-3.1
		C56.1,47.9,55.6,47,54.7,46.4 M35.6,50.3c-2,0-3.5-1.3-3.5-3.2s1.5-3.3,3.5-3.3c2,0,3.5,1.3,3.5,3.3C39.2,49,37.7,50.3,35.6,50.3
		 M35.6,41.9c-3.3,0-5.8,2.2-5.8,5.1c0,3,2.5,5.1,5.8,5.1c3.3,0,5.8-2.2,5.8-5.1C41.4,44.1,39,41.9,35.6,41.9 M20.9,50.1h-2.6V44
		h2.6c2.3,0,3.6,1.3,3.6,3.1C24.5,48.9,23.3,50.1,20.9,50.1 M20.9,42.1H16V52h4.9c3.7,0,5.9-2.1,5.9-4.9
		C26.8,44.2,24.5,42.1,20.9,42.1"/>
	<path class="st0" d="M34.5,27.8c-1.3,0-3.3-1.8-3.3-3.6l0-9.8c0-0.9,0.7-1.8,1.4-1.8c1.2,0,3,1.5,3,3.5l0,10.4
		C35.7,27.4,35.2,27.8,34.5,27.8 M41,19.2c0-2.9-0.1-4.3-0.2-5c-0.1-1-2-2.5-4.4-3.9c-0.9-0.5-1.9-0.8-3.4,0c-3.1,1.7-6.8,4.3-7,5.8
		c-0.1,0.8-0.1,2.3-0.1,4.9l0,0.5c0,0.4,0,0.8,0,1.2l0,0.3c0,2.2,0.1,3,0.2,3.8c0.1,1.2,2.6,3.4,4.3,4.2c0.6,0.3,1.2,0.5,1.8,0.5
		c0.4,0,0.8-0.1,1.3-0.3c3.1-1.4,7.2-4.3,7.3-6.1c0.1-0.8,0.1-1.9,0.1-4.5l0-0.4C41,19.8,41,19.5,41,19.2 M49.6,25.4
		c-0.1-2.4-0.2-5.4-0.2-8.6l0-1.1c0-0.2,0-0.4,0-0.5c0-0.2,0-0.4,0-0.5l0-1.1C49.3,6.6,49.5,0,49.5,0l-5.6,4.5L44,25.1
		c0,3.7,2.9,6.3,3.8,6.3c1.2,0,3.8-2.8,4.8-4.2c-0.3,0-0.6,0.1-1,0.1C50.7,27.2,49.7,26.9,49.6,25.4 M59.7,25.3
		c-0.1-2.4-0.2-5.4-0.2-8.6l0-1.1c0-0.2,0-0.4,0-0.5c0-0.2,0-0.4,0-0.5l0-1.1C59.4,6.5,59.5,0,59.5,0L54,4.5L54.1,25
		c0,3.7,2.8,6.3,3.8,6.3c1.2,0,3.8-2.8,4.8-4.2c-0.3,0-0.6,0.1-1,0.1C60.8,27.2,59.7,26.8,59.7,25.3 M20.9,1.1l-4.6,3.3
		c0,0,1.9,0.4,1.9,2.1l0.1,13.1c0,2.6-0.7,4.7-2.1,6.4c-1,1.2-1.7,1.8-2.3,1.8c-0.1,0-0.3-0.1-0.4-0.1c-0.8-0.6-2.2-1.7-3.1-2.4
		c-1.8-1.3-3.5-0.5-3.5-0.5s2.2-2.3,2.8-3c0.2-0.2,0.3-0.5,0.3-1L9.9,1.5l-5.6,0c-2.6,0-4.9-1.1-4.9-1.1S0.8,3,2.4,4.9
		C2.8,5.5,4,6.3,5.3,6.3c0.4,0,0.8,0,1.1,0l0.4,0c0.4,0,0.7,0,1.1,0c0.4,0,0.5,0.2,0.1,0.5c-0.4,0.4-3.8,3.4-3.8,3.4L4.3,25
		c0,1-0.1,1.5-0.6,1.8c-2.7,1.6-3.4,3.4-3.4,3.4s1.6-1.3,3.7-1.3c1.2,0,2.5,0.5,3.5,1.2c2.1,1.5,5.4,3.9,5.4,3.9s3.4-2.5,6.5-6.5
		c2.7-3.5,4.8-8.6,4.8-14L24,5C24,1.9,20.9,1.1,20.9,1.1 M66.8,21.4l2.2-4.7c-1.4,0.2-3,0.3-4.2,0.3l-0.4,0c-0.8,0-1.3,0-1.3,0
		l-2.2,4.9c1.7-0.3,4.9-0.4,5.7-0.4C66.8,21.4,66.8,21.4,66.8,21.4 M102.2,23c-0.3,0.2-2.9,2.1-4,2.9c0,0-1.5-1-1.5-3.5
		c0-3,1.5-5.9,5.7-6.2l0,5.6c0,0.1,0,0.3,0,0.4v0.2C102.4,22.7,102.3,22.9,102.2,23 M107.7,24.8l-0.1-12.7c0-1.4-1.1-1.8-2.2-1.8
		l-6.3,0c-1.5,0-2.2-0.9-2.2-0.9l-4.2,1.7c0,0,1.7,1.9,3.7,1.9c1.6,0,2.1-0.2,4.3-0.2c1.3,0,1.6,0.7,1.6,1.8
		c-6.2,0.2-10.7,2.3-10.6,8.3c0,4,2.5,7,3.3,7.9c0.1,0.2,0.3,0.2,0.4,0.2c0.2,0,0.3-0.1,0.5-0.2c1.5-1.1,6.5-5.3,6.5-5.3
		c0,3,2.7,5.4,4.2,5.4c1.1,0,3.1-2.6,4.2-4.5c-0.4,0.1-0.7,0.1-1,0.1C108.6,26.6,107.7,26.1,107.7,24.8 M82.9,29.1
		c-0.2,0-0.5,0-0.7-0.1c-1.8-0.7-8.8-3.6-8.8-3.6s1.6-1.3,2.3-2.1c0.2-0.2,0.3-0.5,0.3-1L76,7.4l5.9,0c1.1,0,2.3,0.8,2.3,2.4
		l0.1,17.8C84.4,28.3,83.8,29.1,82.9,29.1 M84,2.7L70.4,2.8c-2.6,0-4.9-1.3-4.9-1.3S66.8,4,68.4,6c0.5,0.6,1.6,1.5,2.9,1.5l2.6,0
		c0.2,0,0.3,0.1,0.3,0.2c0,0.1,0,0.2-0.2,0.4c-0.5,0.4-3.8,3.3-3.8,3.3l0.1,15c0,1-0.1,1.3-0.6,1.6c-2.7,1.7-3.7,3.7-3.7,3.7
		s1.5-1.3,3.6-1.3c0.8,0,1.6,0,3,0.6c2.4,1,4.7,2.1,5.8,2.5c0.5,0.2,1,0.3,1.5,0.3c0.4,0,0.9-0.1,1.4-0.2c1-0.3,7.9-4.5,8.4-5
		c0.5-0.5,0.5-1.1,0.5-2.1l-0.1-18C90.1,5.4,87.6,2.7,84,2.7 M137.4,25.3l-0.1-10.3c0-1.5-0.4-2.1-0.9-2.7c-1-1-2.3-2.1-3.4-2.5
		c-0.5-0.2-0.9-0.1-1.6,0.2c-1.6,0.6-4.3,2.6-4.3,2.6c-1-1.1-2.6-2.3-3.8-2.7c-0.5-0.2-0.9-0.1-1.5,0.1c-1.6,0.6-4.3,2.5-4.3,2.5
		s-0.9-1.8-2.5-2.2c-0.6-0.1-1.1-0.3-1.6,0.1c-0.5,0.4-3.6,3.6-3.6,3.6h0c0,0,0,0,0,0h0.1c0.6,0,2.2,0.2,2.2,2.5l0,9.1
		c0,3.3,3.4,5.5,4,5.5c0.5,0,2.9-2.1,4.2-4.1c-0.3,0.1-0.6,0.1-1,0.1c-1,0-1.9-0.4-1.9-1.6l-0.1-10.1c0-1,1.4-2,2.1-2
		c1,0,2.5,1.8,2.5,3.2l0.1,9c0,3.3,3.4,5.5,4,5.5c0.5,0,2.9-2.1,4.2-4.1c-0.3,0.1-0.6,0.1-1,0.1c-1,0-1.9-0.4-1.9-1.6l-0.1-10
		c0-1.2,1.5-2,2.1-2c1,0,2.5,1.7,2.5,3.1l0,9c0,3.3,3.4,5.5,4,5.5c0.5,0,2.9-2.1,4.2-4.1c-0.3,0.1-0.6,0.1-1,0.1
		C138.3,26.9,137.4,26.5,137.4,25.3 M168.8,26.8c-1,0-1.9-0.4-1.9-1.6l-0.1-10.3c0-1.5-0.4-2.1-0.9-2.7c-1-1-2.3-2.1-3.4-2.5
		c-0.5-0.2-0.9-0.1-1.6,0.2c-1.6,0.6-4.3,2.6-4.3,2.6c-1-1.1-2.6-2.3-3.8-2.7c-0.5-0.2-0.9-0.1-1.5,0.1c-1.6,0.6-4.3,2.5-4.3,2.5
		s-0.9-1.8-2.5-2.2c-0.6-0.1-1.1-0.3-1.6,0.1c-0.5,0.4-3.6,3.6-3.6,3.6h0c0,0,0,0,0,0h0.1c0.5,0,2.2,0.2,2.2,2.5l0,9.1
		c0,3.3,3.4,5.5,4,5.5c0.5,0,2.9-2.1,4.2-4.1c-0.3,0.1-0.6,0.1-1,0.1c-1,0-1.9-0.4-1.9-1.7l-0.1-10.1c0-1,1.4-2,2.1-2
		c1,0,2.5,1.8,2.5,3.2l0.1,9c0,3.3,3.4,5.5,4,5.5c0.5,0,2.9-2.1,4.2-4.1c-0.3,0.1-0.6,0.1-0.9,0.1c-1,0-1.9-0.4-1.9-1.7l-0.1-10
		c0-1.2,1.5-2,2.1-2c1,0,2.5,1.7,2.5,3.1l0,9c0,3.3,3.4,5.5,4,5.5c0.5,0,2.9-2.1,4.2-4.1C169.4,26.7,169.1,26.8,168.8,26.8"/>
	<path class="st0" d="M147.3,47.7l1.5-2.6l1.5,2.6H147.3z M149.6,42.1h-1.7l-5.5,9.8h2.4l1.4-2.4h5.1l1.4,2.4h2.4L149.6,42.1z
		 M142.9,42.1H132V44h4.3v8h2.2v-8h4.3V42.1z M125.6,42.1h-2.2V52h8.9v-1.9h-6.7V42.1z M112.5,47.7L114,45l1.5,2.6H112.5z
		 M113.1,42.1l-5.5,9.8h2.4l1.4-2.4h5.1l1.4,2.4h2.4l-5.5-9.8H113.1z M98.9,47.3L95,42.1h-1.9V52h2.2v-6.1l3.6,4.7l3.6-4.7V52h2.2
		v-9.8h-1.9L98.9,47.3z M74.4,47.7h4.1v-1.9h-4.1V44h6.8v-1.9h-9V52h9.4v-1.9h-7.2V47.7z M62.4,42.1h-2.2V52h8.9v-1.9h-6.7V42.1z
		 M52.4,50.1h-4.9v-2.5h4.9c0.9,0,1.4,0.5,1.4,1.3C53.8,49.6,53.3,50.1,52.4,50.1 M47.5,44h4.4c0.9,0,1.2,0.3,1.2,0.9
		c0,0.5-0.3,0.8-1.2,0.8h-4.4V44z M54.7,46.4c0.4-0.4,0.6-1,0.6-1.6c0-1.8-1.3-2.7-3.5-2.7h-6.5V52h6.9c2.4,0,3.9-1.2,3.9-3.1
		C56.1,47.9,55.6,47,54.7,46.4 M35.6,50.3c-2,0-3.5-1.3-3.5-3.2s1.5-3.3,3.5-3.3c2,0,3.5,1.3,3.5,3.3C39.2,49,37.7,50.3,35.6,50.3
		 M35.6,41.9c-3.3,0-5.8,2.2-5.8,5.1c0,3,2.5,5.1,5.8,5.1c3.3,0,5.8-2.2,5.8-5.1C41.4,44.1,39,41.9,35.6,41.9 M20.9,50.1h-2.6V44
		h2.6c2.3,0,3.6,1.3,3.6,3.1C24.5,48.9,23.3,50.1,20.9,50.1 M20.9,42.1H16V52h4.9c3.7,0,5.9-2.1,5.9-4.9
		C26.8,44.2,24.5,42.1,20.9,42.1"/>
	<path class="st0" d="M34.5,27.8c-1.3,0-3.3-1.8-3.3-3.6l0-9.8c0-0.9,0.7-1.8,1.4-1.8c1.2,0,3,1.5,3,3.5l0,10.4
		C35.7,27.4,35.2,27.8,34.5,27.8 M41,19.2c0-2.9-0.1-4.3-0.2-5c-0.1-1-2-2.5-4.4-3.9c-0.9-0.5-1.9-0.8-3.4,0c-3.1,1.7-6.8,4.3-7,5.8
		c-0.1,0.8-0.1,2.3-0.1,4.9l0,0.5c0,0.4,0,0.8,0,1.2l0,0.3c0,2.2,0.1,3,0.2,3.8c0.1,1.2,2.6,3.4,4.3,4.2c0.6,0.3,1.2,0.5,1.8,0.5
		c0.4,0,0.8-0.1,1.3-0.3c3.1-1.4,7.2-4.3,7.3-6.1c0.1-0.8,0.1-1.9,0.1-4.5l0-0.4C41,19.8,41,19.5,41,19.2 M49.6,25.4
		c-0.1-2.4-0.2-5.4-0.2-8.6l0-1.1c0-0.2,0-0.4,0-0.5c0-0.2,0-0.4,0-0.5l0-1.1C49.3,6.6,49.5,0,49.5,0l-5.6,4.5L44,25.1
		c0,3.7,2.9,6.3,3.8,6.3c1.2,0,3.8-2.8,4.8-4.2c-0.3,0-0.6,0.1-1,0.1C50.7,27.2,49.7,26.9,49.6,25.4 M59.7,25.3
		c-0.1-2.4-0.2-5.4-0.2-8.6l0-1.1c0-0.2,0-0.4,0-0.5c0-0.2,0-0.4,0-0.5l0-1.1C59.4,6.5,59.5,0,59.5,0L54,4.5L54.1,25
		c0,3.7,2.8,6.3,3.8,6.3c1.2,0,3.8-2.8,4.8-4.2c-0.3,0-0.6,0.1-1,0.1C60.8,27.2,59.7,26.8,59.7,25.3 M20.9,1.1l-4.6,3.3
		c0,0,1.9,0.4,1.9,2.1l0.1,13.1c0,2.6-0.7,4.7-2.1,6.4c-1,1.2-1.7,1.8-2.3,1.8c-0.1,0-0.3-0.1-0.4-0.1c-0.8-0.6-2.2-1.7-3.1-2.4
		c-1.8-1.3-3.5-0.5-3.5-0.5s2.2-2.3,2.8-3c0.2-0.2,0.3-0.5,0.3-1L9.9,1.5l-5.6,0c-2.6,0-4.9-1.1-4.9-1.1S0.8,3,2.4,4.9
		C2.8,5.5,4,6.3,5.3,6.3c0.4,0,0.8,0,1.1,0l0.4,0c0.4,0,0.7,0,1.1,0c0.4,0,0.5,0.2,0.1,0.5c-0.4,0.4-3.8,3.4-3.8,3.4L4.3,25
		c0,1-0.1,1.5-0.6,1.8c-2.7,1.6-3.4,3.4-3.4,3.4s1.6-1.3,3.7-1.3c1.2,0,2.5,0.5,3.5,1.2c2.1,1.5,5.4,3.9,5.4,3.9s3.4-2.5,6.5-6.5
		c2.7-3.5,4.8-8.6,4.8-14L24,5C24,1.9,20.9,1.1,20.9,1.1 M66.8,21.4l2.2-4.7c-1.4,0.2-3,0.3-4.2,0.3l-0.4,0c-0.8,0-1.3,0-1.3,0
		l-2.2,4.9c1.7-0.3,4.9-0.4,5.7-0.4C66.8,21.4,66.8,21.4,66.8,21.4 M102.2,23c-0.3,0.2-2.9,2.1-4,2.9c0,0-1.5-1-1.5-3.5
		c0-3,1.5-5.9,5.7-6.2l0,5.6c0,0.1,0,0.3,0,0.4v0.2C102.4,22.7,102.3,22.9,102.2,23 M107.7,24.8l-0.1-12.7c0-1.4-1.1-1.8-2.2-1.8
		l-6.3,0c-1.5,0-2.2-0.9-2.2-0.9l-4.2,1.7c0,0,1.7,1.9,3.7,1.9c1.6,0,2.1-0.2,4.3-0.2c1.3,0,1.6,0.7,1.6,1.8
		c-6.2,0.2-10.7,2.3-10.6,8.3c0,4,2.5,7,3.3,7.9c0.1,0.2,0.3,0.2,0.4,0.2c0.2,0,0.3-0.1,0.5-0.2c1.5-1.1,6.5-5.3,6.5-5.3
		c0,3,2.7,5.4,4.2,5.4c1.1,0,3.1-2.6,4.2-4.5c-0.4,0.1-0.7,0.1-1,0.1C108.6,26.6,107.7,26.1,107.7,24.8 M82.9,29.1
		c-0.2,0-0.5,0-0.7-0.1c-1.8-0.7-8.8-3.6-8.8-3.6s1.6-1.3,2.3-2.1c0.2-0.2,0.3-0.5,0.3-1L76,7.4l5.9,0c1.1,0,2.3,0.8,2.3,2.4
		l0.1,17.8C84.4,28.3,83.8,29.1,82.9,29.1 M84,2.7L70.4,2.8c-2.6,0-4.9-1.3-4.9-1.3S66.8,4,68.4,6c0.5,0.6,1.6,1.5,2.9,1.5l2.6,0
		c0.2,0,0.3,0.1,0.3,0.2c0,0.1,0,0.2-0.2,0.4c-0.5,0.4-3.8,3.3-3.8,3.3l0.1,15c0,1-0.1,1.3-0.6,1.6c-2.7,1.7-3.7,3.7-3.7,3.7
		s1.5-1.3,3.6-1.3c0.8,0,1.6,0,3,0.6c2.4,1,4.7,2.1,5.8,2.5c0.5,0.2,1,0.3,1.5,0.3c0.4,0,0.9-0.1,1.4-0.2c1-0.3,7.9-4.5,8.4-5
		c0.5-0.5,0.5-1.1,0.5-2.1l-0.1-18C90.1,5.4,87.6,2.7,84,2.7 M137.4,25.3l-0.1-10.3c0-1.5-0.4-2.1-0.9-2.7c-1-1-2.3-2.1-3.4-2.5
		c-0.5-0.2-0.9-0.1-1.6,0.2c-1.6,0.6-4.3,2.6-4.3,2.6c-1-1.1-2.6-2.3-3.8-2.7c-0.5-0.2-0.9-0.1-1.5,0.1c-1.6,0.6-4.3,2.5-4.3,2.5
		s-0.9-1.8-2.5-2.2c-0.6-0.1-1.1-0.3-1.6,0.1c-0.5,0.4-3.6,3.6-3.6,3.6h0c0,0,0,0,0,0h0.1c0.6,0,2.2,0.2,2.2,2.5l0,9.1
		c0,3.3,3.4,5.5,4,5.5c0.5,0,2.9-2.1,4.2-4.1c-0.3,0.1-0.6,0.1-1,0.1c-1,0-1.9-0.4-1.9-1.6l-0.1-10.1c0-1,1.4-2,2.1-2
		c1,0,2.5,1.8,2.5,3.2l0.1,9c0,3.3,3.4,5.5,4,5.5c0.5,0,2.9-2.1,4.2-4.1c-0.3,0.1-0.6,0.1-1,0.1c-1,0-1.9-0.4-1.9-1.6l-0.1-10
		c0-1.2,1.5-2,2.1-2c1,0,2.5,1.7,2.5,3.1l0,9c0,3.3,3.4,5.5,4,5.5c0.5,0,2.9-2.1,4.2-4.1c-0.3,0.1-0.6,0.1-1,0.1
		C138.3,26.9,137.4,26.5,137.4,25.3 M168.8,26.8c-1,0-1.9-0.4-1.9-1.6l-0.1-10.3c0-1.5-0.4-2.1-0.9-2.7c-1-1-2.3-2.1-3.4-2.5
		c-0.5-0.2-0.9-0.1-1.6,0.2c-1.6,0.6-4.3,2.6-4.3,2.6c-1-1.1-2.6-2.3-3.8-2.7c-0.5-0.2-0.9-0.1-1.5,0.1c-1.6,0.6-4.3,2.5-4.3,2.5
		s-0.9-1.8-2.5-2.2c-0.6-0.1-1.1-0.3-1.6,0.1c-0.5,0.4-3.6,3.6-3.6,3.6h0c0,0,0,0,0,0h0.1c0.5,0,2.2,0.2,2.2,2.5l0,9.1
		c0,3.3,3.4,5.5,4,5.5c0.5,0,2.9-2.1,4.2-4.1c-0.3,0.1-0.6,0.1-1,0.1c-1,0-1.9-0.4-1.9-1.7l-0.1-10.1c0-1,1.4-2,2.1-2
		c1,0,2.5,1.8,2.5,3.2l0.1,9c0,3.3,3.4,5.5,4,5.5c0.5,0,2.9-2.1,4.2-4.1c-0.3,0.1-0.6,0.1-0.9,0.1c-1,0-1.9-0.4-1.9-1.7l-0.1-10
		c0-1.2,1.5-2,2.1-2c1,0,2.5,1.7,2.5,3.1l0,9c0,3.3,3.4,5.5,4,5.5c0.5,0,2.9-2.1,4.2-4.1C169.4,26.7,169.1,26.8,168.8,26.8"/>
</g>
</svg>
